<svg width="107" height="107" viewBox="0 0 107 107" fill="none" xmlns="http://www.w3.org/2000/svg">
<g filter="url(#filter0_d_2176_3422)">
<path fill-rule="evenodd" clip-rule="evenodd" d="M30.5693 88.9999C35.0062 88.9999 39.0358 87.256 42.01 84.4161C44.9842 87.256 49.0138 88.9999 53.4507 88.9999C57.9122 88.9999 61.9618 87.2366 64.9407 84.3689C67.9196 87.2366 71.9692 88.9999 76.4307 88.9999C85.5817 88.9999 93 81.5816 93 72.4306C93 67.9693 91.2368 63.9198 88.3692 60.9409C91.2368 57.962 93 53.9125 93 49.4511C93 45.0141 91.256 40.9844 88.416 38.0102C91.256 35.036 93 31.0063 93 26.5693C93 17.4183 85.5817 10 76.4307 10C71.9692 10 67.9196 11.7633 64.9407 14.6311C61.9618 11.7633 57.9122 10 53.4507 10C49.0138 10 44.9842 11.7439 42.01 14.5838C39.0358 11.7439 35.0062 10 30.5693 10C21.4183 10 14 17.4183 14 26.5693C14 31.0063 15.744 35.036 18.584 38.0102C15.744 40.9844 14 45.0141 14 49.4511C14 53.9125 15.7632 57.962 18.6308 60.9409C15.7632 63.9197 14 67.9693 14 72.4306C14 81.5816 21.4183 88.9999 30.5693 88.9999Z" fill="#E6F8F2"/>
</g>
<g clip-path="url(#clip0_2176_3422)">
<path fill-rule="evenodd" clip-rule="evenodd" d="M40.7699 32.0223C41.1199 31.6729 41.5401 31.4018 42.0027 31.2271C42.4653 31.0523 42.9598 30.9779 43.4534 31.0087C43.947 31.0396 44.4283 31.1749 44.8656 31.4059C45.3029 31.6368 45.6861 31.958 45.9899 32.3483L49.5799 36.9603C50.2379 37.8063 50.4699 38.9083 50.2099 39.9483L49.1159 44.3283C49.0597 44.5552 49.063 44.7927 49.1253 45.018C49.1877 45.2432 49.3071 45.4486 49.4719 45.6143L54.3859 50.5283C54.5518 50.6935 54.7575 50.813 54.9832 50.8754C55.2088 50.9378 55.4467 50.9408 55.6739 50.8843L60.0519 49.7903C60.5652 49.6627 61.1007 49.6531 61.6182 49.7622C62.1358 49.8714 62.6218 50.0963 63.0399 50.4203L67.6519 54.0083C69.3099 55.2983 69.4619 57.7483 67.9779 59.2303L65.9099 61.2983C64.4299 62.7783 62.2179 63.4283 60.1559 62.7023C54.8772 60.8475 50.085 57.8258 46.1359 53.8623C42.1726 49.9138 39.151 45.1222 37.2959 39.8443C36.5719 37.7843 37.2219 35.5703 38.7019 34.0903L40.7699 32.0223Z" fill="#008155"/>
</g>
<defs>
<filter id="filter0_d_2176_3422" x="0.9" y="0.9" width="105.2" height="105.2" filterUnits="userSpaceOnUse" color-interpolation-filters="sRGB">
<feFlood flood-opacity="0" result="BackgroundImageFix"/>
<feColorMatrix in="SourceAlpha" type="matrix" values="0 0 0 0 0 0 0 0 0 0 0 0 0 0 0 0 0 0 127 0" result="hardAlpha"/>
<feOffset dy="4"/>
<feGaussianBlur stdDeviation="6.55"/>
<feComposite in2="hardAlpha" operator="out"/>
<feColorMatrix type="matrix" values="0 0 0 0 0.956863 0 0 0 0 0.356863 0 0 0 0 0.486596 0 0 0 0.1 0"/>
<feBlend mode="normal" in2="BackgroundImageFix" result="effect1_dropShadow_2176_3422"/>
<feBlend mode="normal" in="SourceGraphic" in2="effect1_dropShadow_2176_3422" result="shape"/>
</filter>
<clipPath id="clip0_2176_3422">
<rect width="32" height="32" fill="white" transform="translate(37 31)"/>
</clipPath>
</defs>
</svg>
