<svg width="172" height="82" viewBox="0 0 172 82" fill="none" xmlns="http://www.w3.org/2000/svg">
<rect y="12.895" width="167" height="69" rx="20" transform="rotate(-4.4285 0 12.895)" fill="#FCD113"/>
<path d="M36.2837 60.656C34.2458 60.8138 32.3473 60.5958 30.5882 60.0018C28.8291 59.4079 27.2695 58.4896 25.9095 57.2469C24.5474 55.9763 23.446 54.4467 22.6054 52.6583C21.7927 50.8677 21.3009 48.8697 21.1301 46.6643C20.968 44.5706 21.1806 42.6023 21.7681 40.7594C22.3813 38.8865 23.291 37.2153 24.4971 35.7457C25.7032 34.2762 27.1425 33.0976 28.815 32.2098C30.4874 31.322 32.3286 30.8003 34.3386 30.6446C35.7623 30.5343 37.1615 30.6507 38.5361 30.9935C39.9364 31.3063 41.2112 31.8114 42.3605 32.5088C43.5355 33.176 44.5098 33.9712 45.2834 34.8942L42.5117 38.2683C41.6394 37.5214 40.764 36.9152 39.8854 36.4496C39.0326 35.954 38.1627 35.6001 37.2756 35.388C36.4165 35.1737 35.5543 35.1 34.6888 35.1671C33.3209 35.273 32.0573 35.6377 30.898 36.261C29.7644 36.8543 28.7867 37.6462 27.9647 38.6366C27.1706 39.6249 26.5721 40.7806 26.169 42.1036C25.7638 43.3988 25.6196 44.8001 25.7363 46.3076C25.8596 47.8988 26.2093 49.3321 26.7855 50.6074C27.3874 51.8527 28.1707 52.9013 29.1354 53.7534C30.1001 54.6054 31.216 55.2351 32.4833 55.6425C33.7763 56.0198 35.1765 56.1501 36.684 56.0333C37.6052 55.962 38.5028 55.7661 39.3767 55.4456C40.2505 55.1252 41.0599 54.6974 41.8048 54.1623C42.5497 53.6272 43.2183 53.0137 43.8107 52.3219L46.3573 55.8318C45.7736 56.6352 44.9472 57.3873 43.8781 58.0879C42.8369 58.7864 41.6465 59.3701 40.3067 59.8389C38.9926 60.2777 37.6516 60.5501 36.2837 60.656ZM51.2722 59.074L49.5696 37.0898L53.9246 36.7525L54.4597 43.6618L53.9112 42.0193C54.1361 40.9347 54.578 39.9315 55.2368 39.0099C55.9235 38.0861 56.722 37.3363 57.6322 36.7602C58.5704 36.1821 59.5559 35.853 60.5888 35.773C61.0634 35.7363 61.5133 35.7435 61.9385 35.7949C62.3917 35.844 62.7482 35.9147 63.0081 36.0069L62.2407 40.7844C61.8949 40.6708 61.5094 40.5883 61.0841 40.537C60.6847 40.4556 60.2895 40.43 59.8987 40.4603C59.1449 40.5187 58.431 40.7284 57.7569 41.0895C57.1085 41.4206 56.5397 41.8719 56.0503 42.4434C55.5867 42.9848 55.2284 43.6163 54.9754 44.338C54.7202 45.0318 54.624 45.7835 54.6867 46.593L55.6271 58.7367L51.2722 59.074ZM77.0935 57.4955C74.8323 57.6706 72.7855 57.3517 70.9533 56.5387C69.1468 55.6957 67.6762 54.4756 66.5415 52.8784C65.4347 51.2791 64.797 49.3907 64.6283 47.2133C64.4943 45.4824 64.6513 43.8835 65.0994 42.4166C65.5474 40.9496 66.22 39.6618 67.1171 38.5532C68.0399 37.4146 69.1637 36.5131 70.4883 35.8488C71.8387 35.1545 73.3235 34.7446 74.9427 34.6192C76.3664 34.509 77.7141 34.6854 78.9856 35.1486C80.255 35.5839 81.3731 36.2415 82.34 37.1215C83.3347 37.9993 84.1202 39.0759 84.6964 40.3512C85.2983 41.5964 85.6448 42.9878 85.7358 44.5254L85.8366 46.3711L67.8724 47.7624L66.6434 44.4033L81.8439 43.2261L81.2709 43.9866L81.193 42.9816C81.0379 42.0668 80.6671 41.2671 80.0805 40.5823C79.4938 39.8976 78.7795 39.3772 77.9375 39.0211C77.0955 38.6651 76.1999 38.5238 75.2508 38.5973C73.7433 38.7141 72.4958 39.1056 71.5083 39.7718C70.5186 40.4101 69.8018 41.3081 69.3579 42.4659C68.9118 43.5957 68.7514 44.9702 68.8768 46.5893C68.9958 48.1247 69.4206 49.4399 70.1513 50.5347C70.8798 51.6016 71.8542 52.3968 73.0742 52.9201C74.2943 53.4435 75.672 53.6457 77.2074 53.5268C78.2961 53.4425 79.2871 53.1832 80.1802 52.7489C81.1013 52.3125 82.0694 51.5776 83.0846 50.5441L85.4988 53.4323C84.8807 54.1542 84.1026 54.8042 83.1645 55.3824C82.2542 55.9584 81.2666 56.4421 80.2017 56.8335C79.1624 57.1948 78.1264 57.4155 77.0935 57.4955ZM99.41 55.7671C97.5955 55.9077 95.8955 55.5338 94.3102 54.6456C92.7528 53.7552 91.4604 52.4791 90.433 50.8175C89.4057 49.1559 88.8077 47.2363 88.639 45.0588C88.4682 42.8534 88.7636 40.8647 89.525 39.0926C90.3122 37.2904 91.4357 35.8414 92.8954 34.7454C94.383 33.6472 96.09 33.0236 98.0162 32.8744C99.1608 32.7858 100.221 32.8722 101.196 33.1337C102.171 33.3952 103.031 33.806 103.777 34.3661C104.548 34.8961 105.187 35.5346 105.694 36.2817C106.229 37.0266 106.587 37.8414 106.768 38.7261L105.779 38.4657L105.338 32.7707L109.693 32.4335L111.396 54.4176L107.041 54.7549L106.635 49.5206L107.618 49.1496C107.508 49.9163 107.217 50.6831 106.743 51.4501C106.294 52.1869 105.687 52.8658 104.92 53.4868C104.182 54.1057 103.337 54.6205 102.386 55.0311C101.463 55.4396 100.471 55.685 99.41 55.7671ZM100.233 51.7015C101.545 51.5999 102.678 51.1891 103.634 50.4692C104.589 49.7493 105.302 48.8094 105.774 47.6495C106.272 46.4595 106.464 45.1387 106.352 43.687C106.242 42.2633 105.85 41.0158 105.178 39.9445C104.533 38.8711 103.683 38.0523 102.628 37.4881C101.574 36.9238 100.39 36.6925 99.078 36.7941C97.7939 36.8936 96.6742 37.3032 95.7189 38.0232C94.7916 38.7409 94.078 39.6808 93.5782 40.8429C93.1064 42.0028 92.9256 43.2946 93.0359 44.7183C93.1483 46.17 93.528 47.4465 94.175 48.5478C94.8477 49.619 95.6975 50.4379 96.7243 51.0043C97.779 51.5685 98.9484 51.8009 100.233 51.7015ZM119.721 53.7729L117.584 26.1775L121.897 25.8435L124.034 53.4388L119.721 53.7729ZM113.778 36.3297L113.454 32.1422L127.44 31.059L127.764 35.2465L113.778 36.3297ZM142.738 52.4115C140.477 52.5866 138.431 52.2677 136.598 51.4548C134.792 50.6117 133.321 49.3916 132.186 47.7945C131.08 46.1952 130.442 44.3068 130.273 42.1293C130.139 40.3985 130.296 38.7996 130.744 37.3326C131.192 35.8656 131.865 34.5779 132.762 33.4693C133.685 32.3306 134.809 31.4292 136.133 30.7649C137.484 30.0705 138.969 29.6607 140.588 29.5353C142.011 29.425 143.359 29.6015 144.631 30.0647C145.9 30.5 147.018 31.1576 147.985 32.0376C148.98 32.9154 149.765 33.9919 150.341 35.2673C150.943 36.5125 151.29 37.9039 151.381 39.4415L151.482 41.2872L133.517 42.6784L132.288 39.3193L147.489 38.1421L146.916 38.9026L146.838 37.8976C146.683 36.9829 146.312 36.1831 145.725 35.4984C145.139 34.8136 144.425 34.2932 143.583 33.9372C142.74 33.5811 141.845 33.4399 140.896 33.5134C139.388 33.6301 138.141 34.0216 137.153 34.6878C136.164 35.3262 135.447 36.2242 135.003 37.3819C134.557 38.5118 134.396 39.8862 134.522 41.5054C134.641 43.0408 135.066 44.3559 135.796 45.4508C136.525 46.5177 137.499 47.3128 138.719 47.8362C139.939 48.3595 141.317 48.5618 142.852 48.4429C143.941 48.3585 144.932 48.0992 145.825 47.665C146.746 47.2286 147.714 46.4936 148.73 45.4601L151.144 48.3484C150.526 49.0702 149.748 49.7203 148.809 50.2984C147.899 50.8744 146.912 51.3581 145.847 51.7495C144.807 52.1108 143.771 52.3315 142.738 52.4115Z" fill="#2E2E2E"/>
</svg>
