<svg width="138" height="50" viewBox="0 0 138 50" fill="none" xmlns="http://www.w3.org/2000/svg">
<rect x="1.74689" y="0.634277" width="136" height="46" rx="20" transform="rotate(1.03106 1.74689 0.634277)" fill="#FEEBEF"/>
<path d="M19.2287 32.9541L19.2844 29.8586L22.092 29.9091L22.2829 19.3028L19.4753 19.2523L19.531 16.1568L28.7455 16.3226L28.6898 19.4181L25.8823 19.3676L25.6914 29.9739L28.499 30.0244L28.4432 33.1199L19.2287 32.9541ZM31.8812 33.1818L32.1097 20.4879L35.3972 20.547L35.4255 22.9719L34.9199 23.0588C35.1034 22.6461 35.3421 22.2743 35.6361 21.9435C35.9301 21.6128 36.2712 21.3309 36.6595 21.0978C37.0637 20.8651 37.483 20.6886 37.9172 20.5684C38.3517 20.4322 38.7849 20.368 39.2169 20.3757C39.8728 20.3875 40.4628 20.5022 40.987 20.7196C41.5111 20.9371 41.9532 21.2731 42.313 21.7277C42.6732 22.1662 42.9508 22.7473 43.1458 23.4709L42.6188 23.4134L42.7936 23.0325C43.0085 22.6523 43.2787 22.3131 43.6041 22.0149C43.9298 21.7008 44.2946 21.4353 44.6986 21.2185C45.1028 20.9857 45.5221 20.8093 45.9563 20.6891C46.3906 20.5688 46.8156 20.5125 47.2316 20.52C48.2234 20.5378 49.0437 20.7526 49.6924 21.1644C50.3414 21.5601 50.8188 22.1528 51.1246 22.9424C51.4465 23.7323 51.5972 24.6952 51.5767 25.831L51.4381 33.5338L48.0306 33.4725L48.1649 26.0097C48.1753 25.4338 48.1038 24.9604 47.9505 24.5896C47.7971 24.2187 47.57 23.9426 47.2693 23.7612C46.9688 23.5637 46.5786 23.4607 46.0986 23.4521C45.7307 23.4454 45.3856 23.5032 45.0633 23.6255C44.7574 23.732 44.4824 23.8951 44.2384 24.1147C44.0107 24.3186 43.8303 24.5634 43.6971 24.8491C43.5639 25.1347 43.4942 25.4535 43.4879 25.8055L43.3514 33.3882L39.9439 33.3269L40.0787 25.8401C40.0882 25.3122 40.0083 24.8627 39.8389 24.4916C39.6858 24.1048 39.4591 23.8126 39.1586 23.6152C38.8581 23.4178 38.4839 23.315 38.0359 23.307C37.668 23.3003 37.3229 23.3581 37.0006 23.4804C36.6947 23.5869 36.4277 23.7501 36.1997 23.97C35.972 24.174 35.7836 24.4186 35.6344 24.704C35.5012 24.9896 35.4316 25.3004 35.4256 25.6364L35.2887 33.2431L31.8812 33.1818ZM59.4297 33.9176C58.3739 33.8986 57.4272 33.5936 56.5897 33.0024C55.7522 32.4112 55.0944 31.6153 54.6164 30.6145C54.1383 29.6137 53.9108 28.4735 53.9338 27.1937C53.9569 25.9139 54.2251 24.7905 54.7386 23.8236C55.2684 22.841 55.9702 22.0775 56.8442 21.5331C57.7184 20.9728 58.7074 20.7025 59.8112 20.7224C60.4351 20.7336 61.0013 20.8398 61.5098 21.041C62.0345 21.2265 62.486 21.4826 62.8642 21.8095C63.2583 22.1366 63.5877 22.5106 63.8521 22.9314C64.1166 23.3523 64.3005 23.8037 64.4038 24.2856L63.6861 24.1527L63.7418 21.0572L67.1253 21.118L66.8968 33.812L63.4654 33.7502L63.5202 30.7027L64.2894 30.6446C64.1534 31.0902 63.9378 31.5104 63.6426 31.9051C63.3475 32.2999 62.981 32.6533 62.5434 32.9655C62.122 33.262 61.6456 33.5014 61.1142 33.6839C60.5831 33.8504 60.0216 33.9283 59.4297 33.9176ZM60.4187 30.983C61.0586 30.9945 61.6212 30.8526 62.1066 30.5573C62.592 30.262 62.9676 29.8446 63.2333 29.3053C63.5154 28.7503 63.663 28.1049 63.6762 27.369C63.6892 26.6491 63.5646 26.0148 63.3024 25.466C63.0563 24.9174 62.6959 24.4869 62.2215 24.1743C61.7473 23.8457 61.1903 23.6757 60.5504 23.6641C59.9265 23.6529 59.3717 23.803 58.886 24.1143C58.4166 24.4099 58.0411 24.8272 57.7593 25.3662C57.4776 25.9052 57.3302 26.5347 57.3173 27.2546C57.304 27.9904 57.4283 28.6408 57.6902 29.2056C57.9524 29.7544 58.3127 30.1849 58.7712 30.4972C59.2456 30.8098 59.7948 30.9717 60.4187 30.983ZM75.9968 39.4967C74.989 39.4785 73.9999 39.3087 73.0295 38.9872C72.0588 38.6817 71.2737 38.2915 70.6742 37.8166L71.918 35.3906C72.234 35.6203 72.5983 35.8269 73.0111 36.0104C73.4238 36.1938 73.8533 36.3376 74.2995 36.4416C74.7617 36.546 75.2328 36.6024 75.7127 36.6111C76.5446 36.6261 77.2268 36.5103 77.7593 36.2639C78.3078 36.0177 78.7226 35.6411 79.0038 35.1341C79.2847 34.643 79.4322 34.0056 79.4463 33.2217L79.486 31.0141L80.0598 31.1444C79.9543 31.6706 79.6815 32.1538 79.2416 32.5939C78.8019 33.0181 78.2516 33.3602 77.5908 33.6204C76.9303 33.8645 76.2561 33.9804 75.5682 33.9681C74.3844 33.9467 73.3415 33.6559 72.4394 33.0956C71.5374 32.5353 70.831 31.7705 70.3204 30.8011C69.8097 29.8318 69.5656 28.7232 69.5881 27.4754C69.6111 26.1956 69.8874 25.0724 70.4169 24.1058C70.9626 23.1234 71.6885 22.3604 72.5944 21.8166C73.5166 21.2571 74.5536 20.9877 75.7055 21.0084C76.1854 21.0171 76.6403 21.0813 77.0702 21.201C77.5161 21.3211 77.9212 21.4884 78.2854 21.703C78.6659 21.9018 78.9978 22.1319 79.2811 22.393C79.5808 22.6384 79.824 22.9068 80.0108 23.1983C80.1975 23.4897 80.3123 23.7798 80.3551 24.0686L79.6558 24.248L79.804 21.3462L83.0675 21.405L82.8563 33.1391C82.8376 34.1789 82.6691 35.096 82.3507 35.8904C82.0324 36.6848 81.5724 37.3486 80.9707 37.8819C80.3847 38.4314 79.6652 38.8426 78.8121 39.1153C77.9751 39.3882 77.0367 39.5154 75.9968 39.4967ZM76.2414 31.2437C76.9133 31.2558 77.4999 31.1144 78.0013 30.8193C78.5187 30.5246 78.9182 30.1077 79.2 29.5687C79.4817 29.0297 79.6292 28.3922 79.6425 27.6563C79.6554 26.9365 79.5308 26.3021 79.2687 25.7533C79.0068 25.1885 78.6226 24.7495 78.1162 24.4364C77.6257 24.1235 77.0445 23.961 76.3727 23.9489C75.7168 23.9371 75.13 24.0866 74.6123 24.3973C74.1109 24.6923 73.7193 25.1094 73.4376 25.6484C73.1559 26.1874 73.0085 26.8168 72.9955 27.5367C72.9826 28.2566 73.1071 28.8989 73.3689 29.4638C73.6311 30.0126 74.0074 30.4434 74.4979 30.7563C75.0043 31.0694 75.5855 31.2319 76.2414 31.2437ZM86.5125 34.165L86.741 21.4711L90.1484 21.5324L89.92 34.2263L86.5125 34.165ZM88.4678 18.8857C87.8119 18.8739 87.3029 18.7047 86.9407 18.3782C86.5785 18.0516 86.4027 17.5924 86.4134 17.0005C86.4232 16.4565 86.6151 16.0199 86.989 15.6906C87.3793 15.3456 87.8944 15.1788 88.5343 15.1903C89.1902 15.2021 89.6991 15.3793 90.061 15.7219C90.4232 16.0485 90.5991 16.4997 90.5887 17.0756C90.5786 17.6355 90.3786 18.08 89.9886 18.409C89.6146 18.7383 89.1077 18.8973 88.4678 18.8857ZM93.5593 34.2918L93.7878 21.5979L97.0512 21.6566L97.1006 24.2499L96.4235 24.5258C96.6099 23.9531 96.9312 23.4388 97.3874 22.9829C97.86 22.5113 98.4188 22.1373 99.0639 21.8609C99.709 21.5845 100.383 21.4526 101.087 21.4652C102.047 21.4825 102.844 21.6889 103.477 22.0843C104.126 22.4801 104.603 23.0728 104.909 23.8624C105.231 24.6363 105.382 25.5912 105.361 26.727L105.221 34.5017L101.814 34.4404L101.949 26.9296C101.96 26.3537 101.888 25.8724 101.735 25.4855C101.582 25.0987 101.339 24.8143 101.006 24.6323C100.69 24.4346 100.291 24.3474 99.8109 24.3707C99.4269 24.3638 99.0658 24.4213 98.7276 24.5433C98.4056 24.6495 98.1226 24.8124 97.8786 25.0321C97.6506 25.252 97.4621 25.5047 97.3129 25.79C97.1798 26.0757 97.1101 26.3865 97.1041 26.7224L96.9668 34.3532L95.287 34.3229C94.9191 34.3163 94.5912 34.3104 94.3032 34.3052C94.0152 34.3001 93.7673 34.2956 93.5593 34.2918ZM114.505 34.9089C113.13 34.8841 111.935 34.5826 110.921 34.0042C109.907 33.4259 109.121 32.6436 108.563 31.6574C108.004 30.6712 107.737 29.5462 107.759 28.2824C107.777 27.3066 107.953 26.4136 108.288 25.6035C108.622 24.7934 109.083 24.0975 109.67 23.516C110.256 22.9185 110.945 22.4668 111.734 22.1609C112.54 21.8394 113.407 21.687 114.335 21.7037C115.199 21.7192 115.996 21.8936 116.726 22.2268C117.456 22.544 118.08 22.9953 118.598 23.5807C119.132 24.1504 119.536 24.8217 119.81 25.5948C120.084 26.3679 120.197 27.21 120.148 28.1213L120.105 29.1767L109.907 28.9932L109.393 26.8956L117.335 27.0385L116.944 27.4635L116.953 26.9356C116.929 26.5031 116.792 26.1086 116.542 25.752C116.309 25.3958 116.002 25.1182 115.621 24.9193C115.241 24.7204 114.811 24.6167 114.331 24.608C113.627 24.5954 113.024 24.7206 112.524 24.9836C112.039 25.2469 111.664 25.6402 111.398 26.1635C111.133 26.6868 110.993 27.3244 110.98 28.0763C110.966 28.8442 111.114 29.511 111.424 30.0766C111.75 30.6426 112.206 31.0909 112.792 31.4215C113.394 31.7364 114.103 31.9011 114.919 31.9158C115.479 31.9259 115.993 31.8471 116.46 31.6795C116.927 31.5119 117.428 31.2169 117.964 30.7944L119.555 33.1034C119.083 33.511 118.565 33.8537 118 34.1316C117.435 34.3935 116.855 34.5911 116.261 34.7244C115.666 34.8577 115.081 34.9192 114.505 34.9089Z" fill="#851C33"/>
</svg>
