<svg width="135" height="125" viewBox="0 0 135 125" fill="none" xmlns="http://www.w3.org/2000/svg">
<rect x="3.96466" y="84.3335" width="124" height="41" rx="20" transform="rotate(-15 3.96466 84.3335)" fill="#DB2E55"/>
<path d="M28.0993 106.854L27.4316 104.362L29.6918 103.757L27.4039 95.218L25.1436 95.8236L24.4759 93.3315L31.8942 91.3438L32.5619 93.8359L30.3017 94.4415L32.5896 102.98L34.8499 102.375L35.5176 104.867L28.0993 106.854ZM38.3048 104.12L35.5665 93.9005L38.1938 93.1965L38.8301 95.2622L38.3513 95.6389C38.3688 95.1373 38.5077 94.6515 38.7683 94.1813C39.0382 93.6949 39.3997 93.2667 39.8528 92.8969C40.3058 92.527 40.8157 92.2662 41.3824 92.1143C42.1551 91.9073 42.8405 91.8893 43.4385 92.0603C44.0493 92.2279 44.5681 92.5928 44.9948 93.1548C45.4309 93.7006 45.7714 94.4306 46.0164 95.345L47.6936 101.604L44.9504 102.339L43.3301 96.2926C43.2059 95.8289 43.038 95.4598 42.8264 95.1852C42.6148 94.9106 42.3547 94.7388 42.0463 94.6696C41.7473 94.584 41.4081 94.6059 41.0286 94.7352C40.7195 94.818 40.4436 94.9472 40.2007 95.1227C39.9673 95.2818 39.7781 95.4775 39.6333 95.7095C39.5013 95.9382 39.4084 96.1839 39.3546 96.4468C39.3137 96.7062 39.3295 96.9712 39.4019 97.2416L41.048 103.385L39.6957 103.747C39.3995 103.827 39.1355 103.897 38.9037 103.959C38.6718 104.022 38.4722 104.075 38.3048 104.12ZM50.3223 100.9L47.584 90.6804L50.2113 89.9764L50.8476 92.0421L50.3688 92.4189C50.3862 91.9172 50.5252 91.4314 50.7857 90.9613C51.0557 90.4748 51.4172 90.0467 51.8703 89.6768C52.3233 89.307 52.8332 89.0461 53.3998 88.8943C54.1726 88.6872 54.8579 88.6692 55.4559 88.8403C56.0668 89.0079 56.5856 89.3727 57.0122 89.9348C57.4483 90.4805 57.7889 91.2105 58.0339 92.125L59.7111 98.3842L56.9678 99.1192L55.3476 93.0725C55.2234 92.6089 55.0555 92.2397 54.8439 91.9652C54.6322 91.6906 54.3722 91.5187 54.0638 91.4495C53.7648 91.364 53.4256 91.3858 53.0461 91.5151C52.737 91.5979 52.461 91.7271 52.2182 91.9026C51.9848 92.0618 51.7956 92.2574 51.6507 92.4895C51.5188 92.7181 51.4259 92.9638 51.3721 93.2267C51.3312 93.4861 51.3469 93.7511 51.4194 94.0215L53.0655 100.165L51.7132 100.527C51.417 100.607 51.153 100.677 50.9211 100.739C50.6893 100.802 50.4897 100.855 50.3223 100.9ZM67.1439 96.5996C66.1007 96.8791 65.1065 96.9039 64.1615 96.674C63.2259 96.4278 62.4128 95.9693 61.7224 95.2985C61.0448 94.6242 60.5679 93.7719 60.2918 92.7416C60.0158 91.7113 60.0043 90.7412 60.2574 89.8313C60.52 88.9051 60.9949 88.1015 61.682 87.4205C62.382 86.736 63.2536 86.2539 64.2968 85.9744C65.3272 85.6983 66.3101 85.6834 67.2457 85.9297C68.1942 86.1724 69.0073 86.631 69.6849 87.3052C70.359 87.9666 70.8341 88.8125 71.1102 89.8428C71.3863 90.8731 71.3995 91.8496 71.1498 92.7724C70.9001 93.6951 70.4253 94.4987 69.7252 95.1832C69.0346 95.8514 68.1742 96.3235 67.1439 96.5996ZM66.502 94.2041C67.0043 94.0695 67.4222 93.8264 67.7559 93.4747C68.0862 93.1101 68.3021 92.6796 68.4037 92.183C68.5147 91.6702 68.4961 91.1368 68.3477 90.583C68.1958 90.0163 67.9453 89.5451 67.5962 89.1694C67.2564 88.7773 66.8542 88.5123 66.3894 88.3746C65.9211 88.224 65.4358 88.216 64.9335 88.3506C64.4184 88.4886 63.9957 88.7399 63.6654 89.1045C63.3352 89.469 63.1129 89.9013 62.9984 90.4013C62.8839 90.9013 62.909 91.4329 63.0737 91.9962C63.2092 92.5534 63.4533 93.0264 63.8059 93.415C64.155 93.7908 64.5637 94.054 65.032 94.2046C65.4968 94.3423 65.9868 94.3421 66.502 94.2041ZM77.4698 93.6257L70.4427 84.5554L73.4564 83.7479L78.225 90.6488L77.6186 90.9356L78.402 82.4227L81.3384 81.6359L79.5755 93.0615L77.4698 93.6257ZM89.346 90.6506C88.4959 90.8783 87.6675 90.8518 86.8607 90.5711C86.0539 90.2903 85.3439 89.8042 84.7307 89.1127C84.1175 88.4212 83.6728 87.5602 83.3967 86.5299C83.1207 85.4996 83.077 84.5381 83.2657 83.6455C83.4639 82.7366 83.8503 81.9636 84.425 81.3265C84.9963 80.6765 85.7262 80.2324 86.6149 79.9943C87.1171 79.8597 87.5951 79.8145 88.0486 79.8586C88.5116 79.8864 88.9321 79.9877 89.3102 80.1624C89.7012 80.3337 90.051 80.5575 90.3597 80.8337C90.6684 81.1099 90.9195 81.4291 91.1132 81.7913L90.5078 81.85L89.84 79.3579L92.5639 78.628L95.3023 88.8475L92.5397 89.5877L91.8823 87.1343L92.485 86.9107C92.4786 87.2989 92.4026 87.6851 92.257 88.0692C92.1115 88.4533 91.8994 88.8207 91.6206 89.1714C91.3514 89.5059 91.0249 89.8073 90.6413 90.0757C90.2543 90.3313 89.8225 90.5229 89.346 90.6506ZM89.4627 88.0725C89.9778 87.9345 90.3958 87.6913 90.7166 87.3431C91.0374 86.9949 91.2422 86.5742 91.3309 86.0811C91.4291 85.5717 91.3988 85.0208 91.2401 84.4283C91.0848 83.8488 90.839 83.3694 90.5027 82.9902C90.1793 82.6075 89.7917 82.3456 89.3397 82.2044C88.8843 82.0503 88.399 82.0423 87.8839 82.1804C87.3816 82.3149 86.9718 82.5628 86.6544 82.9239C86.3465 83.2687 86.1417 83.6893 86.0401 84.1859C85.9385 84.6824 85.9654 85.2205 86.1207 85.8001C86.2794 86.3925 86.5286 86.8848 86.8684 87.2769C87.2046 87.6561 87.5923 87.918 88.0314 88.0626C88.4833 88.2038 88.9604 88.2071 89.4627 88.0725ZM99.0378 87.8466L95.6059 75.0384L98.3491 74.3034L101.781 87.1115L99.0378 87.8466ZM95.0444 80.593L94.387 78.1395L101.129 76.333L101.787 78.7864L95.0444 80.593ZM110.462 84.9926C109.354 85.2894 108.328 85.3228 107.383 85.0929C106.438 84.863 105.628 84.4173 104.954 83.7559C104.28 83.0946 103.807 82.2551 103.534 81.2377C103.323 80.4521 103.259 79.6964 103.341 78.9705C103.422 78.2447 103.631 77.5814 103.967 76.9806C104.299 76.367 104.747 75.8468 105.309 75.4201C105.88 74.9771 106.539 74.6555 107.286 74.4554C107.982 74.269 108.66 74.2253 109.322 74.3241C109.98 74.4101 110.583 74.6279 111.133 74.9777C111.691 75.3111 112.169 75.7559 112.567 76.312C112.964 76.868 113.249 77.5166 113.419 78.2576L113.628 79.1128L105.418 81.3127L104.523 79.7511L110.917 78.0377L110.701 78.4683L110.588 78.0433C110.469 77.7024 110.268 77.418 109.986 77.1898C109.717 76.9583 109.407 76.8066 109.057 76.7349C108.706 76.6632 108.338 76.6791 107.951 76.7826C107.385 76.9344 106.931 77.1733 106.591 77.4992C106.263 77.8217 106.053 78.223 105.961 78.7033C105.868 79.1835 105.904 79.7263 106.066 80.3316C106.231 80.9498 106.503 81.4497 106.882 81.8315C107.273 82.2098 107.741 82.4639 108.287 82.5938C108.842 82.7073 109.448 82.6761 110.105 82.5001C110.555 82.3793 110.948 82.1981 111.284 81.9563C111.62 81.7146 111.953 81.3629 112.285 80.9013L114.09 82.3846C113.807 82.8195 113.471 83.2133 113.082 83.5659C112.69 83.9056 112.271 84.1972 111.826 84.4408C111.38 84.6844 110.925 84.8683 110.462 84.9926Z" fill="white"/>
<path d="M56.4646 7.19678L49.9211 27.2832L70.0076 20.7397L54.2975 34.8633L74.9646 39.2397L54.2975 43.6161L70.0076 57.7397L49.9211 51.1962L56.4646 71.2827L42.341 55.5726L37.9646 76.2397L33.5883 55.5726L19.4646 71.2827L26.0082 51.1962L5.92169 57.7397L21.6318 43.6161L0.964633 39.2397L21.6318 34.8633L5.92169 20.7397L26.0082 27.2832L19.4646 7.19678L33.5883 22.9069L37.9646 2.23972L42.341 22.9069L56.4646 7.19678Z" fill="#FEF1B6"/>
</svg>
