<svg width="360" height="435" viewBox="0 0 360 435" fill="none" xmlns="http://www.w3.org/2000/svg">
<g clip-path="url(#clip0_2226_3986)">
<rect width="360" height="435" fill="#FE9133"/>
<g clip-path="url(#clip1_2226_3986)">
<mask id="mask0_2226_3986" style="mask-type:luminance" maskUnits="userSpaceOnUse" x="-7" y="0" width="450" height="435">
<path d="M443 0H-7V435H443V0Z" fill="white"/>
</mask>
<g mask="url(#mask0_2226_3986)">
<path d="M443 -0.000488281H-7V435H443V-0.000488281Z" fill="#FE9133"/>
<path d="M-7.27002 15.7674L3.75498 32.9292V7.54594L-7.27002 -9.61377V15.7674Z" stroke="#FEA354" stroke-miterlimit="10"/>
<path d="M-7.27002 143.396L3.75498 160.558V135.175L-7.27002 118.015V143.396Z" stroke="#FEA354" stroke-miterlimit="10"/>
<path d="M-7.27002 271.068L3.75498 288.231V262.847L-7.27002 245.688V271.068Z" stroke="#FEA354" stroke-miterlimit="10"/>
<path d="M-7.27002 58.3097L3.75498 75.4717V50.0886L-7.27002 32.9287V58.3097Z" stroke="#FEA354" stroke-miterlimit="10"/>
<path d="M-7.27002 185.939L3.75498 203.101V177.718L-7.27002 160.558V185.939Z" stroke="#FEA354" stroke-miterlimit="10"/>
<path d="M-7.27002 313.611L3.75498 330.773V305.39L-7.27002 288.23V313.611Z" stroke="#FEA354" stroke-miterlimit="10"/>
<path d="M-7.27002 398.697L3.75498 415.859V390.476L-7.27002 373.316V398.697Z" stroke="#FEA354" stroke-miterlimit="10"/>
<path d="M-7.27002 100.853L3.75498 118.015V92.632L-7.27002 75.4722V100.853Z" stroke="#FEA354" stroke-miterlimit="10"/>
<path d="M-7.27002 228.508L3.75498 245.688V220.278L-7.27002 203.101V228.508Z" stroke="#FEA354" stroke-miterlimit="10"/>
<path d="M-7.27002 356.154L3.75498 373.316V347.933L-7.27002 330.773V356.154Z" stroke="#FEA354" stroke-miterlimit="10"/>
<path d="M-7.27002 441.242L3.75498 458.402V433.019L-7.27002 415.859V441.242Z" stroke="#FEA354" stroke-miterlimit="10"/>
<path d="M168.5 15.7674L179.525 32.9292V7.54594L168.5 -9.61377V15.7674Z" stroke="#FEA354" stroke-miterlimit="10"/>
<path d="M168.5 143.396L179.525 160.558V135.175L168.5 118.015V143.396Z" stroke="#FEA354" stroke-miterlimit="10"/>
<path d="M168.5 271.068L179.525 288.231V262.847L168.5 245.688V271.068Z" stroke="#FEA354" stroke-miterlimit="10"/>
<path d="M168.5 58.3097L179.525 75.4717V50.0886L168.5 32.9287V58.3097Z" stroke="#FEA354" stroke-miterlimit="10"/>
<path d="M168.5 185.939L179.525 203.101V177.718L168.5 160.558V185.939Z" stroke="#FEA354" stroke-miterlimit="10"/>
<path d="M168.5 313.611L179.525 330.773V305.39L168.5 288.23V313.611Z" stroke="#FEA354" stroke-miterlimit="10"/>
<path d="M168.5 398.697L179.525 415.859V390.476L168.5 373.316V398.697Z" stroke="#FEA354" stroke-miterlimit="10"/>
<path d="M168.5 100.853L179.525 118.015V92.632L168.5 75.4722V100.853Z" stroke="#FEA354" stroke-miterlimit="10"/>
<path d="M168.5 228.508L179.525 245.688V220.278L168.5 203.101V228.508Z" stroke="#FEA354" stroke-miterlimit="10"/>
<path d="M168.5 356.154L179.525 373.316V347.933L168.5 330.773V356.154Z" stroke="#FEA354" stroke-miterlimit="10"/>
<path d="M168.5 441.242L179.525 458.402V433.019L168.5 415.859V441.242Z" stroke="#FEA354" stroke-miterlimit="10"/>
<path d="M157.52 7.54594V32.9292L168.5 15.7674V-9.61377L157.52 7.54594Z" stroke="#FEA354" stroke-miterlimit="10"/>
<path d="M157.52 135.175V160.558L168.5 143.396V118.015L157.52 135.175Z" stroke="#FEA354" stroke-miterlimit="10"/>
<path d="M157.52 262.847V288.231L168.5 271.068V245.688L157.52 262.847Z" stroke="#FEA354" stroke-miterlimit="10"/>
<path d="M157.52 50.0886V75.4717L168.5 58.3097V32.9287L157.52 50.0886Z" stroke="#FEA354" stroke-miterlimit="10"/>
<path d="M157.52 177.718V203.101L168.5 185.939V160.558L157.52 177.718Z" stroke="#FEA354" stroke-miterlimit="10"/>
<path d="M157.52 305.39V330.773L168.5 313.611V288.23L157.52 305.39Z" stroke="#FEA354" stroke-miterlimit="10"/>
<path d="M157.52 390.476V415.859L168.5 398.697V373.316L157.52 390.476Z" stroke="#FEA354" stroke-miterlimit="10"/>
<path d="M157.52 92.632V118.015L168.5 100.853V75.4722L157.52 92.632Z" stroke="#FEA354" stroke-miterlimit="10"/>
<path d="M157.52 220.278V245.688L168.5 228.508V203.101L157.52 220.278Z" stroke="#FEA354" stroke-miterlimit="10"/>
<path d="M157.52 347.933V373.316L168.5 356.154V330.773L157.52 347.933Z" stroke="#FEA354" stroke-miterlimit="10"/>
<path d="M157.52 433.019V458.402L168.5 441.242V415.859L157.52 433.019Z" stroke="#FEA354" stroke-miterlimit="10"/>
<path d="M80.615 15.7674L91.64 32.9292V7.54594L80.615 -9.61377V15.7674Z" stroke="#FEA354" stroke-miterlimit="10"/>
<path d="M80.615 143.396L91.64 160.558V135.175L80.615 118.015V143.396Z" stroke="#FEA354" stroke-miterlimit="10"/>
<path d="M80.615 271.068L91.64 288.231V262.847L80.615 245.688V271.068Z" stroke="#FEA354" stroke-miterlimit="10"/>
<path d="M80.615 58.3097L91.64 75.4717V50.0886L80.615 32.9287V58.3097Z" stroke="#FEA354" stroke-miterlimit="10"/>
<path d="M80.615 185.939L91.64 203.101V177.718L80.615 160.558V185.939Z" stroke="#FEA354" stroke-miterlimit="10"/>
<path d="M80.615 313.611L91.64 330.773V305.39L80.615 288.23V313.611Z" stroke="#FEA354" stroke-miterlimit="10"/>
<path d="M80.615 398.697L91.64 415.859V390.476L80.615 373.316V398.697Z" stroke="#FEA354" stroke-miterlimit="10"/>
<path d="M80.615 100.853L91.64 118.015V92.632L80.615 75.4722V100.853Z" stroke="#FEA354" stroke-miterlimit="10"/>
<path d="M80.615 228.508L91.64 245.688V220.278L80.615 203.101V228.508Z" stroke="#FEA354" stroke-miterlimit="10"/>
<path d="M80.615 356.154L91.64 373.316V347.933L80.615 330.773V356.154Z" stroke="#FEA354" stroke-miterlimit="10"/>
<path d="M80.615 441.242L91.64 458.402V433.019L80.615 415.859V441.242Z" stroke="#FEA354" stroke-miterlimit="10"/>
<path d="M69.6349 7.54594V32.9292L80.6149 15.7674V-9.61377L69.6349 7.54594Z" stroke="#FEA354" stroke-miterlimit="10"/>
<path d="M69.6349 135.175V160.558L80.6149 143.396V118.015L69.6349 135.175Z" stroke="#FEA354" stroke-miterlimit="10"/>
<path d="M69.6349 262.847V288.231L80.6149 271.068V245.688L69.6349 262.847Z" stroke="#FEA354" stroke-miterlimit="10"/>
<path d="M69.6349 50.0886V75.4717L80.6149 58.3097V32.9287L69.6349 50.0886Z" stroke="#FEA354" stroke-miterlimit="10"/>
<path d="M69.6349 177.718V203.101L80.6149 185.939V160.558L69.6349 177.718Z" stroke="#FEA354" stroke-miterlimit="10"/>
<path d="M69.6349 305.39V330.773L80.6149 313.611V288.23L69.6349 305.39Z" stroke="#FEA354" stroke-miterlimit="10"/>
<path d="M69.6349 390.476V415.859L80.6149 398.697V373.316L69.6349 390.476Z" stroke="#FEA354" stroke-miterlimit="10"/>
<path d="M69.6349 92.632V118.015L80.6149 100.853V75.4722L69.6349 92.632Z" stroke="#FEA354" stroke-miterlimit="10"/>
<path d="M69.6349 220.278V245.688L80.6149 228.508V203.101L69.6349 220.278Z" stroke="#FEA354" stroke-miterlimit="10"/>
<path d="M69.6349 347.933V373.316L80.6149 356.154V330.773L69.6349 347.933Z" stroke="#FEA354" stroke-miterlimit="10"/>
<path d="M69.6349 433.019V458.402L80.6149 441.242V415.859L69.6349 433.019Z" stroke="#FEA354" stroke-miterlimit="10"/>
<path d="M256.43 15.7674L267.455 32.9292V7.54594L256.43 -9.61377V15.7674Z" stroke="#FEA354" stroke-miterlimit="10"/>
<path d="M256.43 143.396L267.455 160.558V135.175L256.43 118.015V143.396Z" stroke="#FEA354" stroke-miterlimit="10"/>
<path d="M256.43 271.068L267.455 288.231V262.847L256.43 245.688V271.068Z" stroke="#FEA354" stroke-miterlimit="10"/>
<path d="M256.43 58.3097L267.455 75.4717V50.0886L256.43 32.9287V58.3097Z" stroke="#FEA354" stroke-miterlimit="10"/>
<path d="M256.43 185.939L267.455 203.101V177.718L256.43 160.558V185.939Z" stroke="#FEA354" stroke-miterlimit="10"/>
<path d="M256.43 313.611L267.455 330.773V305.39L256.43 288.23V313.611Z" stroke="#FEA354" stroke-miterlimit="10"/>
<path d="M256.43 398.697L267.455 415.859V390.476L256.43 373.316V398.697Z" stroke="#FEA354" stroke-miterlimit="10"/>
<path d="M256.43 100.853L267.455 118.015V92.632L256.43 75.4722V100.853Z" stroke="#FEA354" stroke-miterlimit="10"/>
<path d="M256.43 228.508L267.455 245.688V220.278L256.43 203.101V228.508Z" stroke="#FEA354" stroke-miterlimit="10"/>
<path d="M256.43 356.154L267.455 373.316V347.933L256.43 330.773V356.154Z" stroke="#FEA354" stroke-miterlimit="10"/>
<path d="M256.43 441.242L267.455 458.402V433.019L256.43 415.859V441.242Z" stroke="#FEA354" stroke-miterlimit="10"/>
<path d="M245.405 7.54594V32.9292L256.43 15.7674V-9.61377L245.405 7.54594Z" stroke="#FEA354" stroke-miterlimit="10"/>
<path d="M245.405 135.175V160.558L256.43 143.396V118.015L245.405 135.175Z" stroke="#FEA354" stroke-miterlimit="10"/>
<path d="M245.405 262.847V288.231L256.43 271.068V245.688L245.405 262.847Z" stroke="#FEA354" stroke-miterlimit="10"/>
<path d="M245.405 50.0886V75.4717L256.43 58.3097V32.9287L245.405 50.0886Z" stroke="#FEA354" stroke-miterlimit="10"/>
<path d="M245.405 177.718V203.101L256.43 185.939V160.558L245.405 177.718Z" stroke="#FEA354" stroke-miterlimit="10"/>
<path d="M245.405 305.39V330.773L256.43 313.611V288.23L245.405 305.39Z" stroke="#FEA354" stroke-miterlimit="10"/>
<path d="M245.405 390.476V415.859L256.43 398.697V373.316L245.405 390.476Z" stroke="#FEA354" stroke-miterlimit="10"/>
<path d="M245.405 92.632V118.015L256.43 100.853V75.4722L245.405 92.632Z" stroke="#FEA354" stroke-miterlimit="10"/>
<path d="M245.405 220.278V245.688L256.43 228.508V203.101L245.405 220.278Z" stroke="#FEA354" stroke-miterlimit="10"/>
<path d="M245.405 347.933V373.316L256.43 356.154V330.773L245.405 347.933Z" stroke="#FEA354" stroke-miterlimit="10"/>
<path d="M245.405 433.019V458.402L256.43 441.242V415.859L245.405 433.019Z" stroke="#FEA354" stroke-miterlimit="10"/>
<path d="M355.34 7.54594V32.9292L366.32 15.7674V-9.61377L355.34 7.54594Z" stroke="#FEA354" stroke-miterlimit="10"/>
<path d="M355.34 135.175V160.558L366.32 143.396V118.015L355.34 135.175Z" stroke="#FEA354" stroke-miterlimit="10"/>
<path d="M355.34 262.847V288.231L366.32 271.068V245.688L355.34 262.847Z" stroke="#FEA354" stroke-miterlimit="10"/>
<path d="M355.34 50.0886V75.4717L366.32 58.3097V32.9287L355.34 50.0886Z" stroke="#FEA354" stroke-miterlimit="10"/>
<path d="M355.34 177.718V203.101L366.32 185.939V160.558L355.34 177.718Z" stroke="#FEA354" stroke-miterlimit="10"/>
<path d="M355.34 305.39V330.773L366.32 313.611V288.23L355.34 305.39Z" stroke="#FEA354" stroke-miterlimit="10"/>
<path d="M355.34 390.476V415.859L366.32 398.697V373.316L355.34 390.476Z" stroke="#FEA354" stroke-miterlimit="10"/>
<path d="M355.34 92.632V118.015L366.32 100.853V75.4722L355.34 92.632Z" stroke="#FEA354" stroke-miterlimit="10"/>
<path d="M355.34 220.278V245.688L366.32 228.508V203.101L355.34 220.278Z" stroke="#FEA354" stroke-miterlimit="10"/>
<path d="M355.34 347.933V373.316L366.32 356.154V330.773L355.34 347.933Z" stroke="#FEA354" stroke-miterlimit="10"/>
<path d="M355.34 433.019V458.402L366.32 441.242V415.859L355.34 433.019Z" stroke="#FEA354" stroke-miterlimit="10"/>
<path d="M36.6949 15.7674L47.7199 32.9292V7.54594L36.6949 -9.61377V15.7674Z" stroke="#FEA354" stroke-miterlimit="10"/>
<path d="M36.6949 143.396L47.7199 160.558V135.175L36.6949 118.015V143.396Z" stroke="#FEA354" stroke-miterlimit="10"/>
<path d="M36.6949 271.068L47.7199 288.231V262.847L36.6949 245.688V271.068Z" stroke="#FEA354" stroke-miterlimit="10"/>
<path d="M36.6949 58.3097L47.7199 75.4717V50.0886L36.6949 32.9287V58.3097Z" stroke="#FEA354" stroke-miterlimit="10"/>
<path d="M36.6949 185.939L47.7199 203.101V177.718L36.6949 160.558V185.939Z" stroke="#FEA354" stroke-miterlimit="10"/>
<path d="M36.6949 313.611L47.7199 330.773V305.39L36.6949 288.23V313.611Z" stroke="#FEA354" stroke-miterlimit="10"/>
<path d="M36.6949 398.697L47.7199 415.859V390.476L36.6949 373.316V398.697Z" stroke="#FEA354" stroke-miterlimit="10"/>
<path d="M36.6949 100.853L47.7199 118.015V92.632L36.6949 75.4722V100.853Z" stroke="#FEA354" stroke-miterlimit="10"/>
<path d="M36.6949 228.508L47.7199 245.688V220.278L36.6949 203.101V228.508Z" stroke="#FEA354" stroke-miterlimit="10"/>
<path d="M36.6949 356.154L47.7199 373.316V347.933L36.6949 330.773V356.154Z" stroke="#FEA354" stroke-miterlimit="10"/>
<path d="M36.6949 441.242L47.7199 458.402V433.019L36.6949 415.859V441.242Z" stroke="#FEA354" stroke-miterlimit="10"/>
<path d="M25.715 7.54594V32.9292L36.695 15.7674V-9.61377L25.715 7.54594Z" stroke="#FEA354" stroke-miterlimit="10"/>
<path d="M25.715 135.175V160.558L36.695 143.396V118.015L25.715 135.175Z" stroke="#FEA354" stroke-miterlimit="10"/>
<path d="M25.715 262.847V288.231L36.695 271.068V245.688L25.715 262.847Z" stroke="#FEA354" stroke-miterlimit="10"/>
<path d="M25.715 50.0886V75.4717L36.695 58.3097V32.9287L25.715 50.0886Z" stroke="#FEA354" stroke-miterlimit="10"/>
<path d="M25.715 177.718V203.101L36.695 185.939V160.558L25.715 177.718Z" stroke="#FEA354" stroke-miterlimit="10"/>
<path d="M25.715 305.39V330.773L36.695 313.611V288.23L25.715 305.39Z" stroke="#FEA354" stroke-miterlimit="10"/>
<path d="M25.715 390.476V415.859L36.695 398.697V373.316L25.715 390.476Z" stroke="#FEA354" stroke-miterlimit="10"/>
<path d="M25.715 92.632V118.015L36.695 100.853V75.4722L25.715 92.632Z" stroke="#FEA354" stroke-miterlimit="10"/>
<path d="M25.715 220.278V245.688L36.695 228.508V203.101L25.715 220.278Z" stroke="#FEA354" stroke-miterlimit="10"/>
<path d="M25.715 347.933V373.316L36.695 356.154V330.773L25.715 347.933Z" stroke="#FEA354" stroke-miterlimit="10"/>
<path d="M25.715 433.019V458.402L36.695 441.242V415.859L25.715 433.019Z" stroke="#FEA354" stroke-miterlimit="10"/>
<path d="M212.42 15.7674L223.49 32.9292V7.54594L212.42 -9.61377V15.7674Z" stroke="#FEA354" stroke-miterlimit="10"/>
<path d="M212.42 143.396L223.49 160.558V135.175L212.42 118.015V143.396Z" stroke="#FEA354" stroke-miterlimit="10"/>
<path d="M212.42 271.068L223.49 288.231V262.847L212.42 245.688V271.068Z" stroke="#FEA354" stroke-miterlimit="10"/>
<path d="M212.42 58.3097L223.49 75.4717V50.0886L212.42 32.9287V58.3097Z" stroke="#FEA354" stroke-miterlimit="10"/>
<path d="M212.42 185.939L223.49 203.101V177.718L212.42 160.558V185.939Z" stroke="#FEA354" stroke-miterlimit="10"/>
<path d="M212.42 313.611L223.49 330.773V305.39L212.42 288.23V313.611Z" stroke="#FEA354" stroke-miterlimit="10"/>
<path d="M212.42 398.697L223.49 415.859V390.476L212.42 373.316V398.697Z" stroke="#FEA354" stroke-miterlimit="10"/>
<path d="M212.42 100.853L223.49 118.015V92.632L212.42 75.4722V100.853Z" stroke="#FEA354" stroke-miterlimit="10"/>
<path d="M212.42 228.508L223.49 245.688V220.278L212.42 203.101V228.508Z" stroke="#FEA354" stroke-miterlimit="10"/>
<path d="M212.42 356.154L223.49 373.316V347.933L212.42 330.773V356.154Z" stroke="#FEA354" stroke-miterlimit="10"/>
<path d="M212.42 441.242L223.49 458.402V433.019L212.42 415.859V441.242Z" stroke="#FEA354" stroke-miterlimit="10"/>
<path d="M201.44 7.54594V32.9292L212.42 15.7674V-9.61377L201.44 7.54594Z" stroke="#FEA354" stroke-miterlimit="10"/>
<path d="M201.44 135.175V160.558L212.42 143.396V118.015L201.44 135.175Z" stroke="#FEA354" stroke-miterlimit="10"/>
<path d="M201.44 262.847V288.231L212.42 271.068V245.688L201.44 262.847Z" stroke="#FEA354" stroke-miterlimit="10"/>
<path d="M201.44 50.0886V75.4717L212.42 58.3097V32.9287L201.44 50.0886Z" stroke="#FEA354" stroke-miterlimit="10"/>
<path d="M201.44 177.718V203.101L212.42 185.939V160.558L201.44 177.718Z" stroke="#FEA354" stroke-miterlimit="10"/>
<path d="M201.44 305.39V330.773L212.42 313.611V288.23L201.44 305.39Z" stroke="#FEA354" stroke-miterlimit="10"/>
<path d="M201.44 390.476V415.859L212.42 398.697V373.316L201.44 390.476Z" stroke="#FEA354" stroke-miterlimit="10"/>
<path d="M201.44 92.632V118.015L212.42 100.853V75.4722L201.44 92.632Z" stroke="#FEA354" stroke-miterlimit="10"/>
<path d="M201.44 220.278V245.688L212.42 228.508V203.101L201.44 220.278Z" stroke="#FEA354" stroke-miterlimit="10"/>
<path d="M201.44 347.933V373.316L212.42 356.154V330.773L201.44 347.933Z" stroke="#FEA354" stroke-miterlimit="10"/>
<path d="M201.44 433.019V458.402L212.42 441.242V415.859L201.44 433.019Z" stroke="#FEA354" stroke-miterlimit="10"/>
<path d="M124.58 15.7674L135.605 32.9292V7.54594L124.58 -9.61377V15.7674Z" stroke="#FEA354" stroke-miterlimit="10"/>
<path d="M124.58 143.396L135.605 160.558V135.175L124.58 118.015V143.396Z" stroke="#FEA354" stroke-miterlimit="10"/>
<path d="M124.58 271.068L135.605 288.231V262.847L124.58 245.688V271.068Z" stroke="#FEA354" stroke-miterlimit="10"/>
<path d="M124.58 58.3097L135.605 75.4717V50.0886L124.58 32.9287V58.3097Z" stroke="#FEA354" stroke-miterlimit="10"/>
<path d="M124.58 185.939L135.605 203.101V177.718L124.58 160.558V185.939Z" stroke="#FEA354" stroke-miterlimit="10"/>
<path d="M124.58 313.611L135.605 330.773V305.39L124.58 288.23V313.611Z" stroke="#FEA354" stroke-miterlimit="10"/>
<path d="M124.58 398.697L135.605 415.859V390.476L124.58 373.316V398.697Z" stroke="#FEA354" stroke-miterlimit="10"/>
<path d="M124.58 100.853L135.605 118.015V92.632L124.58 75.4722V100.853Z" stroke="#FEA354" stroke-miterlimit="10"/>
<path d="M124.58 228.508L135.605 245.688V220.278L124.58 203.101V228.508Z" stroke="#FEA354" stroke-miterlimit="10"/>
<path d="M124.58 356.154L135.605 373.316V347.933L124.58 330.773V356.154Z" stroke="#FEA354" stroke-miterlimit="10"/>
<path d="M124.58 441.242L135.605 458.402V433.019L124.58 415.859V441.242Z" stroke="#FEA354" stroke-miterlimit="10"/>
<path d="M113.555 7.54594V32.9292L124.58 15.7674V-9.61377L113.555 7.54594Z" stroke="#FEA354" stroke-miterlimit="10"/>
<path d="M113.555 135.175V160.558L124.58 143.396V118.015L113.555 135.175Z" stroke="#FEA354" stroke-miterlimit="10"/>
<path d="M113.555 262.847V288.231L124.58 271.068V245.688L113.555 262.847Z" stroke="#FEA354" stroke-miterlimit="10"/>
<path d="M113.555 50.0886V75.4717L124.58 58.3097V32.9287L113.555 50.0886Z" stroke="#FEA354" stroke-miterlimit="10"/>
<path d="M113.555 177.718V203.101L124.58 185.939V160.558L113.555 177.718Z" stroke="#FEA354" stroke-miterlimit="10"/>
<path d="M113.555 305.39V330.773L124.58 313.611V288.23L113.555 305.39Z" stroke="#FEA354" stroke-miterlimit="10"/>
<path d="M113.555 390.476V415.859L124.58 398.697V373.316L113.555 390.476Z" stroke="#FEA354" stroke-miterlimit="10"/>
<path d="M113.555 92.632V118.015L124.58 100.853V75.4722L113.555 92.632Z" stroke="#FEA354" stroke-miterlimit="10"/>
<path d="M113.555 220.278V245.688L124.58 228.508V203.101L113.555 220.278Z" stroke="#FEA354" stroke-miterlimit="10"/>
<path d="M113.555 347.933V373.316L124.58 356.154V330.773L113.555 347.933Z" stroke="#FEA354" stroke-miterlimit="10"/>
<path d="M113.555 433.019V458.402L124.58 441.242V415.859L113.555 433.019Z" stroke="#FEA354" stroke-miterlimit="10"/>
<path d="M300.35 15.7674L311.375 32.9292V7.54594L300.35 -9.61377V15.7674Z" stroke="#FEA354" stroke-miterlimit="10"/>
<path d="M300.35 143.396L311.375 160.558V135.175L300.35 118.015V143.396Z" stroke="#FEA354" stroke-miterlimit="10"/>
<path d="M300.35 271.068L311.375 288.231V262.847L300.35 245.688V271.068Z" stroke="#FEA354" stroke-miterlimit="10"/>
<path d="M300.35 58.3097L311.375 75.4717V50.0886L300.35 32.9287V58.3097Z" stroke="#FEA354" stroke-miterlimit="10"/>
<path d="M300.35 185.939L311.375 203.101V177.718L300.35 160.558V185.939Z" stroke="#FEA354" stroke-miterlimit="10"/>
<path d="M300.35 313.611L311.375 330.773V305.39L300.35 288.23V313.611Z" stroke="#FEA354" stroke-miterlimit="10"/>
<path d="M300.35 398.697L311.375 415.859V390.476L300.35 373.316V398.697Z" stroke="#FEA354" stroke-miterlimit="10"/>
<path d="M300.35 100.853L311.375 118.015V92.632L300.35 75.4722V100.853Z" stroke="#FEA354" stroke-miterlimit="10"/>
<path d="M300.35 228.508L311.375 245.688V220.278L300.35 203.101V228.508Z" stroke="#FEA354" stroke-miterlimit="10"/>
<path d="M300.35 356.154L311.375 373.316V347.933L300.35 330.773V356.154Z" stroke="#FEA354" stroke-miterlimit="10"/>
<path d="M300.35 441.242L311.375 458.402V433.019L300.35 415.859V441.242Z" stroke="#FEA354" stroke-miterlimit="10"/>
<path d="M289.325 7.54594V32.9292L300.35 15.7674V-9.61377L289.325 7.54594Z" stroke="#FEA354" stroke-miterlimit="10"/>
<path d="M289.325 135.175V160.558L300.35 143.396V118.015L289.325 135.175Z" stroke="#FEA354" stroke-miterlimit="10"/>
<path d="M289.325 262.847V288.231L300.35 271.068V245.688L289.325 262.847Z" stroke="#FEA354" stroke-miterlimit="10"/>
<path d="M289.325 50.0886V75.4717L300.35 58.3097V32.9287L289.325 50.0886Z" stroke="#FEA354" stroke-miterlimit="10"/>
<path d="M289.325 177.718V203.101L300.35 185.939V160.558L289.325 177.718Z" stroke="#FEA354" stroke-miterlimit="10"/>
<path d="M289.325 305.39V330.773L300.35 313.611V288.23L289.325 305.39Z" stroke="#FEA354" stroke-miterlimit="10"/>
<path d="M289.325 390.476V415.859L300.35 398.697V373.316L289.325 390.476Z" stroke="#FEA354" stroke-miterlimit="10"/>
<path d="M289.325 92.632V118.015L300.35 100.853V75.4722L289.325 92.632Z" stroke="#FEA354" stroke-miterlimit="10"/>
<path d="M289.325 220.278V245.688L300.35 228.508V203.101L289.325 220.278Z" stroke="#FEA354" stroke-miterlimit="10"/>
<path d="M289.325 347.933V373.316L300.35 356.154V330.773L289.325 347.933Z" stroke="#FEA354" stroke-miterlimit="10"/>
<path d="M289.325 433.019V458.402L300.35 441.242V415.859L289.325 433.019Z" stroke="#FEA354" stroke-miterlimit="10"/>
<path d="M14.735 15.7674L25.76 32.9292V7.54594L14.735 -9.61377V15.7674Z" stroke="#FEA354" stroke-miterlimit="10"/>
<path d="M14.735 143.396L25.76 160.558V135.175L14.735 118.015V143.396Z" stroke="#FEA354" stroke-miterlimit="10"/>
<path d="M14.735 271.068L25.76 288.231V262.847L14.735 245.688V271.068Z" stroke="#FEA354" stroke-miterlimit="10"/>
<path d="M14.735 58.3097L25.76 75.4717V50.0886L14.735 32.9287V58.3097Z" stroke="#FEA354" stroke-miterlimit="10"/>
<path d="M14.735 185.939L25.76 203.101V177.718L14.735 160.558V185.939Z" stroke="#FEA354" stroke-miterlimit="10"/>
<path d="M14.735 313.611L25.76 330.773V305.39L14.735 288.23V313.611Z" stroke="#FEA354" stroke-miterlimit="10"/>
<path d="M14.735 398.697L25.76 415.859V390.476L14.735 373.316V398.697Z" stroke="#FEA354" stroke-miterlimit="10"/>
<path d="M14.735 100.853L25.76 118.015V92.632L14.735 75.4722V100.853Z" stroke="#FEA354" stroke-miterlimit="10"/>
<path d="M14.735 228.508L25.76 245.688V220.278L14.735 203.101V228.508Z" stroke="#FEA354" stroke-miterlimit="10"/>
<path d="M14.735 356.154L25.76 373.316V347.933L14.735 330.773V356.154Z" stroke="#FEA354" stroke-miterlimit="10"/>
<path d="M14.735 441.242L25.76 458.402V433.019L14.735 415.859V441.242Z" stroke="#FEA354" stroke-miterlimit="10"/>
<path d="M3.755 7.54594V32.9292L14.735 15.7674V-9.61377L3.755 7.54594Z" stroke="#FEA354" stroke-miterlimit="10"/>
<path d="M3.755 135.175V160.558L14.735 143.396V118.015L3.755 135.175Z" stroke="#FEA354" stroke-miterlimit="10"/>
<path d="M3.755 262.847V288.231L14.735 271.068V245.688L3.755 262.847Z" stroke="#FEA354" stroke-miterlimit="10"/>
<path d="M3.755 50.0886V75.4717L14.735 58.3097V32.9287L3.755 50.0886Z" stroke="#FEA354" stroke-miterlimit="10"/>
<path d="M3.755 177.718V203.101L14.735 185.939V160.558L3.755 177.718Z" stroke="#FEA354" stroke-miterlimit="10"/>
<path d="M3.755 305.39V330.773L14.735 313.611V288.23L3.755 305.39Z" stroke="#FEA354" stroke-miterlimit="10"/>
<path d="M3.755 390.476V415.859L14.735 398.697V373.316L3.755 390.476Z" stroke="#FEA354" stroke-miterlimit="10"/>
<path d="M3.755 92.632V118.015L14.735 100.853V75.4722L3.755 92.632Z" stroke="#FEA354" stroke-miterlimit="10"/>
<path d="M3.755 220.278V245.688L14.735 228.508V203.101L3.755 220.278Z" stroke="#FEA354" stroke-miterlimit="10"/>
<path d="M3.755 347.933V373.316L14.735 356.154V330.773L3.755 347.933Z" stroke="#FEA354" stroke-miterlimit="10"/>
<path d="M3.755 433.019V458.402L14.735 441.242V415.859L3.755 433.019Z" stroke="#FEA354" stroke-miterlimit="10"/>
<path d="M190.55 15.7674L201.53 32.9292V7.54594L190.55 -9.61377V15.7674Z" stroke="#FEA354" stroke-miterlimit="10"/>
<path d="M190.55 143.396L201.53 160.558V135.175L190.55 118.015V143.396Z" stroke="#FEA354" stroke-miterlimit="10"/>
<path d="M190.55 271.068L201.53 288.231V262.847L190.55 245.688V271.068Z" stroke="#FEA354" stroke-miterlimit="10"/>
<path d="M190.55 58.3097L201.53 75.4717V50.0886L190.55 32.9287V58.3097Z" stroke="#FEA354" stroke-miterlimit="10"/>
<path d="M190.55 185.939L201.53 203.101V177.718L190.55 160.558V185.939Z" stroke="#FEA354" stroke-miterlimit="10"/>
<path d="M190.55 313.611L201.53 330.773V305.39L190.55 288.23V313.611Z" stroke="#FEA354" stroke-miterlimit="10"/>
<path d="M190.55 398.697L201.53 415.859V390.476L190.55 373.316V398.697Z" stroke="#FEA354" stroke-miterlimit="10"/>
<path d="M190.55 100.853L201.53 118.015V92.632L190.55 75.4722V100.853Z" stroke="#FEA354" stroke-miterlimit="10"/>
<path d="M190.55 228.508L201.53 245.688V220.278L190.55 203.101V228.508Z" stroke="#FEA354" stroke-miterlimit="10"/>
<path d="M190.55 356.154L201.53 373.316V347.933L190.55 330.773V356.154Z" stroke="#FEA354" stroke-miterlimit="10"/>
<path d="M190.55 441.242L201.53 458.402V433.019L190.55 415.859V441.242Z" stroke="#FEA354" stroke-miterlimit="10"/>
<path d="M179.525 7.54594V32.9292L190.55 15.7674V-9.61377L179.525 7.54594Z" stroke="#FEA354" stroke-miterlimit="10"/>
<path d="M179.525 135.175V160.558L190.55 143.396V118.015L179.525 135.175Z" stroke="#FEA354" stroke-miterlimit="10"/>
<path d="M179.525 262.847V288.231L190.55 271.068V245.688L179.525 262.847Z" stroke="#FEA354" stroke-miterlimit="10"/>
<path d="M179.525 50.0886V75.4717L190.55 58.3097V32.9287L179.525 50.0886Z" stroke="#FEA354" stroke-miterlimit="10"/>
<path d="M179.525 177.718V203.101L190.55 185.939V160.558L179.525 177.718Z" stroke="#FEA354" stroke-miterlimit="10"/>
<path d="M179.525 305.39V330.773L190.55 313.611V288.23L179.525 305.39Z" stroke="#FEA354" stroke-miterlimit="10"/>
<path d="M179.525 390.476V415.859L190.55 398.697V373.316L179.525 390.476Z" stroke="#FEA354" stroke-miterlimit="10"/>
<path d="M179.525 92.632V118.015L190.55 100.853V75.4722L179.525 92.632Z" stroke="#FEA354" stroke-miterlimit="10"/>
<path d="M179.525 220.278V245.688L190.55 228.508V203.101L179.525 220.278Z" stroke="#FEA354" stroke-miterlimit="10"/>
<path d="M179.525 347.933V373.316L190.55 356.154V330.773L179.525 347.933Z" stroke="#FEA354" stroke-miterlimit="10"/>
<path d="M179.525 433.019V458.402L190.55 441.242V415.859L179.525 433.019Z" stroke="#FEA354" stroke-miterlimit="10"/>
<path d="M102.62 15.7674L113.645 32.9292V7.54594L102.62 -9.61377V15.7674Z" stroke="#FEA354" stroke-miterlimit="10"/>
<path d="M102.62 143.396L113.645 160.558V135.175L102.62 118.015V143.396Z" stroke="#FEA354" stroke-miterlimit="10"/>
<path d="M102.62 271.068L113.645 288.231V262.847L102.62 245.688V271.068Z" stroke="#FEA354" stroke-miterlimit="10"/>
<path d="M102.62 58.3097L113.645 75.4717V50.0886L102.62 32.9287V58.3097Z" stroke="#FEA354" stroke-miterlimit="10"/>
<path d="M102.62 185.939L113.645 203.101V177.718L102.62 160.558V185.939Z" stroke="#FEA354" stroke-miterlimit="10"/>
<path d="M102.62 313.611L113.645 330.773V305.39L102.62 288.23V313.611Z" stroke="#FEA354" stroke-miterlimit="10"/>
<path d="M102.62 398.697L113.645 415.859V390.476L102.62 373.316V398.697Z" stroke="#FEA354" stroke-miterlimit="10"/>
<path d="M102.62 100.853L113.645 118.015V92.632L102.62 75.4722V100.853Z" stroke="#FEA354" stroke-miterlimit="10"/>
<path d="M102.62 228.508L113.645 245.688V220.278L102.62 203.101V228.508Z" stroke="#FEA354" stroke-miterlimit="10"/>
<path d="M102.62 356.154L113.645 373.316V347.933L102.62 330.773V356.154Z" stroke="#FEA354" stroke-miterlimit="10"/>
<path d="M102.62 441.242L113.645 458.402V433.019L102.62 415.859V441.242Z" stroke="#FEA354" stroke-miterlimit="10"/>
<path d="M91.6399 7.54594V32.9292L102.62 15.7674V-9.61377L91.6399 7.54594Z" stroke="#FEA354" stroke-miterlimit="10"/>
<path d="M91.6399 135.175V160.558L102.62 143.396V118.015L91.6399 135.175Z" stroke="#FEA354" stroke-miterlimit="10"/>
<path d="M91.6399 262.847V288.231L102.62 271.068V245.688L91.6399 262.847Z" stroke="#FEA354" stroke-miterlimit="10"/>
<path d="M91.6399 50.0886V75.4717L102.62 58.3097V32.9287L91.6399 50.0886Z" stroke="#FEA354" stroke-miterlimit="10"/>
<path d="M91.6399 177.718V203.101L102.62 185.939V160.558L91.6399 177.718Z" stroke="#FEA354" stroke-miterlimit="10"/>
<path d="M91.6399 305.39V330.773L102.62 313.611V288.23L91.6399 305.39Z" stroke="#FEA354" stroke-miterlimit="10"/>
<path d="M91.6399 390.476V415.859L102.62 398.697V373.316L91.6399 390.476Z" stroke="#FEA354" stroke-miterlimit="10"/>
<path d="M91.6399 92.632V118.015L102.62 100.853V75.4722L91.6399 92.632Z" stroke="#FEA354" stroke-miterlimit="10"/>
<path d="M91.6399 220.278V245.688L102.62 228.508V203.101L91.6399 220.278Z" stroke="#FEA354" stroke-miterlimit="10"/>
<path d="M91.6399 347.933V373.316L102.62 356.154V330.773L91.6399 347.933Z" stroke="#FEA354" stroke-miterlimit="10"/>
<path d="M91.6399 433.019V458.402L102.62 441.242V415.859L91.6399 433.019Z" stroke="#FEA354" stroke-miterlimit="10"/>
<path d="M278.39 15.7674L289.415 32.9292V7.54594L278.39 -9.61377V15.7674Z" stroke="#FEA354" stroke-miterlimit="10"/>
<path d="M278.39 143.396L289.415 160.558V135.175L278.39 118.015V143.396Z" stroke="#FEA354" stroke-miterlimit="10"/>
<path d="M278.39 271.068L289.415 288.231V262.847L278.39 245.688V271.068Z" stroke="#FEA354" stroke-miterlimit="10"/>
<path d="M278.39 58.3097L289.415 75.4717V50.0886L278.39 32.9287V58.3097Z" stroke="#FEA354" stroke-miterlimit="10"/>
<path d="M278.39 185.939L289.415 203.101V177.718L278.39 160.558V185.939Z" stroke="#FEA354" stroke-miterlimit="10"/>
<path d="M278.39 313.611L289.415 330.773V305.39L278.39 288.23V313.611Z" stroke="#FEA354" stroke-miterlimit="10"/>
<path d="M278.39 398.697L289.415 415.859V390.476L278.39 373.316V398.697Z" stroke="#FEA354" stroke-miterlimit="10"/>
<path d="M278.39 100.853L289.415 118.015V92.632L278.39 75.4722V100.853Z" stroke="#FEA354" stroke-miterlimit="10"/>
<path d="M278.39 228.508L289.415 245.688V220.278L278.39 203.101V228.508Z" stroke="#FEA354" stroke-miterlimit="10"/>
<path d="M278.39 356.154L289.415 373.316V347.933L278.39 330.773V356.154Z" stroke="#FEA354" stroke-miterlimit="10"/>
<path d="M278.39 441.242L289.415 458.402V433.019L278.39 415.859V441.242Z" stroke="#FEA354" stroke-miterlimit="10"/>
<path d="M267.41 7.54594V32.9292L278.39 15.7674V-9.61377L267.41 7.54594Z" stroke="#FEA354" stroke-miterlimit="10"/>
<path d="M267.41 135.175V160.558L278.39 143.396V118.015L267.41 135.175Z" stroke="#FEA354" stroke-miterlimit="10"/>
<path d="M267.41 262.847V288.231L278.39 271.068V245.688L267.41 262.847Z" stroke="#FEA354" stroke-miterlimit="10"/>
<path d="M267.41 50.0886V75.4717L278.39 58.3097V32.9287L267.41 50.0886Z" stroke="#FEA354" stroke-miterlimit="10"/>
<path d="M267.41 177.718V203.101L278.39 185.939V160.558L267.41 177.718Z" stroke="#FEA354" stroke-miterlimit="10"/>
<path d="M267.41 305.39V330.773L278.39 313.611V288.23L267.41 305.39Z" stroke="#FEA354" stroke-miterlimit="10"/>
<path d="M267.41 390.476V415.859L278.39 398.697V373.316L267.41 390.476Z" stroke="#FEA354" stroke-miterlimit="10"/>
<path d="M267.41 92.632V118.015L278.39 100.853V75.4722L267.41 92.632Z" stroke="#FEA354" stroke-miterlimit="10"/>
<path d="M267.41 220.278V245.688L278.39 228.508V203.101L267.41 220.278Z" stroke="#FEA354" stroke-miterlimit="10"/>
<path d="M267.41 347.933V373.316L278.39 356.154V330.773L267.41 347.933Z" stroke="#FEA354" stroke-miterlimit="10"/>
<path d="M267.41 433.019V458.402L278.39 441.242V415.859L267.41 433.019Z" stroke="#FEA354" stroke-miterlimit="10"/>
<path d="M58.655 15.7674L69.725 32.9292V7.54594L58.655 -9.61377V15.7674Z" stroke="#FEA354" stroke-miterlimit="10"/>
<path d="M58.655 143.396L69.725 160.558V135.175L58.655 118.015V143.396Z" stroke="#FEA354" stroke-miterlimit="10"/>
<path d="M58.655 271.068L69.725 288.231V262.847L58.655 245.688V271.068Z" stroke="#FEA354" stroke-miterlimit="10"/>
<path d="M58.655 58.3097L69.725 75.4717V50.0886L58.655 32.9287V58.3097Z" stroke="#FEA354" stroke-miterlimit="10"/>
<path d="M58.655 185.939L69.725 203.101V177.718L58.655 160.558V185.939Z" stroke="#FEA354" stroke-miterlimit="10"/>
<path d="M58.655 313.611L69.725 330.773V305.39L58.655 288.23V313.611Z" stroke="#FEA354" stroke-miterlimit="10"/>
<path d="M58.655 398.697L69.725 415.859V390.476L58.655 373.316V398.697Z" stroke="#FEA354" stroke-miterlimit="10"/>
<path d="M58.655 100.853L69.725 118.015V92.632L58.655 75.4722V100.853Z" stroke="#FEA354" stroke-miterlimit="10"/>
<path d="M58.655 228.508L69.725 245.688V220.278L58.655 203.101V228.508Z" stroke="#FEA354" stroke-miterlimit="10"/>
<path d="M58.655 356.154L69.725 373.316V347.933L58.655 330.773V356.154Z" stroke="#FEA354" stroke-miterlimit="10"/>
<path d="M58.655 441.242L69.725 458.402V433.019L58.655 415.859V441.242Z" stroke="#FEA354" stroke-miterlimit="10"/>
<path d="M47.6749 7.54594V32.9292L58.6549 15.7674V-9.61377L47.6749 7.54594Z" stroke="#FEA354" stroke-miterlimit="10"/>
<path d="M47.6749 135.175V160.558L58.6549 143.396V118.015L47.6749 135.175Z" stroke="#FEA354" stroke-miterlimit="10"/>
<path d="M47.6749 262.847V288.231L58.6549 271.068V245.688L47.6749 262.847Z" stroke="#FEA354" stroke-miterlimit="10"/>
<path d="M47.6749 50.0886V75.4717L58.6549 58.3097V32.9287L47.6749 50.0886Z" stroke="#FEA354" stroke-miterlimit="10"/>
<path d="M47.6749 177.718V203.101L58.6549 185.939V160.558L47.6749 177.718Z" stroke="#FEA354" stroke-miterlimit="10"/>
<path d="M47.6749 305.39V330.773L58.6549 313.611V288.23L47.6749 305.39Z" stroke="#FEA354" stroke-miterlimit="10"/>
<path d="M47.6749 390.476V415.859L58.6549 398.697V373.316L47.6749 390.476Z" stroke="#FEA354" stroke-miterlimit="10"/>
<path d="M47.6749 92.632V118.015L58.6549 100.853V75.4722L47.6749 92.632Z" stroke="#FEA354" stroke-miterlimit="10"/>
<path d="M47.6749 220.278V245.688L58.6549 228.508V203.101L47.6749 220.278Z" stroke="#FEA354" stroke-miterlimit="10"/>
<path d="M47.6749 347.933V373.316L58.6549 356.154V330.773L47.6749 347.933Z" stroke="#FEA354" stroke-miterlimit="10"/>
<path d="M47.6749 433.019V458.402L58.6549 441.242V415.859L47.6749 433.019Z" stroke="#FEA354" stroke-miterlimit="10"/>
<path d="M234.47 15.7674L245.45 32.9292V7.54594L234.47 -9.61377V15.7674Z" stroke="#FEA354" stroke-miterlimit="10"/>
<path d="M234.47 143.396L245.45 160.558V135.175L234.47 118.015V143.396Z" stroke="#FEA354" stroke-miterlimit="10"/>
<path d="M234.47 271.068L245.45 288.231V262.847L234.47 245.688V271.068Z" stroke="#FEA354" stroke-miterlimit="10"/>
<path d="M234.47 58.3097L245.45 75.4717V50.0886L234.47 32.9287V58.3097Z" stroke="#FEA354" stroke-miterlimit="10"/>
<path d="M234.47 185.939L245.45 203.101V177.718L234.47 160.558V185.939Z" stroke="#FEA354" stroke-miterlimit="10"/>
<path d="M234.47 313.611L245.45 330.773V305.39L234.47 288.23V313.611Z" stroke="#FEA354" stroke-miterlimit="10"/>
<path d="M234.47 398.697L245.45 415.859V390.476L234.47 373.316V398.697Z" stroke="#FEA354" stroke-miterlimit="10"/>
<path d="M234.47 100.853L245.45 118.015V92.632L234.47 75.4722V100.853Z" stroke="#FEA354" stroke-miterlimit="10"/>
<path d="M234.47 228.508L245.45 245.688V220.278L234.47 203.101V228.508Z" stroke="#FEA354" stroke-miterlimit="10"/>
<path d="M234.47 356.154L245.45 373.316V347.933L234.47 330.773V356.154Z" stroke="#FEA354" stroke-miterlimit="10"/>
<path d="M234.47 441.242L245.45 458.402V433.019L234.47 415.859V441.242Z" stroke="#FEA354" stroke-miterlimit="10"/>
<path d="M344.405 15.7674L355.385 32.9292V7.54594L344.405 -9.61377V15.7674Z" stroke="#FEA354" stroke-miterlimit="10"/>
<path d="M344.405 143.396L355.385 160.558V135.175L344.405 118.015V143.396Z" stroke="#FEA354" stroke-miterlimit="10"/>
<path d="M344.405 271.068L355.385 288.231V262.847L344.405 245.688V271.068Z" stroke="#FEA354" stroke-miterlimit="10"/>
<path d="M344.405 58.3097L355.385 75.4717V50.0886L344.405 32.9287V58.3097Z" stroke="#FEA354" stroke-miterlimit="10"/>
<path d="M344.405 185.939L355.385 203.101V177.718L344.405 160.558V185.939Z" stroke="#FEA354" stroke-miterlimit="10"/>
<path d="M344.405 313.611L355.385 330.773V305.39L344.405 288.23V313.611Z" stroke="#FEA354" stroke-miterlimit="10"/>
<path d="M344.405 398.697L355.385 415.859V390.476L344.405 373.316V398.697Z" stroke="#FEA354" stroke-miterlimit="10"/>
<path d="M344.405 100.853L355.385 118.015V92.632L344.405 75.4722V100.853Z" stroke="#FEA354" stroke-miterlimit="10"/>
<path d="M344.405 228.508L355.385 245.688V220.278L344.405 203.101V228.508Z" stroke="#FEA354" stroke-miterlimit="10"/>
<path d="M344.405 356.154L355.385 373.316V347.933L344.405 330.773V356.154Z" stroke="#FEA354" stroke-miterlimit="10"/>
<path d="M344.405 441.242L355.385 458.402V433.019L344.405 415.859V441.242Z" stroke="#FEA354" stroke-miterlimit="10"/>
<path d="M223.445 7.54594V32.9292L234.47 15.7674V-9.61377L223.445 7.54594Z" stroke="#FEA354" stroke-miterlimit="10"/>
<path d="M223.445 135.175V160.558L234.47 143.396V118.015L223.445 135.175Z" stroke="#FEA354" stroke-miterlimit="10"/>
<path d="M223.445 262.847V288.231L234.47 271.068V245.688L223.445 262.847Z" stroke="#FEA354" stroke-miterlimit="10"/>
<path d="M223.445 50.0886V75.4717L234.47 58.3097V32.9287L223.445 50.0886Z" stroke="#FEA354" stroke-miterlimit="10"/>
<path d="M223.445 177.718V203.101L234.47 185.939V160.558L223.445 177.718Z" stroke="#FEA354" stroke-miterlimit="10"/>
<path d="M223.445 305.39V330.773L234.47 313.611V288.23L223.445 305.39Z" stroke="#FEA354" stroke-miterlimit="10"/>
<path d="M223.445 390.476V415.859L234.47 398.697V373.316L223.445 390.476Z" stroke="#FEA354" stroke-miterlimit="10"/>
<path d="M223.445 92.632V118.015L234.47 100.853V75.4722L223.445 92.632Z" stroke="#FEA354" stroke-miterlimit="10"/>
<path d="M223.445 220.278V245.688L234.47 228.508V203.101L223.445 220.278Z" stroke="#FEA354" stroke-miterlimit="10"/>
<path d="M223.445 347.933V373.316L234.47 356.154V330.773L223.445 347.933Z" stroke="#FEA354" stroke-miterlimit="10"/>
<path d="M223.445 433.019V458.402L234.47 441.242V415.859L223.445 433.019Z" stroke="#FEA354" stroke-miterlimit="10"/>
<path d="M333.335 7.54594V32.9292L344.405 15.7674V-9.61377L333.335 7.54594Z" stroke="#FEA354" stroke-miterlimit="10"/>
<path d="M333.335 135.175V160.558L344.405 143.396V118.015L333.335 135.175Z" stroke="#FEA354" stroke-miterlimit="10"/>
<path d="M333.335 262.847V288.231L344.405 271.068V245.688L333.335 262.847Z" stroke="#FEA354" stroke-miterlimit="10"/>
<path d="M333.335 50.0886V75.4717L344.405 58.3097V32.9287L333.335 50.0886Z" stroke="#FEA354" stroke-miterlimit="10"/>
<path d="M333.335 177.718V203.101L344.405 185.939V160.558L333.335 177.718Z" stroke="#FEA354" stroke-miterlimit="10"/>
<path d="M333.335 305.39V330.773L344.405 313.611V288.23L333.335 305.39Z" stroke="#FEA354" stroke-miterlimit="10"/>
<path d="M333.335 390.476V415.859L344.405 398.697V373.316L333.335 390.476Z" stroke="#FEA354" stroke-miterlimit="10"/>
<path d="M333.335 92.632V118.015L344.405 100.853V75.4722L333.335 92.632Z" stroke="#FEA354" stroke-miterlimit="10"/>
<path d="M333.335 220.278V245.688L344.405 228.508V203.101L333.335 220.278Z" stroke="#FEA354" stroke-miterlimit="10"/>
<path d="M333.335 347.933V373.316L344.405 356.154V330.773L333.335 347.933Z" stroke="#FEA354" stroke-miterlimit="10"/>
<path d="M333.335 433.019V458.402L344.405 441.242V415.859L333.335 433.019Z" stroke="#FEA354" stroke-miterlimit="10"/>
<path d="M146.585 15.7674L157.565 32.9292V7.54594L146.585 -9.61377V15.7674Z" stroke="#FEA354" stroke-miterlimit="10"/>
<path d="M146.585 143.396L157.565 160.558V135.175L146.585 118.015V143.396Z" stroke="#FEA354" stroke-miterlimit="10"/>
<path d="M146.585 271.068L157.565 288.231V262.847L146.585 245.688V271.068Z" stroke="#FEA354" stroke-miterlimit="10"/>
<path d="M146.585 58.3097L157.565 75.4717V50.0886L146.585 32.9287V58.3097Z" stroke="#FEA354" stroke-miterlimit="10"/>
<path d="M146.585 185.939L157.565 203.101V177.718L146.585 160.558V185.939Z" stroke="#FEA354" stroke-miterlimit="10"/>
<path d="M146.585 313.611L157.565 330.773V305.39L146.585 288.23V313.611Z" stroke="#FEA354" stroke-miterlimit="10"/>
<path d="M146.585 398.697L157.565 415.859V390.476L146.585 373.316V398.697Z" stroke="#FEA354" stroke-miterlimit="10"/>
<path d="M146.585 100.853L157.565 118.015V92.632L146.585 75.4722V100.853Z" stroke="#FEA354" stroke-miterlimit="10"/>
<path d="M146.585 228.508L157.565 245.688V220.278L146.585 203.101V228.508Z" stroke="#FEA354" stroke-miterlimit="10"/>
<path d="M146.585 356.154L157.565 373.316V347.933L146.585 330.773V356.154Z" stroke="#FEA354" stroke-miterlimit="10"/>
<path d="M146.585 441.242L157.565 458.402V433.019L146.585 415.859V441.242Z" stroke="#FEA354" stroke-miterlimit="10"/>
<path d="M135.56 7.54594V32.9292L146.585 15.7674V-9.61377L135.56 7.54594Z" stroke="#FEA354" stroke-miterlimit="10"/>
<path d="M135.56 135.175V160.558L146.585 143.396V118.015L135.56 135.175Z" stroke="#FEA354" stroke-miterlimit="10"/>
<path d="M135.56 262.847V288.231L146.585 271.068V245.688L135.56 262.847Z" stroke="#FEA354" stroke-miterlimit="10"/>
<path d="M135.56 50.0886V75.4717L146.585 58.3097V32.9287L135.56 50.0886Z" stroke="#FEA354" stroke-miterlimit="10"/>
<path d="M135.56 177.718V203.101L146.585 185.939V160.558L135.56 177.718Z" stroke="#FEA354" stroke-miterlimit="10"/>
<path d="M135.56 305.39V330.773L146.585 313.611V288.23L135.56 305.39Z" stroke="#FEA354" stroke-miterlimit="10"/>
<path d="M135.56 390.476V415.859L146.585 398.697V373.316L135.56 390.476Z" stroke="#FEA354" stroke-miterlimit="10"/>
<path d="M135.56 92.632V118.015L146.585 100.853V75.4722L135.56 92.632Z" stroke="#FEA354" stroke-miterlimit="10"/>
<path d="M135.56 220.278V245.688L146.585 228.508V203.101L135.56 220.278Z" stroke="#FEA354" stroke-miterlimit="10"/>
<path d="M135.56 347.933V373.316L146.585 356.154V330.773L135.56 347.933Z" stroke="#FEA354" stroke-miterlimit="10"/>
<path d="M135.56 433.019V458.402L146.585 441.242V415.859L135.56 433.019Z" stroke="#FEA354" stroke-miterlimit="10"/>
<path d="M322.355 15.7674L333.335 32.9292V7.54594L322.355 -9.61377V15.7674Z" stroke="#FEA354" stroke-miterlimit="10"/>
<path d="M322.355 143.396L333.335 160.558V135.175L322.355 118.015V143.396Z" stroke="#FEA354" stroke-miterlimit="10"/>
<path d="M322.355 271.068L333.335 288.231V262.847L322.355 245.688V271.068Z" stroke="#FEA354" stroke-miterlimit="10"/>
<path d="M322.355 58.3097L333.335 75.4717V50.0886L322.355 32.9287V58.3097Z" stroke="#FEA354" stroke-miterlimit="10"/>
<path d="M322.355 185.939L333.335 203.101V177.718L322.355 160.558V185.939Z" stroke="#FEA354" stroke-miterlimit="10"/>
<path d="M322.355 313.611L333.335 330.773V305.39L322.355 288.23V313.611Z" stroke="#FEA354" stroke-miterlimit="10"/>
<path d="M322.355 398.697L333.335 415.859V390.476L322.355 373.316V398.697Z" stroke="#FEA354" stroke-miterlimit="10"/>
<path d="M322.355 100.853L333.335 118.015V92.632L322.355 75.4722V100.853Z" stroke="#FEA354" stroke-miterlimit="10"/>
<path d="M322.355 228.508L333.335 245.688V220.278L322.355 203.101V228.508Z" stroke="#FEA354" stroke-miterlimit="10"/>
<path d="M322.355 356.154L333.335 373.316V347.933L322.355 330.773V356.154Z" stroke="#FEA354" stroke-miterlimit="10"/>
<path d="M322.355 441.242L333.335 458.402V433.019L322.355 415.859V441.242Z" stroke="#FEA354" stroke-miterlimit="10"/>
<path d="M311.375 7.54594V32.9292L322.355 15.7674V-9.61377L311.375 7.54594Z" stroke="#FEA354" stroke-miterlimit="10"/>
<path d="M311.375 135.175V160.558L322.355 143.396V118.015L311.375 135.175Z" stroke="#FEA354" stroke-miterlimit="10"/>
<path d="M311.375 262.847V288.231L322.355 271.068V245.688L311.375 262.847Z" stroke="#FEA354" stroke-miterlimit="10"/>
<path d="M311.375 50.0886V75.4717L322.355 58.3097V32.9287L311.375 50.0886Z" stroke="#FEA354" stroke-miterlimit="10"/>
<path d="M311.375 177.718V203.101L322.355 185.939V160.558L311.375 177.718Z" stroke="#FEA354" stroke-miterlimit="10"/>
<path d="M311.375 305.39V330.773L322.355 313.611V288.23L311.375 305.39Z" stroke="#FEA354" stroke-miterlimit="10"/>
<path d="M311.375 390.476V415.859L322.355 398.697V373.316L311.375 390.476Z" stroke="#FEA354" stroke-miterlimit="10"/>
<path d="M311.375 92.632V118.015L322.355 100.853V75.4722L311.375 92.632Z" stroke="#FEA354" stroke-miterlimit="10"/>
<path d="M311.375 220.278V245.688L322.355 228.508V203.101L311.375 220.278Z" stroke="#FEA354" stroke-miterlimit="10"/>
<path d="M311.375 347.933V373.316L322.355 356.154V330.773L311.375 347.933Z" stroke="#FEA354" stroke-miterlimit="10"/>
<path d="M311.375 433.019V458.402L322.355 441.242V415.859L311.375 433.019Z" stroke="#FEA354" stroke-miterlimit="10"/>
</g>
</g>
</g>
<defs>
<clipPath id="clip0_2226_3986">
<rect width="360" height="435" fill="white"/>
</clipPath>
<clipPath id="clip1_2226_3986">
<rect width="360" height="435" fill="white"/>
</clipPath>
</defs>
</svg>
