<svg width="360" height="435" viewBox="0 0 360 435" fill="none" xmlns="http://www.w3.org/2000/svg">
<g clip-path="url(#clip0_2225_4245)">
<rect width="360" height="435" fill="#F9A1B4"/>
<g opacity="0.26" clip-path="url(#clip1_2225_4245)">
<mask id="mask0_2225_4245" style="mask-type:luminance" maskUnits="userSpaceOnUse" x="-81" y="-44" width="523" height="523">
<path d="M-80 -43H441V478H-80V-43Z" fill="white" stroke="white" stroke-width="2"/>
</mask>
<g mask="url(#mask0_2225_4245)">
<path d="M-80 -43H441V478H-80V-43Z" fill="#F9A1B4" stroke="#FBBFCD" stroke-width="2"/>
<path d="M218.548 233.425C218.548 245.412 208.843 255.13 196.87 255.13C184.897 255.13 175.192 245.412 175.192 233.425C175.192 221.438 184.897 211.721 196.87 211.721C208.843 211.721 218.548 221.438 218.548 233.425Z" stroke="#FBBFCD" stroke-width="2"/>
<path d="M218.548 103.251C218.548 115.238 208.843 124.955 196.87 124.955C184.897 124.955 175.192 115.238 175.192 103.251C175.192 91.2637 184.897 81.5464 196.87 81.5464C208.843 81.5464 218.548 91.2637 218.548 103.251Z" stroke="#FBBFCD" stroke-width="2"/>
<path d="M196.87 385.2C208.843 385.2 218.548 375.494 218.548 363.522C218.548 351.549 208.843 341.843 196.87 341.843C184.897 341.843 175.192 351.549 175.192 363.522C175.192 375.494 184.897 385.2 196.87 385.2Z" stroke="#FBBFCD" stroke-width="2"/>
<path d="M196.87 59.8938C208.843 59.8938 218.548 50.1881 218.548 38.2155C218.548 26.2428 208.843 16.5371 196.87 16.5371C184.897 16.5371 175.192 26.2428 175.192 38.2155C175.192 50.1881 184.897 59.8938 196.87 59.8938Z" stroke="#FBBFCD" stroke-width="2"/>
<path d="M196.87 320.191C208.843 320.191 218.548 310.485 218.548 298.513C218.548 286.54 208.843 276.834 196.87 276.834C184.897 276.834 175.192 286.54 175.192 298.513C175.192 310.485 184.897 320.191 196.87 320.191Z" stroke="#FBBFCD" stroke-width="2"/>
<path d="M196.87 190.016C208.843 190.016 218.548 180.311 218.548 168.338C218.548 156.365 208.843 146.66 196.87 146.66C184.897 146.66 175.192 156.365 175.192 168.338C175.192 180.311 184.897 190.016 196.87 190.016Z" stroke="#FBBFCD" stroke-width="2"/>
<path d="M218.548 428.609C218.548 440.596 208.843 450.313 196.87 450.313C184.897 450.313 175.192 440.596 175.192 428.609C175.192 416.622 184.897 406.904 196.87 406.904C208.843 406.904 218.548 416.622 218.548 428.609Z" stroke="#FBBFCD" stroke-width="2"/>
<path d="M218.548 5.71134C218.548 17.6985 208.843 27.4158 196.87 27.4158C184.897 27.4158 175.192 17.6985 175.192 5.71134C175.192 -6.27588 184.897 -15.9932 196.87 -15.9932C208.843 -15.9932 218.548 -6.27588 218.548 5.71134Z" stroke="#FBBFCD" stroke-width="2"/>
<path d="M196.87 287.66C208.843 287.66 218.548 277.955 218.548 265.982C218.548 254.009 208.843 244.304 196.87 244.304C184.897 244.304 175.192 254.009 175.192 265.982C175.192 277.955 184.897 287.66 196.87 287.66Z" stroke="#FBBFCD" stroke-width="2"/>
<path d="M196.87 157.486C208.843 157.486 218.548 147.78 218.548 135.807C218.548 123.835 208.843 114.129 196.87 114.129C184.897 114.129 175.192 123.835 175.192 135.807C175.192 147.78 184.897 157.486 196.87 157.486Z" stroke="#FBBFCD" stroke-width="2"/>
<path d="M196.87 417.783C208.843 417.783 218.548 408.077 218.548 396.105C218.548 384.132 208.843 374.426 196.87 374.426C184.897 374.426 175.192 384.132 175.192 396.105C175.192 408.077 184.897 417.783 196.87 417.783Z" stroke="#FBBFCD" stroke-width="2"/>
<path d="M196.87 92.4768C208.843 92.4768 218.548 82.7711 218.548 70.7985C218.548 58.8258 208.843 49.1201 196.87 49.1201C184.897 49.1201 175.192 58.8258 175.192 70.7985C175.192 82.7711 184.897 92.4768 196.87 92.4768Z" stroke="#FBBFCD" stroke-width="2"/>
<path d="M218.548 331.07C218.548 343.057 208.843 352.774 196.87 352.774C184.897 352.774 175.192 343.057 175.192 331.07C175.192 319.083 184.897 309.365 196.87 309.365C208.843 309.365 218.548 319.083 218.548 331.07Z" stroke="#FBBFCD" stroke-width="2"/>
<path d="M196.87 222.547C208.843 222.547 218.548 212.841 218.548 200.869C218.548 188.896 208.843 179.19 196.87 179.19C184.897 179.19 175.192 188.896 175.192 200.869C175.192 212.841 184.897 222.547 196.87 222.547Z" stroke="#FBBFCD" stroke-width="2"/>
<path d="M87.5891 233.504C87.5891 245.477 77.8947 255.182 65.9369 255.182C53.979 255.182 44.2847 245.477 44.2847 233.504C44.2847 221.532 53.979 211.826 65.9369 211.826C77.8947 211.826 87.5891 221.532 87.5891 233.504Z" stroke="#FBBFCD" stroke-width="2"/>
<path d="M87.5891 103.303C87.5891 115.29 77.8947 125.008 65.9369 125.008C53.979 125.008 44.2847 115.29 44.2847 103.303C44.2847 91.316 53.979 81.5986 65.9369 81.5986C77.8947 81.5986 87.5891 91.316 87.5891 103.303Z" stroke="#FBBFCD" stroke-width="2"/>
<path d="M87.5891 363.574C87.5891 375.546 77.8947 385.252 65.9369 385.252C53.979 385.252 44.2847 375.546 44.2847 363.574C44.2847 351.601 53.979 341.896 65.9369 341.896C77.8947 341.896 87.5891 351.601 87.5891 363.574Z" stroke="#FBBFCD" stroke-width="2"/>
<path d="M87.5891 38.2682C87.5891 50.2407 77.8947 59.9465 65.9369 59.9465C53.979 59.9465 44.2847 50.2407 44.2847 38.2682C44.2847 26.2957 53.979 16.5898 65.9369 16.5898C77.8947 16.5898 87.5891 26.2957 87.5891 38.2682Z" stroke="#FBBFCD" stroke-width="2"/>
<path d="M87.5891 298.565C87.5891 310.538 77.8947 320.243 65.9369 320.243C53.979 320.243 44.2847 310.538 44.2847 298.565C44.2847 286.593 53.979 276.887 65.9369 276.887C77.8947 276.887 87.5891 286.593 87.5891 298.565Z" stroke="#FBBFCD" stroke-width="2"/>
<path d="M87.5891 168.39C87.5891 180.363 77.8947 190.069 65.9369 190.069C53.979 190.069 44.2847 180.363 44.2847 168.39C44.2847 156.418 53.979 146.712 65.9369 146.712C77.8947 146.712 87.5891 156.418 87.5891 168.39Z" stroke="#FBBFCD" stroke-width="2"/>
<path d="M87.5891 428.662C87.5891 440.649 77.8947 450.366 65.9369 450.366C53.979 450.366 44.2847 440.649 44.2847 428.662C44.2847 416.674 53.979 406.957 65.9369 406.957C77.8947 406.957 87.5891 416.674 87.5891 428.662Z" stroke="#FBBFCD" stroke-width="2"/>
<path d="M87.5891 5.76358C87.5891 17.7507 77.8947 27.4681 65.9369 27.4681C53.979 27.4681 44.2847 17.7507 44.2847 5.76358C44.2847 -6.22379 53.979 -15.9409 65.9369 -15.9409C77.8947 -15.9409 87.5891 -6.22379 87.5891 5.76358Z" stroke="#FBBFCD" stroke-width="2"/>
<path d="M87.5891 266.034C87.5891 278.007 77.8947 287.713 65.9369 287.713C53.979 287.713 44.2847 278.007 44.2847 266.034C44.2847 254.062 53.979 244.356 65.9369 244.356C77.8947 244.356 87.5891 254.062 87.5891 266.034Z" stroke="#FBBFCD" stroke-width="2"/>
<path d="M87.5891 135.86C87.5891 147.833 77.8947 157.538 65.9369 157.538C53.979 157.538 44.2847 147.833 44.2847 135.86C44.2847 123.887 53.979 114.182 65.9369 114.182C77.8947 114.182 87.5891 123.887 87.5891 135.86Z" stroke="#FBBFCD" stroke-width="2"/>
<path d="M87.5891 396.157C87.5891 408.129 77.8947 417.835 65.9369 417.835C53.979 417.835 44.2847 408.129 44.2847 396.157C44.2847 384.184 53.979 374.479 65.9369 374.479C77.8947 374.479 87.5891 384.184 87.5891 396.157Z" stroke="#FBBFCD" stroke-width="2"/>
<path d="M87.5891 70.8507C87.5891 82.8232 77.8947 92.5291 65.9369 92.5291C53.979 92.5291 44.2847 82.8232 44.2847 70.8507C44.2847 58.8782 53.979 49.1724 65.9369 49.1724C77.8947 49.1724 87.5891 58.8782 87.5891 70.8507Z" stroke="#FBBFCD" stroke-width="2"/>
<path d="M87.5891 331.122C87.5891 343.109 77.8947 352.826 65.9369 352.826C53.979 352.826 44.2847 343.109 44.2847 331.122C44.2847 319.135 53.979 309.417 65.9369 309.417C77.8947 309.417 87.5891 319.135 87.5891 331.122Z" stroke="#FBBFCD" stroke-width="2"/>
<path d="M87.5891 200.947C87.5891 212.934 77.8947 222.652 65.9369 222.652C53.979 222.652 44.2847 212.934 44.2847 200.947C44.2847 188.96 53.979 179.243 65.9369 179.243C77.8947 179.243 87.5891 188.96 87.5891 200.947Z" stroke="#FBBFCD" stroke-width="2"/>
<path d="M327.829 255.182C339.802 255.182 349.508 245.477 349.508 233.504C349.508 221.531 339.802 211.826 327.829 211.826C315.857 211.826 306.151 221.531 306.151 233.504C306.151 245.477 315.857 255.182 327.829 255.182Z" stroke="#FBBFCD" stroke-width="2"/>
<path d="M349.508 103.303C349.508 115.29 339.802 125.008 327.829 125.008C315.857 125.008 306.151 115.29 306.151 103.303C306.151 91.316 315.857 81.5986 327.829 81.5986C339.802 81.5986 349.508 91.316 349.508 103.303Z" stroke="#FBBFCD" stroke-width="2"/>
<path d="M327.829 385.252C339.802 385.252 349.508 375.546 349.508 363.574C349.508 351.601 339.802 341.896 327.829 341.896C315.857 341.896 306.151 351.601 306.151 363.574C306.151 375.546 315.857 385.252 327.829 385.252Z" stroke="#FBBFCD" stroke-width="2"/>
<path d="M327.829 59.9465C339.802 59.9465 349.508 50.2408 349.508 38.2682C349.508 26.2956 339.802 16.5898 327.829 16.5898C315.857 16.5898 306.151 26.2956 306.151 38.2682C306.151 50.2408 315.857 59.9465 327.829 59.9465Z" stroke="#FBBFCD" stroke-width="2"/>
<path d="M327.829 320.243C339.802 320.243 349.508 310.538 349.508 298.565C349.508 286.592 339.802 276.887 327.829 276.887C315.857 276.887 306.151 286.592 306.151 298.565C306.151 310.538 315.857 320.243 327.829 320.243Z" stroke="#FBBFCD" stroke-width="2"/>
<path d="M327.829 190.069C339.802 190.069 349.508 180.363 349.508 168.39C349.508 156.418 339.802 146.712 327.829 146.712C315.857 146.712 306.151 156.418 306.151 168.39C306.151 180.363 315.857 190.069 327.829 190.069Z" stroke="#FBBFCD" stroke-width="2"/>
<path d="M349.508 428.662C349.508 440.649 339.802 450.366 327.829 450.366C315.857 450.366 306.151 440.649 306.151 428.662C306.151 416.674 315.857 406.957 327.829 406.957C339.802 406.957 349.508 416.674 349.508 428.662Z" stroke="#FBBFCD" stroke-width="2"/>
<path d="M349.508 5.76358C349.508 17.7507 339.802 27.4681 327.829 27.4681C315.857 27.4681 306.151 17.7507 306.151 5.76358C306.151 -6.22363 315.857 -15.9409 327.829 -15.9409C339.802 -15.9409 349.508 -6.22363 349.508 5.76358Z" stroke="#FBBFCD" stroke-width="2"/>
<path d="M327.829 287.713C339.802 287.713 349.508 278.007 349.508 266.034C349.508 254.062 339.802 244.356 327.829 244.356C315.857 244.356 306.151 254.062 306.151 266.034C306.151 278.007 315.857 287.713 327.829 287.713Z" stroke="#FBBFCD" stroke-width="2"/>
<path d="M327.829 157.538C339.802 157.538 349.508 147.833 349.508 135.86C349.508 123.887 339.802 114.182 327.829 114.182C315.857 114.182 306.151 123.887 306.151 135.86C306.151 147.833 315.857 157.538 327.829 157.538Z" stroke="#FBBFCD" stroke-width="2"/>
<path d="M327.829 417.835C339.802 417.835 349.508 408.129 349.508 396.157C349.508 384.184 339.802 374.479 327.829 374.479C315.857 374.479 306.151 384.184 306.151 396.157C306.151 408.129 315.857 417.835 327.829 417.835Z" stroke="#FBBFCD" stroke-width="2"/>
<path d="M327.829 92.5291C339.802 92.5291 349.508 82.8233 349.508 70.8507C349.508 58.8781 339.802 49.1724 327.829 49.1724C315.857 49.1724 306.151 58.8781 306.151 70.8507C306.151 82.8233 315.857 92.5291 327.829 92.5291Z" stroke="#FBBFCD" stroke-width="2"/>
<path d="M349.508 331.122C349.508 343.109 339.802 352.826 327.829 352.826C315.857 352.826 306.151 343.109 306.151 331.122C306.151 319.135 315.857 309.417 327.829 309.417C339.802 309.417 349.508 319.135 349.508 331.122Z" stroke="#FBBFCD" stroke-width="2"/>
<path d="M349.508 200.947C349.508 212.934 339.802 222.652 327.829 222.652C315.857 222.652 306.151 212.934 306.151 200.947C306.151 188.96 315.857 179.243 327.829 179.243C339.802 179.243 349.508 188.96 349.508 200.947Z" stroke="#FBBFCD" stroke-width="2"/>
<path d="M22.0572 233.425C22.0572 245.412 12.3629 255.13 0.405007 255.13C-11.5529 255.13 -21.2472 245.412 -21.2472 233.425C-21.2472 221.438 -11.5529 211.721 0.405007 211.721C12.3629 211.721 22.0572 221.438 22.0572 233.425Z" stroke="#FBBFCD" stroke-width="2"/>
<path d="M22.0572 103.251C22.0572 115.238 12.3629 124.955 0.405007 124.955C-11.5529 124.955 -21.2472 115.238 -21.2472 103.251C-21.2472 91.2637 -11.5529 81.5464 0.405007 81.5464C12.3629 81.5464 22.0572 91.2637 22.0572 103.251Z" stroke="#FBBFCD" stroke-width="2"/>
<path d="M22.0572 363.522C22.0572 375.494 12.3629 385.2 0.405007 385.2C-11.5529 385.2 -21.2472 375.494 -21.2472 363.522C-21.2472 351.549 -11.5529 341.843 0.405007 341.843C12.3629 341.843 22.0572 351.549 22.0572 363.522Z" stroke="#FBBFCD" stroke-width="2"/>
<path d="M22.0572 38.2155C22.0572 50.188 12.3629 59.8938 0.405007 59.8938C-11.5529 59.8938 -21.2472 50.188 -21.2472 38.2155C-21.2472 26.2429 -11.5529 16.5371 0.405007 16.5371C12.3629 16.5371 22.0572 26.2429 22.0572 38.2155Z" stroke="#FBBFCD" stroke-width="2"/>
<path d="M22.0572 298.513C22.0572 310.485 12.3629 320.191 0.405007 320.191C-11.5529 320.191 -21.2472 310.485 -21.2472 298.513C-21.2472 286.54 -11.5529 276.834 0.405007 276.834C12.3629 276.834 22.0572 286.54 22.0572 298.513Z" stroke="#FBBFCD" stroke-width="2"/>
<path d="M22.0572 168.338C22.0572 180.311 12.3629 190.016 0.405007 190.016C-11.5529 190.016 -21.2472 180.311 -21.2472 168.338C-21.2472 156.366 -11.5529 146.66 0.405007 146.66C12.3629 146.66 22.0572 156.366 22.0572 168.338Z" stroke="#FBBFCD" stroke-width="2"/>
<path d="M22.0572 428.609C22.0572 440.596 12.3629 450.313 0.405007 450.313C-11.5529 450.313 -21.2472 440.596 -21.2472 428.609C-21.2472 416.622 -11.5529 406.904 0.405007 406.904C12.3629 406.904 22.0572 416.622 22.0572 428.609Z" stroke="#FBBFCD" stroke-width="2"/>
<path d="M22.0572 5.71134C22.0572 17.6985 12.3629 27.4158 0.405007 27.4158C-11.5529 27.4158 -21.2472 17.6985 -21.2472 5.71134C-21.2472 -6.27603 -11.5529 -15.9932 0.405007 -15.9932C12.3629 -15.9932 22.0572 -6.27603 22.0572 5.71134Z" stroke="#FBBFCD" stroke-width="2"/>
<path d="M22.0572 265.982C22.0572 277.955 12.3629 287.66 0.405007 287.66C-11.5529 287.66 -21.2472 277.955 -21.2472 265.982C-21.2472 254.01 -11.5529 244.304 0.405007 244.304C12.3629 244.304 22.0572 254.01 22.0572 265.982Z" stroke="#FBBFCD" stroke-width="2"/>
<path d="M22.0572 135.807C22.0572 147.78 12.3629 157.486 0.405007 157.486C-11.5529 157.486 -21.2472 147.78 -21.2472 135.807C-21.2472 123.835 -11.5529 114.129 0.405007 114.129C12.3629 114.129 22.0572 123.835 22.0572 135.807Z" stroke="#FBBFCD" stroke-width="2"/>
<path d="M22.0572 396.105C22.0572 408.077 12.3629 417.783 0.405007 417.783C-11.5529 417.783 -21.2472 408.077 -21.2472 396.105C-21.2472 384.132 -11.5529 374.426 0.405007 374.426C12.3629 374.426 22.0572 384.132 22.0572 396.105Z" stroke="#FBBFCD" stroke-width="2"/>
<path d="M22.0572 70.7985C22.0572 82.771 12.3629 92.4768 0.405007 92.4768C-11.5529 92.4768 -21.2472 82.771 -21.2472 70.7985C-21.2472 58.826 -11.5529 49.1201 0.405007 49.1201C12.3629 49.1201 22.0572 58.826 22.0572 70.7985Z" stroke="#FBBFCD" stroke-width="2"/>
<path d="M22.0572 331.07C22.0572 343.057 12.3629 352.774 0.405007 352.774C-11.5529 352.774 -21.2472 343.057 -21.2472 331.07C-21.2472 319.083 -11.5529 309.365 0.405007 309.365C12.3629 309.365 22.0572 319.083 22.0572 331.07Z" stroke="#FBBFCD" stroke-width="2"/>
<path d="M22.0572 200.869C22.0572 212.841 12.3629 222.547 0.405007 222.547C-11.5529 222.547 -21.2472 212.841 -21.2472 200.869C-21.2472 188.896 -11.5529 179.19 0.405007 179.19C12.3629 179.19 22.0572 188.896 22.0572 200.869Z" stroke="#FBBFCD" stroke-width="2"/>
<path d="M283.923 233.425C283.923 245.413 274.24 255.13 262.297 255.13C250.354 255.13 240.671 245.413 240.671 233.425C240.671 221.438 250.354 211.721 262.297 211.721C274.24 211.721 283.923 221.438 283.923 233.425Z" stroke="#FBBFCD" stroke-width="2"/>
<path d="M283.923 103.251C283.923 115.239 274.24 124.955 262.297 124.955C250.354 124.955 240.671 115.239 240.671 103.251C240.671 91.2632 250.354 81.5464 262.297 81.5464C274.24 81.5464 283.923 91.2632 283.923 103.251Z" stroke="#FBBFCD" stroke-width="2"/>
<path d="M283.923 363.522C283.923 375.495 274.24 385.2 262.297 385.2C250.354 385.2 240.671 375.495 240.671 363.522C240.671 351.549 250.354 341.843 262.297 341.843C274.24 341.843 283.923 351.549 283.923 363.522Z" stroke="#FBBFCD" stroke-width="2"/>
<path d="M283.923 38.2155C283.923 50.1885 274.24 59.8938 262.297 59.8938C250.354 59.8938 240.671 50.1885 240.671 38.2155C240.671 26.2424 250.354 16.5371 262.297 16.5371C274.24 16.5371 283.923 26.2424 283.923 38.2155Z" stroke="#FBBFCD" stroke-width="2"/>
<path d="M283.923 298.513C283.923 310.486 274.24 320.191 262.297 320.191C250.354 320.191 240.671 310.486 240.671 298.513C240.671 286.54 250.354 276.834 262.297 276.834C274.24 276.834 283.923 286.54 283.923 298.513Z" stroke="#FBBFCD" stroke-width="2"/>
<path d="M283.923 168.338C283.923 180.311 274.24 190.016 262.297 190.016C250.354 190.016 240.671 180.311 240.671 168.338C240.671 156.365 250.354 146.66 262.297 146.66C274.24 146.66 283.923 156.365 283.923 168.338Z" stroke="#FBBFCD" stroke-width="2"/>
<path d="M283.923 428.609C283.923 440.596 274.24 450.313 262.297 450.313C250.354 450.313 240.671 440.596 240.671 428.609C240.671 416.621 250.354 406.904 262.297 406.904C274.24 406.904 283.923 416.621 283.923 428.609Z" stroke="#FBBFCD" stroke-width="2"/>
<path d="M283.923 5.71134C283.923 17.699 274.24 27.4158 262.297 27.4158C250.354 27.4158 240.671 17.699 240.671 5.71134C240.671 -6.27619 250.354 -15.9932 262.297 -15.9932C274.24 -15.9932 283.923 -6.27619 283.923 5.71134Z" stroke="#FBBFCD" stroke-width="2"/>
<path d="M283.923 265.982C283.923 277.955 274.24 287.66 262.297 287.66C250.354 287.66 240.671 277.955 240.671 265.982C240.671 254.009 250.354 244.304 262.297 244.304C274.24 244.304 283.923 254.009 283.923 265.982Z" stroke="#FBBFCD" stroke-width="2"/>
<path d="M283.923 135.807C283.923 147.78 274.24 157.486 262.297 157.486C250.354 157.486 240.671 147.78 240.671 135.807C240.671 123.834 250.354 114.129 262.297 114.129C274.24 114.129 283.923 123.834 283.923 135.807Z" stroke="#FBBFCD" stroke-width="2"/>
<path d="M283.923 396.105C283.923 408.078 274.24 417.783 262.297 417.783C250.354 417.783 240.671 408.078 240.671 396.105C240.671 384.132 250.354 374.426 262.297 374.426C274.24 374.426 283.923 384.132 283.923 396.105Z" stroke="#FBBFCD" stroke-width="2"/>
<path d="M283.923 70.7985C283.923 82.7715 274.24 92.4768 262.297 92.4768C250.354 92.4768 240.671 82.7715 240.671 70.7985C240.671 58.8254 250.354 49.1201 262.297 49.1201C274.24 49.1201 283.923 58.8254 283.923 70.7985Z" stroke="#FBBFCD" stroke-width="2"/>
<path d="M283.923 331.07C283.923 343.057 274.24 352.774 262.297 352.774C250.354 352.774 240.671 343.057 240.671 331.07C240.671 319.082 250.354 309.365 262.297 309.365C274.24 309.365 283.923 319.082 283.923 331.07Z" stroke="#FBBFCD" stroke-width="2"/>
<path d="M283.923 200.869C283.923 212.842 274.24 222.547 262.297 222.547C250.354 222.547 240.671 212.842 240.671 200.869C240.671 188.896 250.354 179.19 262.297 179.19C274.24 179.19 283.923 188.896 283.923 200.869Z" stroke="#FBBFCD" stroke-width="2"/>
<path d="M131.39 255.182C143.363 255.182 153.069 245.477 153.069 233.504C153.069 221.531 143.363 211.826 131.39 211.826C119.418 211.826 109.712 221.531 109.712 233.504C109.712 245.477 119.418 255.182 131.39 255.182Z" stroke="#FBBFCD" stroke-width="2"/>
<path d="M153.069 103.303C153.069 115.29 143.363 125.008 131.39 125.008C119.418 125.008 109.712 115.29 109.712 103.303C109.712 91.316 119.418 81.5986 131.39 81.5986C143.363 81.5986 153.069 91.316 153.069 103.303Z" stroke="#FBBFCD" stroke-width="2"/>
<path d="M131.39 385.252C143.363 385.252 153.069 375.546 153.069 363.574C153.069 351.601 143.363 341.896 131.39 341.896C119.418 341.896 109.712 351.601 109.712 363.574C109.712 375.546 119.418 385.252 131.39 385.252Z" stroke="#FBBFCD" stroke-width="2"/>
<path d="M131.39 59.9465C143.363 59.9465 153.069 50.2408 153.069 38.2682C153.069 26.2956 143.363 16.5898 131.39 16.5898C119.418 16.5898 109.712 26.2956 109.712 38.2682C109.712 50.2408 119.418 59.9465 131.39 59.9465Z" stroke="#FBBFCD" stroke-width="2"/>
<path d="M131.39 320.243C143.363 320.243 153.069 310.538 153.069 298.565C153.069 286.592 143.363 276.887 131.39 276.887C119.418 276.887 109.712 286.592 109.712 298.565C109.712 310.538 119.418 320.243 131.39 320.243Z" stroke="#FBBFCD" stroke-width="2"/>
<path d="M131.39 190.069C143.363 190.069 153.069 180.363 153.069 168.39C153.069 156.418 143.363 146.712 131.39 146.712C119.418 146.712 109.712 156.418 109.712 168.39C109.712 180.363 119.418 190.069 131.39 190.069Z" stroke="#FBBFCD" stroke-width="2"/>
<path d="M153.069 428.662C153.069 440.649 143.363 450.366 131.39 450.366C119.418 450.366 109.712 440.649 109.712 428.662C109.712 416.674 119.418 406.957 131.39 406.957C143.363 406.957 153.069 416.674 153.069 428.662Z" stroke="#FBBFCD" stroke-width="2"/>
<path d="M153.069 5.76358C153.069 17.7507 143.363 27.4681 131.39 27.4681C119.418 27.4681 109.712 17.7507 109.712 5.76358C109.712 -6.22363 119.418 -15.9409 131.39 -15.9409C143.363 -15.9409 153.069 -6.22363 153.069 5.76358Z" stroke="#FBBFCD" stroke-width="2"/>
<path d="M131.39 287.713C143.363 287.713 153.069 278.007 153.069 266.034C153.069 254.062 143.363 244.356 131.39 244.356C119.418 244.356 109.712 254.062 109.712 266.034C109.712 278.007 119.418 287.713 131.39 287.713Z" stroke="#FBBFCD" stroke-width="2"/>
<path d="M131.39 157.538C143.363 157.538 153.069 147.833 153.069 135.86C153.069 123.887 143.363 114.182 131.39 114.182C119.418 114.182 109.712 123.887 109.712 135.86C109.712 147.833 119.418 157.538 131.39 157.538Z" stroke="#FBBFCD" stroke-width="2"/>
<path d="M131.39 417.835C143.363 417.835 153.069 408.129 153.069 396.157C153.069 384.184 143.363 374.479 131.39 374.479C119.418 374.479 109.712 384.184 109.712 396.157C109.712 408.129 119.418 417.835 131.39 417.835Z" stroke="#FBBFCD" stroke-width="2"/>
<path d="M131.39 92.5291C143.363 92.5291 153.069 82.8233 153.069 70.8507C153.069 58.8781 143.363 49.1724 131.39 49.1724C119.418 49.1724 109.712 58.8781 109.712 70.8507C109.712 82.8233 119.418 92.5291 131.39 92.5291Z" stroke="#FBBFCD" stroke-width="2"/>
<path d="M153.069 331.122C153.069 343.109 143.363 352.826 131.39 352.826C119.418 352.826 109.712 343.109 109.712 331.122C109.712 319.135 119.418 309.417 131.39 309.417C143.363 309.417 153.069 319.135 153.069 331.122Z" stroke="#FBBFCD" stroke-width="2"/>
<path d="M153.069 200.947C153.069 212.934 143.363 222.652 131.39 222.652C119.418 222.652 109.712 212.934 109.712 200.947C109.712 188.96 119.418 179.243 131.39 179.243C143.363 179.243 153.069 188.96 153.069 200.947Z" stroke="#FBBFCD" stroke-width="2"/>
<path d="M251.236 233.425C251.236 245.412 241.541 255.13 229.584 255.13C217.626 255.13 207.931 245.412 207.931 233.425C207.931 221.438 217.626 211.721 229.584 211.721C241.541 211.721 251.236 221.438 251.236 233.425Z" stroke="#FBBFCD" stroke-width="2"/>
<path d="M251.236 103.251C251.236 115.238 241.541 124.955 229.584 124.955C217.626 124.955 207.931 115.238 207.931 103.251C207.931 91.2637 217.626 81.5464 229.584 81.5464C241.541 81.5464 251.236 91.2637 251.236 103.251Z" stroke="#FBBFCD" stroke-width="2"/>
<path d="M251.236 363.522C251.236 375.494 241.541 385.2 229.584 385.2C217.626 385.2 207.931 375.494 207.931 363.522C207.931 351.549 217.626 341.843 229.584 341.843C241.541 341.843 251.236 351.549 251.236 363.522Z" stroke="#FBBFCD" stroke-width="2"/>
<path d="M251.236 38.2155C251.236 50.188 241.541 59.8938 229.584 59.8938C217.626 59.8938 207.931 50.188 207.931 38.2155C207.931 26.2429 217.626 16.5371 229.584 16.5371C241.541 16.5371 251.236 26.2429 251.236 38.2155Z" stroke="#FBBFCD" stroke-width="2"/>
<path d="M251.236 298.513C251.236 310.485 241.541 320.191 229.584 320.191C217.626 320.191 207.931 310.485 207.931 298.513C207.931 286.54 217.626 276.834 229.584 276.834C241.541 276.834 251.236 286.54 251.236 298.513Z" stroke="#FBBFCD" stroke-width="2"/>
<path d="M251.236 168.338C251.236 180.311 241.541 190.016 229.584 190.016C217.626 190.016 207.931 180.311 207.931 168.338C207.931 156.366 217.626 146.66 229.584 146.66C241.541 146.66 251.236 156.366 251.236 168.338Z" stroke="#FBBFCD" stroke-width="2"/>
<path d="M251.236 428.609C251.236 440.596 241.541 450.313 229.584 450.313C217.626 450.313 207.931 440.596 207.931 428.609C207.931 416.622 217.626 406.904 229.584 406.904C241.541 406.904 251.236 416.622 251.236 428.609Z" stroke="#FBBFCD" stroke-width="2"/>
<path d="M251.236 5.71134C251.236 17.6985 241.541 27.4158 229.584 27.4158C217.626 27.4158 207.931 17.6985 207.931 5.71134C207.931 -6.27603 217.626 -15.9932 229.584 -15.9932C241.541 -15.9932 251.236 -6.27603 251.236 5.71134Z" stroke="#FBBFCD" stroke-width="2"/>
<path d="M251.236 265.982C251.236 277.955 241.541 287.66 229.584 287.66C217.626 287.66 207.931 277.955 207.931 265.982C207.931 254.01 217.626 244.304 229.584 244.304C241.541 244.304 251.236 254.01 251.236 265.982Z" stroke="#FBBFCD" stroke-width="2"/>
<path d="M251.236 135.807C251.236 147.78 241.541 157.486 229.584 157.486C217.626 157.486 207.931 147.78 207.931 135.807C207.931 123.835 217.626 114.129 229.584 114.129C241.541 114.129 251.236 123.835 251.236 135.807Z" stroke="#FBBFCD" stroke-width="2"/>
<path d="M251.236 396.105C251.236 408.077 241.541 417.783 229.584 417.783C217.626 417.783 207.931 408.077 207.931 396.105C207.931 384.132 217.626 374.426 229.584 374.426C241.541 374.426 251.236 384.132 251.236 396.105Z" stroke="#FBBFCD" stroke-width="2"/>
<path d="M251.236 70.7985C251.236 82.771 241.541 92.4768 229.584 92.4768C217.626 92.4768 207.931 82.771 207.931 70.7985C207.931 58.826 217.626 49.1201 229.584 49.1201C241.541 49.1201 251.236 58.826 251.236 70.7985Z" stroke="#FBBFCD" stroke-width="2"/>
<path d="M251.236 331.07C251.236 343.057 241.541 352.774 229.584 352.774C217.626 352.774 207.931 343.057 207.931 331.07C207.931 319.083 217.626 309.365 229.584 309.365C241.541 309.365 251.236 319.083 251.236 331.07Z" stroke="#FBBFCD" stroke-width="2"/>
<path d="M251.236 200.869C251.236 212.841 241.541 222.547 229.584 222.547C217.626 222.547 207.931 212.841 207.931 200.869C207.931 188.896 217.626 179.19 229.584 179.19C241.541 179.19 251.236 188.896 251.236 200.869Z" stroke="#FBBFCD" stroke-width="2"/>
<path d="M120.277 233.504C120.277 245.477 110.582 255.182 98.6244 255.182C86.6665 255.182 76.9722 245.477 76.9722 233.504C76.9722 221.532 86.6665 211.826 98.6244 211.826C110.582 211.826 120.277 221.532 120.277 233.504Z" stroke="#FBBFCD" stroke-width="2"/>
<path d="M120.277 103.303C120.277 115.29 110.582 125.008 98.6244 125.008C86.6665 125.008 76.9722 115.29 76.9722 103.303C76.9722 91.316 86.6665 81.5986 98.6244 81.5986C110.582 81.5986 120.277 91.316 120.277 103.303Z" stroke="#FBBFCD" stroke-width="2"/>
<path d="M120.277 363.574C120.277 375.546 110.582 385.252 98.6244 385.252C86.6665 385.252 76.9722 375.546 76.9722 363.574C76.9722 351.601 86.6665 341.896 98.6244 341.896C110.582 341.896 120.277 351.601 120.277 363.574Z" stroke="#FBBFCD" stroke-width="2"/>
<path d="M120.277 38.2682C120.277 50.2407 110.582 59.9465 98.6244 59.9465C86.6665 59.9465 76.9722 50.2407 76.9722 38.2682C76.9722 26.2957 86.6665 16.5898 98.6244 16.5898C110.582 16.5898 120.277 26.2957 120.277 38.2682Z" stroke="#FBBFCD" stroke-width="2"/>
<path d="M120.277 298.565C120.277 310.538 110.582 320.243 98.6244 320.243C86.6665 320.243 76.9722 310.538 76.9722 298.565C76.9722 286.593 86.6665 276.887 98.6244 276.887C110.582 276.887 120.277 286.593 120.277 298.565Z" stroke="#FBBFCD" stroke-width="2"/>
<path d="M120.277 168.39C120.277 180.363 110.582 190.069 98.6244 190.069C86.6665 190.069 76.9722 180.363 76.9722 168.39C76.9722 156.418 86.6665 146.712 98.6244 146.712C110.582 146.712 120.277 156.418 120.277 168.39Z" stroke="#FBBFCD" stroke-width="2"/>
<path d="M120.277 428.662C120.277 440.649 110.582 450.366 98.6244 450.366C86.6665 450.366 76.9722 440.649 76.9722 428.662C76.9722 416.674 86.6665 406.957 98.6244 406.957C110.582 406.957 120.277 416.674 120.277 428.662Z" stroke="#FBBFCD" stroke-width="2"/>
<path d="M120.277 5.76358C120.277 17.7507 110.582 27.4681 98.6244 27.4681C86.6665 27.4681 76.9722 17.7507 76.9722 5.76358C76.9722 -6.22379 86.6665 -15.9409 98.6244 -15.9409C110.582 -15.9409 120.277 -6.22379 120.277 5.76358Z" stroke="#FBBFCD" stroke-width="2"/>
<path d="M120.277 266.034C120.277 278.007 110.582 287.713 98.6244 287.713C86.6665 287.713 76.9722 278.007 76.9722 266.034C76.9722 254.062 86.6665 244.356 98.6244 244.356C110.582 244.356 120.277 254.062 120.277 266.034Z" stroke="#FBBFCD" stroke-width="2"/>
<path d="M120.277 135.86C120.277 147.833 110.582 157.538 98.6244 157.538C86.6665 157.538 76.9722 147.833 76.9722 135.86C76.9722 123.887 86.6665 114.182 98.6244 114.182C110.582 114.182 120.277 123.887 120.277 135.86Z" stroke="#FBBFCD" stroke-width="2"/>
<path d="M120.277 396.157C120.277 408.129 110.582 417.835 98.6244 417.835C86.6665 417.835 76.9722 408.129 76.9722 396.157C76.9722 384.184 86.6665 374.479 98.6244 374.479C110.582 374.479 120.277 384.184 120.277 396.157Z" stroke="#FBBFCD" stroke-width="2"/>
<path d="M120.277 70.8507C120.277 82.8232 110.582 92.5291 98.6244 92.5291C86.6665 92.5291 76.9722 82.8232 76.9722 70.8507C76.9722 58.8782 86.6665 49.1724 98.6244 49.1724C110.582 49.1724 120.277 58.8782 120.277 70.8507Z" stroke="#FBBFCD" stroke-width="2"/>
<path d="M120.277 331.122C120.277 343.109 110.582 352.826 98.6244 352.826C86.6665 352.826 76.9722 343.109 76.9722 331.122C76.9722 319.135 86.6665 309.417 98.6244 309.417C110.582 309.417 120.277 319.135 120.277 331.122Z" stroke="#FBBFCD" stroke-width="2"/>
<path d="M120.277 200.947C120.277 212.934 110.582 222.652 98.6244 222.652C86.6665 222.652 76.9722 212.934 76.9722 200.947C76.9722 188.96 86.6665 179.243 98.6244 179.243C110.582 179.243 120.277 188.96 120.277 200.947Z" stroke="#FBBFCD" stroke-width="2"/>
<path d="M382.143 233.504C382.143 245.477 372.448 255.182 360.491 255.182C348.533 255.182 338.838 245.477 338.838 233.504C338.838 221.532 348.533 211.826 360.491 211.826C372.448 211.826 382.143 221.532 382.143 233.504Z" stroke="#FBBFCD" stroke-width="2"/>
<path d="M382.143 103.303C382.143 115.29 372.448 125.008 360.491 125.008C348.533 125.008 338.838 115.29 338.838 103.303C338.838 91.316 348.533 81.5986 360.491 81.5986C372.448 81.5986 382.143 91.316 382.143 103.303Z" stroke="#FBBFCD" stroke-width="2"/>
<path d="M382.143 363.574C382.143 375.546 372.448 385.252 360.491 385.252C348.533 385.252 338.838 375.546 338.838 363.574C338.838 351.601 348.533 341.896 360.491 341.896C372.448 341.896 382.143 351.601 382.143 363.574Z" stroke="#FBBFCD" stroke-width="2"/>
<path d="M382.143 38.2682C382.143 50.2407 372.448 59.9465 360.491 59.9465C348.533 59.9465 338.838 50.2407 338.838 38.2682C338.838 26.2957 348.533 16.5898 360.491 16.5898C372.448 16.5898 382.143 26.2957 382.143 38.2682Z" stroke="#FBBFCD" stroke-width="2"/>
<path d="M382.143 298.565C382.143 310.538 372.448 320.243 360.491 320.243C348.533 320.243 338.838 310.538 338.838 298.565C338.838 286.593 348.533 276.887 360.491 276.887C372.448 276.887 382.143 286.593 382.143 298.565Z" stroke="#FBBFCD" stroke-width="2"/>
<path d="M382.143 168.39C382.143 180.363 372.448 190.069 360.491 190.069C348.533 190.069 338.838 180.363 338.838 168.39C338.838 156.418 348.533 146.712 360.491 146.712C372.448 146.712 382.143 156.418 382.143 168.39Z" stroke="#FBBFCD" stroke-width="2"/>
<path d="M382.143 428.662C382.143 440.649 372.448 450.366 360.491 450.366C348.533 450.366 338.838 440.649 338.838 428.662C338.838 416.674 348.533 406.957 360.491 406.957C372.448 406.957 382.143 416.674 382.143 428.662Z" stroke="#FBBFCD" stroke-width="2"/>
<path d="M382.143 5.76358C382.143 17.7507 372.448 27.4681 360.491 27.4681C348.533 27.4681 338.838 17.7507 338.838 5.76358C338.838 -6.22379 348.533 -15.9409 360.491 -15.9409C372.448 -15.9409 382.143 -6.22379 382.143 5.76358Z" stroke="#FBBFCD" stroke-width="2"/>
<path d="M382.143 266.034C382.143 278.007 372.448 287.713 360.491 287.713C348.533 287.713 338.838 278.007 338.838 266.034C338.838 254.062 348.533 244.356 360.491 244.356C372.448 244.356 382.143 254.062 382.143 266.034Z" stroke="#FBBFCD" stroke-width="2"/>
<path d="M382.143 135.86C382.143 147.833 372.448 157.538 360.491 157.538C348.533 157.538 338.838 147.833 338.838 135.86C338.838 123.887 348.533 114.182 360.491 114.182C372.448 114.182 382.143 123.887 382.143 135.86Z" stroke="#FBBFCD" stroke-width="2"/>
<path d="M382.143 396.157C382.143 408.129 372.448 417.835 360.491 417.835C348.533 417.835 338.838 408.129 338.838 396.157C338.838 384.184 348.533 374.479 360.491 374.479C372.448 374.479 382.143 384.184 382.143 396.157Z" stroke="#FBBFCD" stroke-width="2"/>
<path d="M382.143 70.8507C382.143 82.8232 372.448 92.5291 360.491 92.5291C348.533 92.5291 338.838 82.8232 338.838 70.8507C338.838 58.8782 348.533 49.1724 360.491 49.1724C372.448 49.1724 382.143 58.8782 382.143 70.8507Z" stroke="#FBBFCD" stroke-width="2"/>
<path d="M382.143 331.122C382.143 343.109 372.448 352.826 360.491 352.826C348.533 352.826 338.838 343.109 338.838 331.122C338.838 319.135 348.533 309.417 360.491 309.417C372.448 309.417 382.143 319.135 382.143 331.122Z" stroke="#FBBFCD" stroke-width="2"/>
<path d="M382.143 200.947C382.143 212.934 372.448 222.652 360.491 222.652C348.533 222.652 338.838 212.934 338.838 200.947C338.838 188.96 348.533 179.243 360.491 179.243C372.448 179.243 382.143 188.96 382.143 200.947Z" stroke="#FBBFCD" stroke-width="2"/>
<path d="M54.8493 233.425C54.8493 245.412 45.1434 255.13 33.1709 255.13C21.1984 255.13 11.4926 245.412 11.4926 233.425C11.4926 221.438 21.1984 211.721 33.1709 211.721C45.1434 211.721 54.8493 221.438 54.8493 233.425Z" stroke="#FBBFCD" stroke-width="2"/>
<path d="M54.8493 103.251C54.8493 115.238 45.1434 124.955 33.1709 124.955C21.1984 124.955 11.4926 115.238 11.4926 103.251C11.4926 91.2637 21.1984 81.5464 33.1709 81.5464C45.1434 81.5464 54.8493 91.2637 54.8493 103.251Z" stroke="#FBBFCD" stroke-width="2"/>
<path d="M33.1709 385.2C45.1435 385.2 54.8493 375.494 54.8493 363.522C54.8493 351.549 45.1435 341.843 33.1709 341.843C21.1983 341.843 11.4926 351.549 11.4926 363.522C11.4926 375.494 21.1983 385.2 33.1709 385.2Z" stroke="#FBBFCD" stroke-width="2"/>
<path d="M33.1709 59.8938C45.1435 59.8938 54.8493 50.1881 54.8493 38.2155C54.8493 26.2428 45.1435 16.5371 33.1709 16.5371C21.1983 16.5371 11.4926 26.2428 11.4926 38.2155C11.4926 50.1881 21.1983 59.8938 33.1709 59.8938Z" stroke="#FBBFCD" stroke-width="2"/>
<path d="M33.1709 320.191C45.1435 320.191 54.8493 310.485 54.8493 298.513C54.8493 286.54 45.1435 276.834 33.1709 276.834C21.1983 276.834 11.4926 286.54 11.4926 298.513C11.4926 310.485 21.1983 320.191 33.1709 320.191Z" stroke="#FBBFCD" stroke-width="2"/>
<path d="M33.1709 190.016C45.1435 190.016 54.8493 180.311 54.8493 168.338C54.8493 156.365 45.1435 146.66 33.1709 146.66C21.1983 146.66 11.4926 156.365 11.4926 168.338C11.4926 180.311 21.1983 190.016 33.1709 190.016Z" stroke="#FBBFCD" stroke-width="2"/>
<path d="M54.8493 428.609C54.8493 440.596 45.1434 450.313 33.1709 450.313C21.1984 450.313 11.4926 440.596 11.4926 428.609C11.4926 416.622 21.1984 406.904 33.1709 406.904C45.1434 406.904 54.8493 416.622 54.8493 428.609Z" stroke="#FBBFCD" stroke-width="2"/>
<path d="M54.8493 5.71134C54.8493 17.6985 45.1434 27.4158 33.1709 27.4158C21.1984 27.4158 11.4926 17.6985 11.4926 5.71134C11.4926 -6.27588 21.1984 -15.9932 33.1709 -15.9932C45.1434 -15.9932 54.8493 -6.27588 54.8493 5.71134Z" stroke="#FBBFCD" stroke-width="2"/>
<path d="M33.1709 287.66C45.1435 287.66 54.8493 277.955 54.8493 265.982C54.8493 254.009 45.1435 244.304 33.1709 244.304C21.1983 244.304 11.4926 254.009 11.4926 265.982C11.4926 277.955 21.1983 287.66 33.1709 287.66Z" stroke="#FBBFCD" stroke-width="2"/>
<path d="M33.1709 157.486C45.1435 157.486 54.8493 147.78 54.8493 135.807C54.8493 123.835 45.1435 114.129 33.1709 114.129C21.1983 114.129 11.4926 123.835 11.4926 135.807C11.4926 147.78 21.1983 157.486 33.1709 157.486Z" stroke="#FBBFCD" stroke-width="2"/>
<path d="M33.1709 417.783C45.1435 417.783 54.8493 408.077 54.8493 396.105C54.8493 384.132 45.1435 374.426 33.1709 374.426C21.1983 374.426 11.4926 384.132 11.4926 396.105C11.4926 408.077 21.1983 417.783 33.1709 417.783Z" stroke="#FBBFCD" stroke-width="2"/>
<path d="M33.1709 92.4768C45.1435 92.4768 54.8493 82.7711 54.8493 70.7985C54.8493 58.8258 45.1435 49.1201 33.1709 49.1201C21.1983 49.1201 11.4926 58.8258 11.4926 70.7985C11.4926 82.7711 21.1983 92.4768 33.1709 92.4768Z" stroke="#FBBFCD" stroke-width="2"/>
<path d="M54.8493 331.07C54.8493 343.057 45.1434 352.774 33.1709 352.774C21.1984 352.774 11.4926 343.057 11.4926 331.07C11.4926 319.083 21.1984 309.365 33.1709 309.365C45.1434 309.365 54.8493 319.083 54.8493 331.07Z" stroke="#FBBFCD" stroke-width="2"/>
<path d="M33.1709 222.547C45.1435 222.547 54.8493 212.841 54.8493 200.869C54.8493 188.896 45.1435 179.19 33.1709 179.19C21.1983 179.19 11.4926 188.896 11.4926 200.869C11.4926 212.841 21.1983 222.547 33.1709 222.547Z" stroke="#FBBFCD" stroke-width="2"/>
<path d="M316.715 233.425C316.715 245.413 307.033 255.13 295.089 255.13C283.146 255.13 273.463 245.413 273.463 233.425C273.463 221.438 283.146 211.721 295.089 211.721C307.033 211.721 316.715 221.438 316.715 233.425Z" stroke="#FBBFCD" stroke-width="2"/>
<path d="M316.715 103.251C316.715 115.239 307.033 124.955 295.089 124.955C283.146 124.955 273.463 115.239 273.463 103.251C273.463 91.2632 283.146 81.5464 295.089 81.5464C307.033 81.5464 316.715 91.2632 316.715 103.251Z" stroke="#FBBFCD" stroke-width="2"/>
<path d="M316.715 363.522C316.715 375.495 307.033 385.2 295.089 385.2C283.146 385.2 273.463 375.495 273.463 363.522C273.463 351.549 283.146 341.843 295.089 341.843C307.033 341.843 316.715 351.549 316.715 363.522Z" stroke="#FBBFCD" stroke-width="2"/>
<path d="M316.715 38.2155C316.715 50.1885 307.033 59.8938 295.089 59.8938C283.146 59.8938 273.463 50.1885 273.463 38.2155C273.463 26.2424 283.146 16.5371 295.089 16.5371C307.033 16.5371 316.715 26.2424 316.715 38.2155Z" stroke="#FBBFCD" stroke-width="2"/>
<path d="M316.715 298.513C316.715 310.486 307.033 320.191 295.089 320.191C283.146 320.191 273.463 310.486 273.463 298.513C273.463 286.54 283.146 276.834 295.089 276.834C307.033 276.834 316.715 286.54 316.715 298.513Z" stroke="#FBBFCD" stroke-width="2"/>
<path d="M316.715 168.338C316.715 180.311 307.033 190.016 295.089 190.016C283.146 190.016 273.463 180.311 273.463 168.338C273.463 156.365 283.146 146.66 295.089 146.66C307.033 146.66 316.715 156.365 316.715 168.338Z" stroke="#FBBFCD" stroke-width="2"/>
<path d="M316.715 428.609C316.715 440.596 307.033 450.313 295.089 450.313C283.146 450.313 273.463 440.596 273.463 428.609C273.463 416.621 283.146 406.904 295.089 406.904C307.033 406.904 316.715 416.621 316.715 428.609Z" stroke="#FBBFCD" stroke-width="2"/>
<path d="M316.715 5.71134C316.715 17.699 307.033 27.4158 295.089 27.4158C283.146 27.4158 273.463 17.699 273.463 5.71134C273.463 -6.27619 283.146 -15.9932 295.089 -15.9932C307.033 -15.9932 316.715 -6.27619 316.715 5.71134Z" stroke="#FBBFCD" stroke-width="2"/>
<path d="M316.715 265.982C316.715 277.955 307.033 287.66 295.089 287.66C283.146 287.66 273.463 277.955 273.463 265.982C273.463 254.009 283.146 244.304 295.089 244.304C307.033 244.304 316.715 254.009 316.715 265.982Z" stroke="#FBBFCD" stroke-width="2"/>
<path d="M316.715 135.807C316.715 147.78 307.033 157.486 295.089 157.486C283.146 157.486 273.463 147.78 273.463 135.807C273.463 123.834 283.146 114.129 295.089 114.129C307.033 114.129 316.715 123.834 316.715 135.807Z" stroke="#FBBFCD" stroke-width="2"/>
<path d="M316.715 396.105C316.715 408.078 307.033 417.783 295.089 417.783C283.146 417.783 273.463 408.078 273.463 396.105C273.463 384.132 283.146 374.426 295.089 374.426C307.033 374.426 316.715 384.132 316.715 396.105Z" stroke="#FBBFCD" stroke-width="2"/>
<path d="M316.715 70.7985C316.715 82.7715 307.033 92.4768 295.089 92.4768C283.146 92.4768 273.463 82.7715 273.463 70.7985C273.463 58.8254 283.146 49.1201 295.089 49.1201C307.033 49.1201 316.715 58.8254 316.715 70.7985Z" stroke="#FBBFCD" stroke-width="2"/>
<path d="M316.715 331.07C316.715 343.057 307.033 352.774 295.089 352.774C283.146 352.774 273.463 343.057 273.463 331.07C273.463 319.082 283.146 309.365 295.089 309.365C307.033 309.365 316.715 319.082 316.715 331.07Z" stroke="#FBBFCD" stroke-width="2"/>
<path d="M316.715 200.869C316.715 212.842 307.033 222.547 295.089 222.547C283.146 222.547 273.463 212.842 273.463 200.869C273.463 188.896 283.146 179.19 295.089 179.19C307.033 179.19 316.715 188.896 316.715 200.869Z" stroke="#FBBFCD" stroke-width="2"/>
<path d="M164.183 255.182C176.155 255.182 185.861 245.477 185.861 233.504C185.861 221.531 176.155 211.826 164.183 211.826C152.21 211.826 142.504 221.531 142.504 233.504C142.504 245.477 152.21 255.182 164.183 255.182Z" stroke="#FBBFCD" stroke-width="2"/>
<path d="M185.861 103.303C185.861 115.29 176.155 125.008 164.183 125.008C152.21 125.008 142.504 115.29 142.504 103.303C142.504 91.316 152.21 81.5986 164.183 81.5986C176.155 81.5986 185.861 91.316 185.861 103.303Z" stroke="#FBBFCD" stroke-width="2"/>
<path d="M164.183 385.252C176.155 385.252 185.861 375.546 185.861 363.574C185.861 351.601 176.155 341.896 164.183 341.896C152.21 341.896 142.504 351.601 142.504 363.574C142.504 375.546 152.21 385.252 164.183 385.252Z" stroke="#FBBFCD" stroke-width="2"/>
<path d="M164.183 59.9465C176.155 59.9465 185.861 50.2408 185.861 38.2682C185.861 26.2956 176.155 16.5898 164.183 16.5898C152.21 16.5898 142.504 26.2956 142.504 38.2682C142.504 50.2408 152.21 59.9465 164.183 59.9465Z" stroke="#FBBFCD" stroke-width="2"/>
<path d="M164.183 320.243C176.155 320.243 185.861 310.538 185.861 298.565C185.861 286.592 176.155 276.887 164.183 276.887C152.21 276.887 142.504 286.592 142.504 298.565C142.504 310.538 152.21 320.243 164.183 320.243Z" stroke="#FBBFCD" stroke-width="2"/>
<path d="M164.183 190.069C176.155 190.069 185.861 180.363 185.861 168.39C185.861 156.418 176.155 146.712 164.183 146.712C152.21 146.712 142.504 156.418 142.504 168.39C142.504 180.363 152.21 190.069 164.183 190.069Z" stroke="#FBBFCD" stroke-width="2"/>
<path d="M185.861 428.662C185.861 440.649 176.155 450.366 164.183 450.366C152.21 450.366 142.504 440.649 142.504 428.662C142.504 416.674 152.21 406.957 164.183 406.957C176.155 406.957 185.861 416.674 185.861 428.662Z" stroke="#FBBFCD" stroke-width="2"/>
<path d="M185.861 5.76358C185.861 17.7507 176.155 27.4681 164.183 27.4681C152.21 27.4681 142.504 17.7507 142.504 5.76358C142.504 -6.22363 152.21 -15.9409 164.183 -15.9409C176.155 -15.9409 185.861 -6.22363 185.861 5.76358Z" stroke="#FBBFCD" stroke-width="2"/>
<path d="M164.183 287.713C176.155 287.713 185.861 278.007 185.861 266.034C185.861 254.062 176.155 244.356 164.183 244.356C152.21 244.356 142.504 254.062 142.504 266.034C142.504 278.007 152.21 287.713 164.183 287.713Z" stroke="#FBBFCD" stroke-width="2"/>
<path d="M164.183 157.538C176.155 157.538 185.861 147.833 185.861 135.86C185.861 123.887 176.155 114.182 164.183 114.182C152.21 114.182 142.504 123.887 142.504 135.86C142.504 147.833 152.21 157.538 164.183 157.538Z" stroke="#FBBFCD" stroke-width="2"/>
<path d="M164.183 417.835C176.155 417.835 185.861 408.129 185.861 396.157C185.861 384.184 176.155 374.479 164.183 374.479C152.21 374.479 142.504 384.184 142.504 396.157C142.504 408.129 152.21 417.835 164.183 417.835Z" stroke="#FBBFCD" stroke-width="2"/>
<path d="M164.183 92.5291C176.155 92.5291 185.861 82.8233 185.861 70.8507C185.861 58.8781 176.155 49.1724 164.183 49.1724C152.21 49.1724 142.504 58.8781 142.504 70.8507C142.504 82.8233 152.21 92.5291 164.183 92.5291Z" stroke="#FBBFCD" stroke-width="2"/>
<path d="M185.861 331.122C185.861 343.109 176.155 352.826 164.183 352.826C152.21 352.826 142.504 343.109 142.504 331.122C142.504 319.135 152.21 309.417 164.183 309.417C176.155 309.417 185.861 319.135 185.861 331.122Z" stroke="#FBBFCD" stroke-width="2"/>
<path d="M185.861 200.947C185.861 212.934 176.155 222.652 164.183 222.652C152.21 222.652 142.504 212.934 142.504 200.947C142.504 188.96 152.21 179.243 164.183 179.243C176.155 179.243 185.861 188.96 185.861 200.947Z" stroke="#FBBFCD" stroke-width="2"/>
</g>
</g>
</g>
<defs>
<clipPath id="clip0_2225_4245">
<rect width="360" height="435" fill="white"/>
</clipPath>
<clipPath id="clip1_2225_4245">
<rect width="523" height="523" fill="white" transform="translate(-81 -44)"/>
</clipPath>
</defs>
</svg>
