<svg width="83" height="68" viewBox="0 0 83 68" fill="none" xmlns="http://www.w3.org/2000/svg">
<path d="M27.5847 2C15.8032 19.2191 -2.61448 42.8507 3.05889 65.5442" stroke="#4A4A4A" stroke-width="3" stroke-linecap="round"/>
<path d="M26.4697 6.45898C30.9641 7.31506 34.2823 8.07375 38.2371 10.0512C41.7447 11.805 41.1082 13.3642 40.9003 17.731C40.4932 26.279 39.8474 34.6603 39.8474 43.2478C39.8474 46.6464 36.9283 45.4706 34.8927 43.8052C32.1118 41.5299 26.7512 35.4441 23.1252 35.4441C19.0376 35.4441 14.9499 35.4441 10.8623 35.4441" stroke="#4A4A4A" stroke-width="3" stroke-linecap="round"/>
<path d="M62.144 12.0332C55.1258 25.3137 49.881 36.6303 49.881 51.6709C49.881 53.5967 48.9235 59.8915 50.9958 58.8553" stroke="#4A4A4A" stroke-width="3" stroke-linecap="round"/>
<path d="M65.4881 13.1479C67.2147 14.0688 80.4659 19.0785 81.0335 21.6329C81.545 23.9345 80.0593 26.6971 79.4233 28.8172C78.696 31.2415 77.2627 43.7899 74.964 44.3007C69.1011 45.6036 66.1761 35.4442 59.9141 35.4442" stroke="#4A4A4A" stroke-width="3" stroke-linecap="round"/>
</svg>
