<svg width="475" height="363" viewBox="0 0 475 363" fill="none" xmlns="http://www.w3.org/2000/svg">
<path d="M365.368 189.668C370.171 176.724 384.558 170.123 397.503 174.926L450.943 194.755C463.888 199.558 470.488 213.946 465.685 226.89V226.89C460.882 239.835 446.494 246.435 433.549 241.632L380.11 221.804C367.165 217.001 360.565 202.613 365.368 189.668V189.668Z" fill="#FEA354"/>
<path d="M389.461 205.178C388.721 204.904 388.105 204.539 387.614 204.084C387.137 203.622 386.803 203.111 386.613 202.552L388.356 201.901C388.544 202.346 388.799 202.714 389.124 203.005C389.452 203.286 389.806 203.497 390.186 203.638C390.336 203.694 390.477 203.729 390.608 203.744C390.753 203.752 390.881 203.743 390.993 203.716C391.109 203.68 391.204 203.624 391.277 203.548C391.365 203.467 391.428 203.371 391.469 203.261C391.551 203.041 391.526 202.833 391.394 202.636C391.313 202.549 391.18 202.431 390.996 202.284C390.816 202.126 390.577 201.94 390.28 201.728C389.819 201.409 389.439 201.097 389.142 200.794C388.859 200.484 388.653 200.18 388.525 199.882C388.423 199.605 388.366 199.328 388.355 199.051C388.358 198.768 388.415 198.476 388.527 198.176C388.66 197.816 388.861 197.521 389.128 197.29C389.4 197.049 389.714 196.876 390.072 196.77C390.44 196.667 390.83 196.63 391.24 196.657C391.655 196.674 392.067 196.759 392.477 196.911C392.887 197.063 393.269 197.262 393.622 197.507C393.975 197.751 394.281 198.03 394.54 198.342C394.813 198.649 395.029 198.973 395.186 199.316L393.578 200.153C393.461 199.916 393.314 199.685 393.136 199.46C392.968 199.238 392.779 199.043 392.568 198.874C392.358 198.705 392.158 198.585 391.968 198.514C391.798 198.451 391.637 198.409 391.486 198.387C391.345 198.368 391.218 198.373 391.106 198.399C390.994 198.426 390.894 198.48 390.807 198.561C390.734 198.636 390.676 198.729 390.636 198.839C390.595 198.949 390.581 199.063 390.594 199.182C390.617 199.304 390.665 199.419 390.739 199.526C390.827 199.627 390.961 199.756 391.141 199.914C391.332 200.076 391.593 200.275 391.926 200.513C392.358 200.821 392.709 201.116 392.98 201.398C393.26 201.685 393.462 201.97 393.584 202.254C393.687 202.497 393.736 202.748 393.731 203.008C393.725 203.268 393.671 203.538 393.567 203.818C393.385 204.308 393.082 204.696 392.657 204.982C392.246 205.262 391.76 205.423 391.198 205.465C390.64 205.496 390.061 205.401 389.461 205.178ZM397.595 208.196C396.835 207.914 396.222 207.482 395.755 206.899C395.289 206.317 394.995 205.651 394.876 204.901C394.766 204.154 394.857 203.386 395.15 202.596C395.44 201.816 395.869 201.179 396.44 200.685C397.023 200.185 397.682 199.867 398.416 199.729C399.149 199.592 399.896 199.664 400.656 199.946C401.366 200.21 401.968 200.581 402.461 201.06C402.955 201.539 403.281 202.069 403.441 202.652L401.748 203.628C401.678 203.386 401.566 203.151 401.412 202.923C401.261 202.685 401.078 202.475 400.861 202.292C400.654 202.113 400.421 201.975 400.161 201.879C399.751 201.726 399.349 201.691 398.955 201.772C398.574 201.847 398.231 202.021 397.925 202.295C397.618 202.568 397.384 202.924 397.22 203.364C397.061 203.794 397.008 204.213 397.062 204.62C397.129 205.02 397.284 205.385 397.526 205.714C397.772 206.032 398.095 206.266 398.495 206.414C398.755 206.511 399.013 206.567 399.269 206.582C399.529 206.587 399.786 206.552 400.042 206.476C400.308 206.404 400.565 206.295 400.812 206.148L401.444 207.986C400.945 208.29 400.345 208.466 399.645 208.513C398.948 208.551 398.265 208.445 397.595 208.196ZM402.511 209.85L405.455 201.914L407.585 202.705L404.641 210.64L402.511 209.85ZM407.112 200.669C406.702 200.517 406.419 200.298 406.263 200.013C406.107 199.727 406.098 199.4 406.235 199.03C406.361 198.69 406.578 198.457 406.886 198.333C407.208 198.202 407.569 198.21 407.969 198.359C408.379 198.511 408.66 198.735 408.812 199.03C408.968 199.315 408.979 199.638 408.845 199.998C408.715 200.348 408.492 200.584 408.174 200.705C407.866 200.829 407.512 200.817 407.112 200.669ZM410.625 213.031C409.765 212.712 409.08 212.259 408.57 211.671C408.06 211.084 407.738 210.418 407.604 209.675C407.471 208.931 407.55 208.164 407.843 207.374C408.07 206.764 408.378 206.241 408.767 205.806C409.156 205.37 409.599 205.034 410.097 204.797C410.598 204.551 411.13 204.418 411.695 204.4C412.273 204.376 412.852 204.471 413.432 204.686C413.972 204.887 414.434 205.172 414.82 205.543C415.21 205.904 415.503 206.325 415.699 206.808C415.909 207.284 416.015 207.795 416.017 208.342C416.019 208.889 415.904 209.444 415.673 210.006L415.413 210.661L409.038 208.295L409.177 206.862L414.142 208.704L413.802 208.885L413.924 208.555C414.005 208.278 414.005 208 413.927 207.72C413.859 207.445 413.727 207.202 413.531 206.993C413.336 206.784 413.088 206.624 412.788 206.513C412.348 206.349 411.941 206.295 411.568 206.35C411.205 206.409 410.883 206.573 410.6 206.844C410.318 207.115 410.089 207.485 409.915 207.955C409.737 208.435 409.683 208.887 409.753 209.311C409.833 209.739 410.021 210.122 410.317 210.459C410.626 210.79 411.036 211.05 411.546 211.24C411.896 211.37 412.236 211.433 412.567 211.431C412.898 211.429 413.279 211.354 413.709 211.206L414.2 213.01C413.814 213.162 413.412 213.263 412.995 213.313C412.582 213.353 412.174 213.35 411.77 213.303C411.367 213.255 410.985 213.165 410.625 213.031ZM415.705 214.746L418.65 206.81L420.69 207.567L420.149 209.209L419.662 209.234C419.905 208.914 420.221 208.662 420.609 208.476C421.01 208.283 421.444 208.171 421.911 208.14C422.378 208.108 422.831 208.174 423.271 208.337C423.871 208.56 424.327 208.865 424.638 209.254C424.959 209.646 425.128 210.124 425.146 210.688C425.178 211.246 425.062 211.88 424.799 212.59L422.996 217.451L420.865 216.66L422.608 211.965C422.741 211.605 422.803 211.286 422.792 211.009C422.781 210.732 422.691 210.5 422.521 210.312C422.366 210.118 422.134 209.975 421.827 209.883C421.587 209.794 421.347 209.751 421.107 209.753C420.881 209.749 420.667 209.789 420.466 209.873C420.274 209.961 420.099 210.079 419.942 210.225C419.796 210.376 419.683 210.556 419.605 210.766L417.835 215.536L416.785 215.146C416.555 215.061 416.35 214.985 416.17 214.918C415.99 214.851 415.835 214.794 415.705 214.746ZM428.431 219.638C427.671 219.356 427.058 218.924 426.592 218.341C426.125 217.758 425.832 217.092 425.712 216.342C425.602 215.596 425.694 214.828 425.987 214.038C426.276 213.258 426.706 212.621 427.276 212.127C427.86 211.627 428.518 211.308 429.252 211.171C429.986 211.033 430.732 211.106 431.492 211.388C432.203 211.651 432.804 212.022 433.298 212.501C433.791 212.98 434.118 213.511 434.277 214.093L432.584 215.069C432.514 214.827 432.402 214.592 432.248 214.365C432.098 214.127 431.914 213.916 431.697 213.733C431.491 213.554 431.257 213.417 430.997 213.32C430.587 213.168 430.185 213.133 429.791 213.214C429.41 213.289 429.067 213.463 428.761 213.736C428.455 214.009 428.22 214.366 428.057 214.806C427.897 215.236 427.844 215.654 427.898 216.061C427.966 216.462 428.121 216.826 428.363 217.155C428.608 217.474 428.931 217.708 429.331 217.856C429.591 217.952 429.849 218.008 430.105 218.024C430.365 218.029 430.623 217.994 430.878 217.918C431.144 217.846 431.401 217.736 431.649 217.589L432.281 219.428C431.781 219.732 431.181 219.908 430.481 219.955C429.785 219.992 429.101 219.887 428.431 219.638ZM436.876 222.772C436.016 222.453 435.331 221.999 434.821 221.412C434.311 220.824 433.989 220.159 433.855 219.415C433.722 218.671 433.802 217.905 434.095 217.115C434.321 216.505 434.629 215.982 435.018 215.546C435.407 215.11 435.851 214.774 436.348 214.538C436.849 214.291 437.382 214.159 437.946 214.141C438.524 214.116 439.103 214.211 439.683 214.427C440.223 214.627 440.686 214.913 441.071 215.283C441.461 215.644 441.754 216.066 441.95 216.548C442.161 217.024 442.267 217.536 442.268 218.083C442.27 218.629 442.156 219.184 441.924 219.747L441.664 220.401L435.289 218.036L435.428 216.603L440.393 218.445L440.053 218.626L440.176 218.296C440.256 218.018 440.257 217.74 440.178 217.461C440.11 217.185 439.978 216.943 439.783 216.733C439.587 216.524 439.339 216.364 439.039 216.253C438.599 216.09 438.193 216.035 437.82 216.09C437.457 216.149 437.134 216.314 436.851 216.584C436.569 216.855 436.34 217.225 436.166 217.695C435.988 218.175 435.934 218.628 436.004 219.052C436.084 219.48 436.272 219.862 436.568 220.2C436.877 220.531 437.287 220.791 437.797 220.98C438.147 221.11 438.488 221.174 438.819 221.171C439.149 221.169 439.53 221.094 439.96 220.946L440.451 222.75C440.065 222.902 439.663 223.004 439.246 223.054C438.833 223.094 438.425 223.09 438.022 223.043C437.618 222.996 437.237 222.905 436.876 222.772Z" fill="#8C4100"/>
<path d="M51 338C51 324.193 62.1929 313 76 313H99C112.807 313 124 324.193 124 338V338C124 351.807 112.807 363 99 363H76C62.1929 363 51 351.807 51 338V338Z" fill="#0079B4"/>
<path d="M79.304 344.16C78.6 344.16 77.9653 343.968 77.4 343.584C76.8347 343.2 76.3867 342.677 76.056 342.016C75.7253 341.355 75.56 340.597 75.56 339.744C75.56 338.891 75.7253 338.139 76.056 337.488C76.3973 336.827 76.856 336.309 77.432 335.936C78.008 335.552 78.664 335.36 79.4 335.36C79.816 335.36 80.1947 335.424 80.536 335.552C80.888 335.669 81.192 335.835 81.448 336.048C81.7147 336.261 81.9387 336.507 82.12 336.784C82.3013 337.061 82.4293 337.36 82.504 337.68L82.024 337.6V335.536H84.28V344H81.992V341.968L82.504 341.92C82.4187 342.219 82.28 342.501 82.088 342.768C81.896 343.035 81.656 343.275 81.368 343.488C81.0907 343.691 80.776 343.856 80.424 343.984C80.072 344.101 79.6987 344.16 79.304 344.16ZM79.928 342.192C80.3547 342.192 80.728 342.091 81.048 341.888C81.368 341.685 81.6133 341.403 81.784 341.04C81.9653 340.667 82.056 340.235 82.056 339.744C82.056 339.264 81.9653 338.843 81.784 338.48C81.6133 338.117 81.368 337.835 81.048 337.632C80.728 337.419 80.3547 337.312 79.928 337.312C79.512 337.312 79.144 337.419 78.824 337.632C78.5147 337.835 78.2693 338.117 78.088 338.48C77.9067 338.843 77.816 339.264 77.816 339.744C77.816 340.235 77.9067 340.667 78.088 341.04C78.2693 341.403 78.5147 341.685 78.824 341.888C79.144 342.091 79.512 342.192 79.928 342.192ZM86.5579 344V335.536H88.7499L88.8299 338.256L88.4459 337.696C88.5739 337.259 88.7819 336.864 89.0699 336.512C89.3579 336.149 89.6939 335.867 90.0779 335.664C90.4725 335.461 90.8832 335.36 91.3099 335.36C91.4912 335.36 91.6672 335.376 91.8379 335.408C92.0085 335.44 92.1525 335.477 92.2699 335.52L91.6619 338.016C91.5339 337.952 91.3792 337.899 91.1979 337.856C91.0165 337.803 90.8299 337.776 90.6379 337.776C90.3819 337.776 90.1419 337.824 89.9179 337.92C89.7045 338.005 89.5179 338.133 89.3579 338.304C89.1979 338.464 89.0699 338.656 88.9739 338.88C88.8885 339.104 88.8459 339.349 88.8459 339.616V344H86.5579ZM94.702 344V333.392H96.974V344H94.702ZM93.118 337.568V335.536H98.702V337.568H93.118Z" fill="white"/>
<path d="M191.301 183.001C189.478 169.315 199.095 156.742 212.781 154.919L300.011 143.301C313.697 141.478 326.27 151.095 328.093 164.781V164.781C329.916 178.467 320.298 191.04 306.612 192.863L219.383 204.481C205.696 206.304 193.124 196.687 191.301 183.001V183.001Z" fill="#00A56D"/>
<path d="M217.818 185.522L216.417 175.007L218.669 174.707L220.07 185.222L217.818 185.522ZM215.398 179.355L215.13 177.341L220.665 176.604L220.933 178.618L215.398 179.355ZM227.175 184.437C226.266 184.558 225.448 184.479 224.722 184.199C223.996 183.919 223.4 183.482 222.933 182.888C222.467 182.293 222.178 181.578 222.067 180.743C221.981 180.098 222.008 179.492 222.147 178.925C222.287 178.357 222.521 177.853 222.85 177.411C223.177 176.958 223.585 176.592 224.075 176.311C224.574 176.019 225.13 175.832 225.744 175.75C226.315 175.674 226.857 175.709 227.372 175.856C227.885 175.992 228.341 176.227 228.741 176.561C229.15 176.884 229.483 177.286 229.741 177.768C229.999 178.25 230.157 178.794 230.217 179.399L230.294 180.099L223.553 180.997L223.005 179.666L228.254 178.967L228.039 179.286L227.992 178.937C227.933 178.654 227.803 178.408 227.603 178.198C227.414 177.986 227.183 177.834 226.913 177.741C226.642 177.648 226.348 177.623 226.031 177.665C225.566 177.727 225.181 177.869 224.877 178.093C224.584 178.315 224.376 178.612 224.253 178.983C224.131 179.354 224.102 179.789 224.169 180.286C224.236 180.793 224.4 181.218 224.661 181.56C224.933 181.9 225.278 182.15 225.697 182.31C226.126 182.457 226.61 182.495 227.149 182.423C227.519 182.374 227.85 182.27 228.141 182.113C228.432 181.956 228.733 181.712 229.044 181.38L230.323 182.743C230.053 183.058 229.746 183.336 229.401 183.576C229.055 183.805 228.692 183.993 228.314 184.14C227.935 184.287 227.556 184.386 227.175 184.437ZM236.135 183.244C235.331 183.351 234.587 183.256 233.902 182.96C233.217 182.664 232.646 182.213 232.188 181.606C231.741 180.999 231.462 180.277 231.351 179.442C231.241 178.617 231.322 177.853 231.595 177.15C231.876 176.434 232.309 175.844 232.892 175.379C233.476 174.914 234.17 174.628 234.973 174.521C235.724 174.421 236.429 174.467 237.09 174.658C237.75 174.85 238.287 175.166 238.701 175.606L237.663 177.262C237.488 177.08 237.279 176.925 237.036 176.796C236.791 176.657 236.53 176.557 236.253 176.497C235.987 176.436 235.716 176.423 235.441 176.46C235.008 176.518 234.636 176.675 234.326 176.931C234.025 177.176 233.803 177.491 233.661 177.875C233.518 178.26 233.478 178.685 233.54 179.15C233.6 179.605 233.75 180 233.988 180.334C234.235 180.656 234.543 180.905 234.911 181.082C235.277 181.249 235.672 181.304 236.095 181.247C236.37 181.211 236.624 181.139 236.857 181.033C237.089 180.916 237.3 180.764 237.491 180.577C237.692 180.389 237.867 180.172 238.017 179.926L239.437 181.254C239.138 181.757 238.691 182.193 238.094 182.563C237.496 182.922 236.843 183.149 236.135 183.244ZM241.062 182.426L239.499 170.69L241.719 170.394L242.393 175.453L241.974 175.703C242.04 175.307 242.2 174.935 242.456 174.589C242.72 174.231 243.051 173.929 243.449 173.682C243.846 173.436 244.277 173.281 244.743 173.219C245.377 173.135 245.923 173.191 246.379 173.389C246.847 173.585 247.221 173.928 247.501 174.418C247.791 174.896 247.986 175.51 248.086 176.261L248.77 181.399L246.518 181.699L245.857 176.735C245.806 176.355 245.711 176.044 245.571 175.805C245.432 175.565 245.243 175.402 245.006 175.315C244.777 175.216 244.506 175.199 244.192 175.262C243.938 175.296 243.706 175.37 243.495 175.484C243.293 175.586 243.123 175.722 242.984 175.891C242.856 176.059 242.757 176.244 242.687 176.447C242.628 176.649 242.613 176.861 242.642 177.083L243.314 182.126L242.204 182.274C241.961 182.306 241.744 182.335 241.554 182.361C241.363 182.386 241.199 182.408 241.062 182.426ZM250.928 181.112L249.811 172.722L251.967 172.435L252.259 174.139L251.84 174.389C251.906 173.992 252.066 173.621 252.322 173.275C252.586 172.917 252.917 172.615 253.315 172.368C253.712 172.122 254.143 171.967 254.609 171.905C255.243 171.821 255.789 171.877 256.245 172.075C256.713 172.271 257.087 172.614 257.367 173.104C257.657 173.582 257.852 174.196 257.952 174.947L258.636 180.085L256.384 180.385L255.723 175.421C255.672 175.04 255.577 174.73 255.437 174.491C255.298 174.251 255.109 174.088 254.872 174.001C254.643 173.902 254.372 173.885 254.058 173.948C253.804 173.982 253.572 174.056 253.361 174.17C253.159 174.272 252.989 174.408 252.85 174.577C252.722 174.745 252.623 174.93 252.553 175.133C252.494 175.335 252.479 175.546 252.508 175.768L253.18 180.812L252.07 180.96C251.827 180.992 251.61 181.021 251.42 181.046C251.229 181.072 251.065 181.094 250.928 181.112ZM264.717 179.437C263.86 179.551 263.069 179.468 262.343 179.188C261.626 178.896 261.029 178.448 260.55 177.845C260.082 177.24 259.792 176.515 259.679 175.669C259.566 174.823 259.657 174.052 259.952 173.357C260.256 172.649 260.716 172.06 261.331 171.591C261.957 171.12 262.698 170.828 263.555 170.714C264.401 170.601 265.182 170.691 265.899 170.983C266.626 171.273 267.224 171.721 267.692 172.326C268.158 172.92 268.448 173.64 268.561 174.486C268.673 175.332 268.583 176.108 268.29 176.814C267.996 177.52 267.537 178.109 266.911 178.58C266.294 179.038 265.563 179.324 264.717 179.437ZM264.455 177.47C264.867 177.415 265.224 177.265 265.525 177.021C265.824 176.766 266.04 176.447 266.172 176.063C266.313 175.668 266.353 175.243 266.293 174.788C266.231 174.323 266.081 173.923 265.842 173.589C265.613 173.243 265.322 172.991 264.967 172.834C264.611 172.666 264.227 172.61 263.815 172.665C263.392 172.721 263.03 172.877 262.731 173.132C262.431 173.387 262.21 173.707 262.068 174.092C261.925 174.477 261.89 174.901 261.963 175.365C262.013 175.821 262.158 176.221 262.397 176.566C262.636 176.9 262.933 177.151 263.289 177.319C263.643 177.476 264.032 177.526 264.455 177.47ZM270.831 178.461L269.268 166.725L271.52 166.425L273.083 178.161L270.831 178.461ZM279.136 177.516C278.28 177.63 277.489 177.547 276.763 177.267C276.046 176.975 275.448 176.528 274.97 175.924C274.502 175.32 274.211 174.594 274.099 173.748C273.986 172.902 274.077 172.132 274.372 171.436C274.676 170.728 275.135 170.14 275.751 169.67C276.377 169.2 277.118 168.907 277.974 168.793C278.82 168.681 279.602 168.77 280.318 169.062C281.046 169.353 281.643 169.8 282.111 170.405C282.578 170.999 282.868 171.719 282.98 172.565C283.093 173.411 283.003 174.187 282.709 174.894C282.416 175.6 281.956 176.188 281.33 176.659C280.713 177.118 279.982 177.404 279.136 177.516ZM278.874 175.55C279.287 175.495 279.643 175.345 279.944 175.1C280.244 174.845 280.46 174.526 280.592 174.143C280.733 173.747 280.773 173.322 280.712 172.867C280.65 172.402 280.5 172.003 280.262 171.668C280.033 171.322 279.741 171.071 279.387 170.913C279.031 170.746 278.647 170.689 278.234 170.744C277.811 170.8 277.45 170.956 277.15 171.211C276.851 171.466 276.63 171.786 276.487 172.171C276.345 172.556 276.31 172.98 276.382 173.444C276.432 173.9 276.577 174.301 276.817 174.645C277.055 174.979 277.352 175.23 277.708 175.398C278.063 175.555 278.451 175.606 278.874 175.55ZM289.543 179.681C288.876 179.77 288.207 179.757 287.536 179.642C286.865 179.537 286.309 179.359 285.866 179.106L286.444 177.382C286.675 177.502 286.936 177.602 287.226 177.682C287.517 177.761 287.814 177.813 288.119 177.837C288.434 177.86 288.75 177.85 289.067 177.808C289.617 177.734 290.055 177.59 290.381 177.374C290.718 177.157 290.954 176.868 291.089 176.505C291.225 176.154 291.258 175.719 291.189 175.201L290.995 173.741L291.386 173.77C291.369 174.127 291.238 174.473 290.992 174.807C290.744 175.131 290.416 175.411 290.006 175.649C289.595 175.876 289.162 176.019 288.708 176.08C287.925 176.184 287.209 176.097 286.558 175.817C285.908 175.538 285.366 175.105 284.932 174.517C284.499 173.929 284.227 173.222 284.117 172.398C284.005 171.552 284.075 170.784 284.327 170.094C284.589 169.392 284.991 168.816 285.534 168.367C286.086 167.907 286.742 167.625 287.504 167.524C287.821 167.482 288.127 167.479 288.422 167.515C288.728 167.549 289.012 167.619 289.273 167.724C289.544 167.817 289.786 167.936 289.999 168.079C290.221 168.211 290.408 168.364 290.56 168.537C290.712 168.711 290.817 168.891 290.874 169.077L290.431 169.265L290.239 167.337L292.396 167.05L293.429 174.805C293.52 175.493 293.501 176.114 293.37 176.669C293.24 177.225 293.003 177.708 292.66 178.12C292.328 178.541 291.895 178.884 291.36 179.149C290.836 179.412 290.23 179.59 289.543 179.681ZM288.879 174.217C289.323 174.158 289.696 174.006 289.997 173.761C290.309 173.515 290.53 173.201 290.662 172.817C290.794 172.434 290.828 171.999 290.763 171.513C290.699 171.037 290.554 170.631 290.326 170.296C290.097 169.949 289.8 169.699 289.435 169.543C289.08 169.385 288.681 169.336 288.237 169.396C287.804 169.453 287.432 169.61 287.122 169.867C286.821 170.111 286.604 170.425 286.472 170.809C286.34 171.192 286.306 171.622 286.37 172.098C286.433 172.574 286.579 172.985 286.808 173.331C287.036 173.666 287.327 173.913 287.681 174.07C288.046 174.226 288.446 174.275 288.879 174.217ZM297.41 178.633L298.676 174.074L298.881 175.371L293.587 166.891L296.14 166.551L298.83 171.116C298.939 171.284 299.046 171.485 299.153 171.719C299.268 171.94 299.367 172.158 299.45 172.373L299.09 172.583C299.13 172.394 299.176 172.178 299.23 171.934C299.284 171.691 299.335 171.431 299.384 171.155L300.486 165.972L303.055 165.63L300.652 174.489L299.694 178.329L297.41 178.633Z" fill="white"/>
<rect x="9.92432" y="207.667" width="456" height="100" rx="50" transform="rotate(5.25356 9.92432 207.667)" fill="#F45B7D"/>
<path d="M54.9453 274.068L56.9964 251.762L66.4604 252.632C67.7776 252.754 68.9379 253.182 69.9415 253.917C70.9683 254.632 71.7399 255.56 72.2563 256.7C72.794 257.842 73.0004 259.093 72.8753 260.453C72.7484 261.833 72.3154 263.047 71.5766 264.093C70.8589 265.141 69.9281 265.945 68.7841 266.503C67.6633 267.043 66.4444 267.252 65.1273 267.131L60.443 266.701L59.7252 274.508L54.9453 274.068ZM60.7749 262.393L64.9811 262.78C65.491 262.826 65.9594 262.741 66.3865 262.523C66.8155 262.284 67.1674 261.952 67.4421 261.528C67.738 261.105 67.9124 260.607 67.9651 260.033C68.0179 259.46 67.9363 258.949 67.7204 258.5C67.5278 258.033 67.2404 257.664 66.8582 257.393C66.478 257.101 66.033 256.931 65.5232 256.884L61.3169 256.498L60.7749 262.393ZM75.1265 275.924L76.6764 259.067L81.042 259.468L80.7033 264.9L80.041 263.714C80.376 262.867 80.8626 262.119 81.5006 261.471C82.1406 260.801 82.8615 260.3 83.6634 259.966C84.4866 259.635 85.323 259.508 86.1728 259.587C86.5339 259.62 86.8815 259.684 87.2155 259.779C87.5496 259.874 87.8295 259.975 88.0554 260.081L86.3874 264.941C86.1442 264.79 85.8459 264.655 85.4926 264.537C85.1412 264.398 84.7744 264.31 84.392 264.275C83.8821 264.228 83.3953 264.28 82.9316 264.43C82.4911 264.561 82.0959 264.782 81.746 265.092C81.3981 265.382 81.108 265.741 80.8758 266.169C80.6648 266.6 80.5349 267.08 80.4861 267.612L79.6832 276.343L75.1265 275.924ZM96.1927 278.182C94.4719 278.024 92.9659 277.511 91.6747 276.642C90.4067 275.754 89.4402 274.616 88.7753 273.226C88.1316 271.839 87.8879 270.295 88.0442 268.596C88.2005 266.896 88.7206 265.434 89.6045 264.208C90.5116 262.963 91.6695 262.02 93.0782 261.378C94.5081 260.739 96.0834 260.498 97.8042 260.656C99.5037 260.812 100.987 261.334 102.255 262.222C103.545 263.112 104.511 264.251 105.155 265.638C105.801 267.004 106.045 268.537 105.889 270.237C105.733 271.936 105.212 273.409 104.326 274.656C103.44 275.903 102.282 276.846 100.852 277.486C99.4453 278.106 97.8922 278.338 96.1927 278.182ZM96.556 274.231C97.3845 274.307 98.1466 274.174 98.8423 273.83C99.5399 273.466 100.102 272.939 100.53 272.25C100.981 271.542 101.248 270.731 101.332 269.818C101.418 268.883 101.303 268.037 100.987 267.279C100.694 266.503 100.237 265.882 99.6158 265.418C98.9963 264.933 98.2723 264.652 97.4438 264.576C96.594 264.497 95.8204 264.64 95.1227 265.005C94.4251 265.369 93.8519 265.895 93.4031 266.582C92.9543 267.269 92.6975 268.081 92.6328 269.018C92.5276 269.929 92.632 270.774 92.946 271.553C93.262 272.31 93.7297 272.932 94.3492 273.417C94.9706 273.882 95.7062 274.153 96.556 274.231ZM106.224 285.403L104.858 281.742C105.771 281.826 106.516 281.766 107.092 281.562C107.667 281.358 108.1 280.969 108.388 280.396C108.696 279.846 108.893 279.093 108.981 278.137L110.449 262.172L114.974 262.588L113.407 279.636C113.278 281.038 112.905 282.182 112.288 283.068C111.692 283.956 110.883 284.6 109.861 284.998C108.839 285.397 107.626 285.532 106.224 285.403ZM113.127 258.916C112.256 258.836 111.595 258.561 111.146 258.091C110.696 257.621 110.508 256.993 110.58 256.207C110.646 255.485 110.944 254.923 111.474 254.522C112.027 254.101 112.728 253.93 113.578 254.008C114.449 254.089 115.108 254.374 115.556 254.865C116.005 255.335 116.195 255.952 116.125 256.717C116.056 257.461 115.747 258.032 115.196 258.431C114.666 258.832 113.976 258.994 113.127 258.916ZM126.008 280.924C124.181 280.756 122.622 280.237 121.331 279.369C120.04 278.5 119.071 277.383 118.426 276.017C117.78 274.651 117.534 273.128 117.689 271.45C117.808 270.154 118.13 268.984 118.654 267.94C119.179 266.895 119.859 266.015 120.696 265.3C121.535 264.563 122.495 264.03 123.575 263.701C124.678 263.352 125.846 263.234 127.078 263.348C128.225 263.453 129.268 263.763 130.206 264.278C131.146 264.772 131.931 265.433 132.562 266.262C133.216 267.072 133.687 268.005 133.976 269.059C134.265 270.114 134.332 271.245 134.178 272.452L134.017 273.851L120.474 272.606L119.996 269.766L130.544 270.736L129.981 271.263L130.046 270.562C130.056 269.984 129.913 269.446 129.616 268.948C129.34 268.451 128.959 268.052 128.473 267.75C127.986 267.448 127.424 267.268 126.787 267.209C125.852 267.123 125.039 267.231 124.347 267.531C123.677 267.834 123.139 268.32 122.735 268.99C122.331 269.66 122.083 270.494 121.991 271.492C121.897 272.512 122.028 273.413 122.385 274.196C122.763 274.98 123.325 275.621 124.072 276.118C124.842 276.596 125.769 276.885 126.852 276.984C127.596 277.053 128.286 276.998 128.924 276.821C129.562 276.644 130.257 276.301 131.011 275.792L132.9 279.019C132.233 279.514 131.51 279.919 130.731 280.233C129.954 280.526 129.164 280.732 128.361 280.851C127.557 280.97 126.773 280.994 126.008 280.924ZM144.01 282.579C142.396 282.43 140.986 281.915 139.782 281.033C138.578 280.151 137.664 279.018 137.042 277.632C136.441 276.249 136.217 274.718 136.372 273.039C136.524 271.382 137.022 269.929 137.865 268.678C138.732 267.408 139.838 266.449 141.183 265.802C142.527 265.154 144.007 264.904 145.622 265.053C147.13 265.192 148.485 265.595 149.688 266.262C150.891 266.93 151.798 267.784 152.409 268.826L149.648 271.593C149.387 271.162 149.049 270.767 148.632 270.407C148.217 270.026 147.753 269.716 147.24 269.476C146.747 269.238 146.225 269.093 145.673 269.042C144.802 268.962 144.007 269.103 143.288 269.466C142.592 269.809 142.02 270.324 141.571 271.011C141.122 271.698 140.855 272.509 140.769 273.444C140.685 274.357 140.801 275.193 141.117 275.95C141.456 276.688 141.945 277.312 142.584 277.82C143.225 278.308 143.97 278.59 144.82 278.669C145.372 278.719 145.899 278.693 146.402 278.589C146.906 278.464 147.385 278.262 147.839 277.982C148.315 277.705 148.753 277.359 149.156 276.946L151.334 280.167C150.527 281.014 149.461 281.666 148.133 282.123C146.808 282.558 145.434 282.71 144.01 282.579ZM155.606 283.324L157.549 262.197L162.074 262.613L160.131 283.74L155.606 283.324ZM153.63 270.224L154.002 266.177L165.123 267.199L164.751 271.246L153.63 270.224ZM166.564 277.23L166.951 273.023L177.371 273.981L176.984 278.188L166.564 277.23ZM189.935 286.802C189.192 286.733 188.479 286.561 187.798 286.284C187.116 286.007 186.505 285.662 185.965 285.248C185.426 284.813 184.987 284.344 184.648 283.841C184.311 283.317 184.112 282.796 184.053 282.276L185.108 281.987L184.521 285.918L180.251 285.526L182.414 262.009L186.939 262.425L185.957 273.1L185.129 272.67C185.303 272.172 185.593 271.706 185.997 271.272C186.403 270.816 186.899 270.434 187.484 270.123C188.072 269.792 188.704 269.55 189.382 269.398C190.061 269.246 190.75 269.202 191.451 269.267C192.917 269.402 194.188 269.904 195.265 270.774C196.344 271.623 197.152 272.737 197.689 274.114C198.248 275.494 198.449 277.034 198.293 278.733C198.137 280.433 197.669 281.911 196.889 283.167C196.11 284.424 195.111 285.382 193.894 286.041C192.699 286.681 191.38 286.935 189.935 286.802ZM189.206 282.846C190.056 282.925 190.808 282.79 191.461 282.443C192.137 282.077 192.689 281.549 193.117 280.86C193.546 280.15 193.806 279.306 193.896 278.329C193.984 277.373 193.881 276.506 193.588 275.73C193.317 274.955 192.881 274.336 192.281 273.874C191.681 273.412 190.956 273.142 190.106 273.064C189.256 272.986 188.494 273.119 187.82 273.464C187.145 273.809 186.593 274.337 186.164 275.047C185.734 275.757 185.475 276.59 185.388 277.546C185.298 278.524 185.399 279.401 185.692 280.177C185.987 280.933 186.433 281.552 187.031 282.036C187.632 282.498 188.357 282.768 189.206 282.846ZM207.22 288.391C205.817 288.262 204.589 287.763 203.533 286.895C202.477 286.027 201.681 284.904 201.143 283.526C200.606 282.149 200.415 280.61 200.572 278.91C200.728 277.211 201.195 275.744 201.973 274.508C202.774 273.254 203.782 272.307 204.997 271.669C206.215 271.01 207.556 270.748 209.022 270.883C209.851 270.959 210.593 271.156 211.25 271.473C211.929 271.771 212.504 272.156 212.975 272.628C213.467 273.102 213.868 273.631 214.179 274.217C214.489 274.802 214.689 275.42 214.779 276.071L213.838 275.824L214.216 271.714L218.709 272.127L217.159 288.984L212.602 288.565L212.974 284.518L214.003 284.516C213.778 285.095 213.45 285.633 213.019 286.129C212.588 286.624 212.066 287.059 211.453 287.431C210.864 287.783 210.207 288.055 209.482 288.246C208.76 288.415 208.006 288.463 207.22 288.391ZM208.823 284.586C209.672 284.664 210.435 284.531 211.109 284.185C211.783 283.84 212.324 283.322 212.73 282.631C213.16 281.921 213.419 281.077 213.509 280.1C213.597 279.144 213.494 278.288 213.199 277.533C212.925 276.779 212.489 276.171 211.888 275.709C211.29 275.226 210.566 274.945 209.716 274.867C208.888 274.791 208.135 274.936 207.459 275.302C206.806 275.649 206.265 276.167 205.838 276.856C205.41 277.545 205.153 278.368 205.065 279.324C204.975 280.301 205.076 281.178 205.369 281.955C205.664 282.71 206.101 283.318 206.68 283.778C207.28 284.24 207.994 284.51 208.823 284.586ZM227.338 290.241C225.766 290.096 224.388 289.713 223.202 289.089C222.04 288.447 221.13 287.635 220.47 286.653L223.497 284.489C224.091 285.251 224.777 285.828 225.555 286.221C226.335 286.592 227.129 286.815 227.936 286.89C228.254 286.919 228.544 286.913 228.805 286.873C229.089 286.813 229.332 286.729 229.535 286.619C229.74 286.488 229.894 286.331 229.996 286.147C230.122 285.944 230.196 285.726 230.217 285.493C230.26 285.025 230.103 284.636 229.746 284.325C229.544 284.199 229.226 284.041 228.794 283.851C228.363 283.64 227.806 283.407 227.123 283.151C226.065 282.776 225.17 282.372 224.438 281.941C223.73 281.49 223.174 281.01 222.771 280.502C222.43 280.021 222.176 279.515 222.011 278.986C221.868 278.437 221.826 277.844 221.885 277.207C221.955 276.442 222.189 275.767 222.585 275.182C222.984 274.576 223.501 274.078 224.137 273.686C224.794 273.297 225.526 273.021 226.334 272.86C227.143 272.677 227.983 272.626 228.854 272.706C229.725 272.786 230.565 272.971 231.374 273.259C232.183 273.548 232.92 273.926 233.584 274.394C234.271 274.843 234.855 275.357 235.338 275.937L232.67 278.391C232.321 277.995 231.915 277.626 231.454 277.283C231.014 276.943 230.547 276.664 230.053 276.448C229.559 276.231 229.11 276.104 228.706 276.067C228.345 276.033 228.013 276.035 227.709 276.071C227.427 276.11 227.185 276.184 226.982 276.294C226.779 276.404 226.615 276.56 226.489 276.763C226.386 276.946 226.324 277.154 226.303 277.388C226.281 277.622 226.314 277.85 226.401 278.072C226.509 278.296 226.662 278.492 226.861 278.661C227.083 278.81 227.409 278.989 227.839 279.2C228.291 279.413 228.9 279.662 229.667 279.947C230.661 280.317 231.493 280.704 232.163 281.108C232.854 281.515 233.391 281.96 233.775 282.446C234.101 282.861 234.327 283.321 234.452 283.825C234.577 284.33 234.612 284.879 234.557 285.474C234.462 286.515 234.078 287.422 233.407 288.196C232.759 288.951 231.904 289.515 230.841 289.888C229.781 290.241 228.613 290.358 227.338 290.241ZM245.286 291.891C243.459 291.723 241.9 291.205 240.609 290.336C239.318 289.468 238.349 288.351 237.704 286.984C237.058 285.618 236.812 284.096 236.967 282.418C237.086 281.122 237.408 279.952 237.932 278.907C238.457 277.863 239.137 276.983 239.974 276.267C240.813 275.53 241.773 274.997 242.853 274.668C243.956 274.32 245.124 274.202 246.356 274.315C247.503 274.421 248.546 274.731 249.484 275.246C250.424 275.739 251.209 276.401 251.84 277.23C252.494 278.04 252.965 278.972 253.254 280.027C253.543 281.082 253.61 282.213 253.456 283.42L253.295 284.819L239.753 283.574L239.275 280.734L249.822 281.704L249.259 282.23L249.324 281.529C249.334 280.952 249.191 280.414 248.894 279.915C248.618 279.419 248.237 279.019 247.751 278.718C247.264 278.416 246.703 278.236 246.065 278.177C245.13 278.091 244.317 278.198 243.625 278.499C242.955 278.801 242.418 279.288 242.013 279.957C241.609 280.627 241.361 281.461 241.269 282.46C241.175 283.479 241.307 284.381 241.663 285.163C242.041 285.948 242.603 286.589 243.35 287.086C244.12 287.564 245.047 287.852 246.13 287.952C246.874 288.02 247.565 287.966 248.202 287.789C248.84 287.612 249.535 287.269 250.289 286.76L252.178 289.986C251.511 290.482 250.788 290.887 250.009 291.201C249.233 291.494 248.442 291.699 247.639 291.818C246.835 291.937 246.051 291.962 245.286 291.891ZM262.555 293.479C261.09 293.344 259.807 292.851 258.707 292.001C257.609 291.128 256.779 290.013 256.218 288.655C255.681 287.277 255.491 285.728 255.65 284.007C255.804 282.329 256.271 280.861 257.051 279.605C257.852 278.35 258.861 277.393 260.078 276.734C261.317 276.077 262.68 275.816 264.167 275.953C264.953 276.025 265.695 276.222 266.394 276.543C267.116 276.846 267.745 277.235 268.279 277.713C268.835 278.193 269.269 278.714 269.581 279.279C269.895 279.822 270.047 280.382 270.037 280.96L268.872 281.045L269.883 270.052L274.408 270.468L272.24 294.048L267.97 293.656L268.136 289.75L269.02 289.928C268.928 290.455 268.69 290.948 268.305 291.405C267.921 291.862 267.423 292.266 266.812 292.617C266.225 292.949 265.559 293.198 264.815 293.366C264.095 293.514 263.341 293.551 262.555 293.479ZM263.921 289.813C264.771 289.891 265.534 289.747 266.21 289.381C266.886 289.014 267.439 288.476 267.869 287.766C268.298 287.055 268.559 286.201 268.651 285.202C268.741 284.225 268.639 283.348 268.346 282.572C268.056 281.774 267.61 281.143 267.01 280.681C266.412 280.198 265.688 279.917 264.838 279.839C263.988 279.761 263.225 279.905 262.549 280.271C261.896 280.618 261.353 281.157 260.922 281.889C260.513 282.601 260.264 283.446 260.175 284.423C260.083 285.422 260.173 286.308 260.444 287.083C260.737 287.86 261.172 288.489 261.749 288.97C262.347 289.454 263.071 289.735 263.921 289.813ZM296.813 296.629C295.178 296.479 293.695 296.064 292.365 295.385C291.058 294.686 289.941 293.78 289.015 292.666C288.113 291.534 287.45 290.241 287.026 288.788C286.605 287.314 286.471 285.738 286.625 284.06C286.776 282.424 287.201 280.942 287.902 279.614C288.604 278.264 289.523 277.128 290.658 276.204C291.794 275.258 293.09 274.564 294.545 274.119C296 273.674 297.545 273.527 299.181 273.678C300.243 273.775 301.27 274.02 302.263 274.411C303.278 274.783 304.185 275.284 304.984 275.914C305.805 276.547 306.488 277.274 307.033 278.095L303.733 281.134C303.27 280.577 302.779 280.093 302.26 279.681C301.764 279.249 301.217 278.91 300.618 278.662C300.043 278.395 299.416 278.23 298.736 278.168C297.822 278.084 296.946 278.174 296.108 278.44C295.291 278.708 294.556 279.122 293.905 279.684C293.255 280.224 292.71 280.913 292.269 281.751C291.851 282.569 291.594 283.499 291.498 284.54C291.4 285.602 291.481 286.584 291.741 287.486C292.003 288.367 292.414 289.144 292.973 289.817C293.534 290.468 294.224 291.003 295.043 291.421C295.884 291.82 296.826 292.067 297.867 292.163C298.547 292.225 299.214 292.19 299.869 292.058C300.524 291.925 301.132 291.713 301.695 291.422C302.278 291.133 302.803 290.785 303.269 290.378L305.252 294.32C304.69 294.847 303.951 295.304 303.037 295.691C302.145 296.08 301.155 296.364 300.067 296.543C298.981 296.7 297.897 296.729 296.813 296.629ZM316.202 298.412C314.481 298.254 312.975 297.74 311.684 296.872C310.416 295.984 309.45 294.845 308.785 293.456C308.141 292.069 307.897 290.525 308.054 288.826C308.21 287.126 308.73 285.664 309.614 284.438C310.521 283.193 311.679 282.25 313.088 281.608C314.518 280.968 316.093 280.728 317.814 280.886C319.513 281.042 320.997 281.564 322.265 282.452C323.554 283.342 324.521 284.48 325.164 285.868C325.81 287.234 326.055 288.767 325.898 290.466C325.742 292.166 325.221 293.639 324.335 294.886C323.449 296.133 322.291 297.076 320.861 297.716C319.455 298.336 317.902 298.568 316.202 298.412ZM316.565 294.461C317.394 294.537 318.156 294.403 318.852 294.06C319.549 293.696 320.112 293.169 320.539 292.48C320.99 291.772 321.258 290.961 321.342 290.047C321.427 289.113 321.312 288.267 320.997 287.509C320.704 286.732 320.247 286.112 319.625 285.648C319.006 285.162 318.282 284.882 317.453 284.805C316.603 284.727 315.83 284.87 315.132 285.235C314.435 285.599 313.861 286.125 313.412 286.812C312.964 287.499 312.707 288.311 312.642 289.247C312.537 290.159 312.641 291.004 312.955 291.783C313.271 292.54 313.739 293.162 314.359 293.647C314.98 294.111 315.716 294.382 316.565 294.461ZM334.296 300.076C333.064 299.962 332.027 299.599 331.183 298.986C330.363 298.354 329.754 297.516 329.358 296.472C328.984 295.41 328.863 294.167 328.994 292.743L329.949 282.355L334.474 282.771L333.586 292.427C333.516 293.191 333.581 293.872 333.784 294.469C333.988 295.045 334.31 295.503 334.75 295.843C335.19 296.184 335.75 296.385 336.43 296.448C336.918 296.493 337.382 296.46 337.82 296.351C338.261 296.22 338.643 296.019 338.968 295.749C339.293 295.479 339.559 295.15 339.766 294.762C339.973 294.374 340.098 293.947 340.141 293.479L341.07 283.378L345.595 283.794L344.045 300.651L339.743 300.255L339.903 296.767L340.767 296.461C340.439 297.224 339.949 297.896 339.296 298.479C338.642 299.061 337.885 299.495 337.023 299.78C336.161 300.065 335.252 300.164 334.296 300.076ZM348.598 301.069L350.148 284.212L354.513 284.614L354.175 290.046L353.512 288.86C353.847 288.013 354.334 287.265 354.972 286.616C355.612 285.947 356.333 285.445 357.135 285.112C357.958 284.781 358.794 284.654 359.644 284.732C360.005 284.765 360.353 284.829 360.687 284.924C361.021 285.019 361.301 285.12 361.527 285.227L359.859 290.086C359.616 289.935 359.317 289.801 358.964 289.683C358.613 289.543 358.246 289.456 357.863 289.421C357.353 289.374 356.867 289.426 356.403 289.576C355.963 289.707 355.567 289.927 355.217 290.238C354.869 290.527 354.579 290.886 354.347 291.315C354.136 291.745 354.006 292.226 353.957 292.757L353.155 301.488L348.598 301.069ZM368.213 303.194C366.641 303.05 365.262 302.666 364.077 302.043C362.915 301.4 362.004 300.588 361.345 299.606L364.371 297.442C364.966 298.204 365.652 298.781 366.43 299.174C367.209 299.546 368.003 299.769 368.81 299.843C369.129 299.872 369.419 299.867 369.679 299.826C369.963 299.767 370.207 299.682 370.41 299.572C370.615 299.441 370.768 299.284 370.871 299.1C370.997 298.898 371.07 298.68 371.092 298.446C371.135 297.979 370.978 297.589 370.621 297.278C370.418 297.152 370.101 296.994 369.668 296.805C369.238 296.594 368.681 296.36 367.997 296.105C366.939 295.729 366.044 295.325 365.313 294.894C364.604 294.443 364.049 293.964 363.645 293.455C363.304 292.974 363.051 292.469 362.885 291.939C362.743 291.391 362.701 290.798 362.759 290.16C362.83 289.395 363.063 288.721 363.46 288.136C363.858 287.53 364.375 287.031 365.011 286.64C365.668 286.25 366.401 285.975 367.208 285.813C368.018 285.631 368.858 285.579 369.729 285.659C370.6 285.74 371.44 285.924 372.249 286.213C373.058 286.501 373.794 286.879 374.458 287.348C375.145 287.796 375.73 288.311 376.212 288.891L373.544 291.345C373.195 290.948 372.79 290.579 372.329 290.237C371.889 289.896 371.422 289.618 370.927 289.401C370.433 289.184 369.984 289.057 369.581 289.02C369.219 288.987 368.887 288.988 368.584 289.025C368.302 289.063 368.059 289.137 367.856 289.247C367.654 289.357 367.489 289.513 367.363 289.716C367.261 289.899 367.199 290.108 367.177 290.342C367.156 290.575 367.189 290.803 367.275 291.025C367.383 291.249 367.536 291.446 367.735 291.614C367.957 291.763 368.283 291.943 368.714 292.154C369.166 292.367 369.775 292.616 370.541 292.9C371.536 293.27 372.368 293.657 373.037 294.062C373.728 294.468 374.266 294.914 374.65 295.399C374.976 295.815 375.201 296.274 375.326 296.779C375.451 297.283 375.486 297.832 375.432 298.427C375.336 299.468 374.953 300.376 374.282 301.149C373.634 301.904 372.779 302.468 371.716 302.842C370.655 303.194 369.488 303.312 368.213 303.194ZM386.161 304.845C384.334 304.677 382.775 304.158 381.483 303.29C380.192 302.421 379.224 301.304 378.578 299.938C377.933 298.572 377.687 297.049 377.841 295.371C377.96 294.075 378.282 292.905 378.807 291.861C379.331 290.816 380.012 289.936 380.849 289.221C381.688 288.484 382.647 287.951 383.727 287.621C384.831 287.273 385.998 287.155 387.23 287.269C388.378 287.374 389.42 287.684 390.358 288.199C391.299 288.693 392.084 289.354 392.715 290.183C393.369 290.993 393.84 291.925 394.129 292.98C394.417 294.035 394.485 295.166 394.331 296.373L394.17 297.772L380.627 296.527L380.149 293.687L390.697 294.657L390.134 295.184L390.198 294.483C390.209 293.905 390.065 293.367 389.768 292.869C389.493 292.372 389.112 291.973 388.625 291.671C388.139 291.369 387.577 291.189 386.94 291.13C386.005 291.044 385.192 291.152 384.5 291.452C383.829 291.755 383.292 292.241 382.888 292.911C382.483 293.581 382.235 294.415 382.143 295.413C382.05 296.433 382.181 297.334 382.538 298.117C382.915 298.901 383.478 299.542 384.225 300.039C384.995 300.517 385.922 300.806 387.005 300.905C387.748 300.974 388.439 300.919 389.077 300.742C389.714 300.565 390.41 300.222 391.164 299.713L393.052 302.94C392.385 303.435 391.662 303.84 390.884 304.154C390.107 304.447 389.317 304.653 388.513 304.772C387.71 304.891 386.925 304.915 386.161 304.845ZM402.506 306.348C400.934 306.203 399.555 305.819 398.37 305.196C397.208 304.554 396.297 303.741 395.637 302.76L398.664 300.596C399.258 301.357 399.944 301.934 400.722 302.327C401.502 302.699 402.296 302.922 403.103 302.996C403.422 303.025 403.711 303.02 403.972 302.98C404.256 302.92 404.5 302.835 404.703 302.725C404.907 302.594 405.061 302.437 405.164 302.254C405.29 302.051 405.363 301.833 405.385 301.599C405.428 301.132 405.271 300.742 404.914 300.431C404.711 300.305 404.393 300.148 403.961 299.958C403.53 299.747 402.973 299.514 402.29 299.258C401.232 298.882 400.337 298.479 399.606 298.047C398.897 297.596 398.341 297.117 397.938 296.608C397.597 296.127 397.343 295.622 397.178 295.092C397.036 294.544 396.994 293.951 397.052 293.313C397.123 292.549 397.356 291.874 397.753 291.289C398.151 290.683 398.668 290.184 399.304 289.793C399.961 289.403 400.693 289.128 401.501 288.967C402.31 288.784 403.151 288.733 404.022 288.813C404.893 288.893 405.733 289.077 406.542 289.366C407.351 289.654 408.087 290.033 408.751 290.501C409.438 290.95 410.023 291.464 410.505 292.044L407.837 294.498C407.488 294.102 407.083 293.732 406.621 293.39C406.181 293.05 405.714 292.771 405.22 292.554C404.726 292.337 404.277 292.21 403.873 292.173C403.512 292.14 403.18 292.142 402.877 292.178C402.595 292.216 402.352 292.29 402.149 292.4C401.946 292.51 401.782 292.666 401.656 292.869C401.554 293.053 401.492 293.261 401.47 293.495C401.449 293.728 401.481 293.956 401.568 294.179C401.676 294.403 401.829 294.599 402.028 294.767C402.25 294.916 402.576 295.096 403.007 295.307C403.458 295.52 404.068 295.769 404.834 296.053C405.828 296.423 406.66 296.811 407.33 297.215C408.021 297.621 408.559 298.067 408.943 298.552C409.269 298.968 409.494 299.428 409.619 299.932C409.744 300.436 409.779 300.986 409.725 301.58C409.629 302.621 409.245 303.529 408.574 304.303C407.927 305.057 407.071 305.621 406.009 305.995C404.948 306.347 403.78 306.465 402.506 306.348Z" fill="white"/>
<path d="M257.289 74.895C258.553 61.1459 270.724 51.0249 284.473 52.2891L368.12 59.9804C381.869 61.2446 391.99 73.4154 390.726 87.1645V87.1645C389.462 100.914 377.291 111.035 363.542 109.77L279.895 102.079C266.146 100.815 256.025 88.6441 257.289 74.895V74.895Z" fill="#FDDA42"/>
<path d="M281.754 83.1699L282.529 74.7415L284.712 74.9422L284.612 76.5558L284.271 76.5887C284.413 76.3233 284.59 76.0879 284.802 75.8824C285.014 75.6769 285.254 75.5062 285.524 75.3703C285.804 75.2354 286.092 75.1387 286.386 75.0801C286.682 75.0108 286.973 74.9894 287.26 75.0158C287.695 75.0558 288.082 75.161 288.42 75.3313C288.758 75.5016 289.035 75.7467 289.252 76.0666C289.47 76.3759 289.626 76.7758 289.72 77.2665L289.372 77.2024L289.507 76.9577C289.669 76.7155 289.865 76.5033 290.096 76.321C290.328 76.1281 290.584 75.9695 290.863 75.8452C291.143 75.7103 291.431 75.6135 291.725 75.5549C292.02 75.4963 292.305 75.4797 292.581 75.5051C293.24 75.5657 293.775 75.7487 294.186 76.0543C294.598 76.3493 294.886 76.7668 295.051 77.3068C295.226 77.8478 295.279 78.4953 295.21 79.2495L294.739 84.3639L292.477 84.1559L292.932 79.2008C292.968 78.8184 292.943 78.5002 292.86 78.2461C292.776 77.992 292.638 77.7973 292.447 77.6619C292.257 77.5159 292.003 77.4282 291.684 77.3989C291.44 77.3764 291.208 77.3979 290.987 77.4634C290.779 77.5192 290.588 77.6141 290.415 77.7481C290.253 77.8726 290.121 78.0265 290.019 78.2098C289.916 78.3932 289.854 78.6017 289.833 78.8354L289.37 83.8702L287.107 83.6622L287.565 78.6911C287.597 78.3406 287.566 78.0378 287.471 77.7828C287.389 77.5181 287.252 77.3127 287.062 77.1667C286.872 77.0207 286.628 76.934 286.331 76.9067C286.086 76.8842 285.854 76.9057 285.634 76.9711C285.425 77.0269 285.24 77.1223 285.077 77.2574C284.916 77.3818 284.779 77.5352 284.666 77.7176C284.563 77.901 284.501 78.1042 284.481 78.3272L284.017 83.3779L281.754 83.1699ZM300.878 85.089C299.965 85.005 299.185 84.7459 298.54 84.3116C297.894 83.8774 297.41 83.3187 297.087 82.6356C296.764 81.9525 296.641 81.1914 296.718 80.3523C296.778 79.7043 296.939 79.1193 297.201 78.5971C297.463 78.0749 297.804 77.6349 298.222 77.277C298.642 76.9086 299.122 76.6421 299.662 76.4775C300.213 76.3032 300.797 76.2445 301.413 76.3011C301.987 76.3538 302.508 76.5089 302.977 76.7663C303.447 77.013 303.84 77.3437 304.155 77.7583C304.482 78.1633 304.718 78.6295 304.862 79.1569C305.006 79.6843 305.04 80.2498 304.963 80.8533L304.883 81.5529L298.111 80.9302L297.872 79.5104L303.146 79.9953L302.865 80.2587L302.897 79.9081C302.902 79.6194 302.83 79.3504 302.682 79.1011C302.544 78.8527 302.354 78.6531 302.11 78.5022C301.867 78.3513 301.586 78.2612 301.268 78.2319C300.8 78.1889 300.394 78.2426 300.048 78.3929C299.713 78.5442 299.444 78.7872 299.242 79.1221C299.039 79.457 298.915 79.8741 298.87 80.3733C298.823 80.8832 298.888 81.3337 299.067 81.725C299.255 82.1173 299.537 82.4377 299.91 82.6863C300.295 82.9252 300.759 83.0696 301.3 83.1194C301.672 83.1536 302.017 83.1264 302.336 83.0379C302.655 82.9494 303.003 82.7779 303.38 82.5233L304.324 84.1365C303.99 84.3844 303.629 84.5868 303.24 84.7438C302.851 84.8902 302.456 84.9931 302.054 85.0526C301.653 85.1121 301.261 85.1242 300.878 85.089ZM307.042 85.4951L308.013 74.9317L310.276 75.1397L309.304 85.7032L307.042 85.4951ZM306.053 78.9451L306.24 76.9216L311.8 77.4329L311.614 79.4564L306.053 78.9451ZM315.562 86.4392C314.861 86.3748 314.247 86.1254 313.719 85.6913C313.191 85.2571 312.793 84.6957 312.524 84.0068C312.255 83.318 312.16 82.5487 312.238 81.699C312.316 80.8492 312.55 80.1155 312.939 79.4978C313.339 78.8705 313.843 78.3974 314.451 78.0784C315.06 77.7487 315.73 77.6176 316.463 77.685C316.878 77.7231 317.249 77.8215 317.577 77.9802C317.917 78.1293 318.204 78.3217 318.44 78.5576C318.686 78.7945 318.886 79.0593 319.042 79.352C319.197 79.6448 319.297 79.9539 319.342 80.2794L318.871 80.1558L319.06 78.1005L321.307 78.3071L320.532 86.7355L318.253 86.526L318.439 84.5025L318.954 84.5016C318.841 84.7912 318.677 85.06 318.462 85.308C318.246 85.5559 317.985 85.773 317.679 85.959C317.384 86.1354 317.056 86.2713 316.693 86.3665C316.332 86.4511 315.955 86.4754 315.562 86.4392ZM316.364 84.5366C316.788 84.5757 317.169 84.509 317.507 84.3364C317.844 84.1639 318.114 83.9049 318.317 83.5594C318.532 83.2042 318.662 82.7824 318.707 82.2937C318.751 81.8158 318.699 81.3879 318.552 81.0102C318.415 80.6334 318.196 80.3294 317.896 80.0983C317.597 79.8566 317.235 79.7162 316.81 79.6771C316.396 79.639 316.02 79.7115 315.682 79.8947C315.355 80.0682 315.085 80.3272 314.871 80.6717C314.657 81.0163 314.529 81.4275 314.485 81.9055C314.44 82.3941 314.49 82.8326 314.637 83.221C314.784 83.5987 315.003 83.9027 315.292 84.1328C315.592 84.3639 315.949 84.4985 316.364 84.5366ZM330.507 87.8134C329.721 87.7411 329.032 87.5492 328.439 87.2376C327.858 86.9164 327.403 86.5104 327.073 86.0194L328.586 84.9375C328.883 85.3183 329.226 85.6069 329.615 85.8033C330.005 85.9891 330.402 86.1006 330.806 86.1377C330.965 86.1524 331.11 86.1496 331.24 86.1295C331.382 86.0997 331.504 86.0573 331.605 86.0024C331.708 85.9368 331.785 85.8582 331.836 85.7665C331.899 85.6652 331.936 85.5561 331.946 85.4392C331.968 85.2056 331.889 85.0109 331.711 84.8552C331.61 84.7923 331.451 84.7135 331.235 84.6186C331.019 84.5131 330.741 84.3965 330.399 84.2686C329.87 84.0807 329.423 83.8789 329.057 83.6632C328.703 83.4378 328.425 83.198 328.223 82.9438C328.053 82.7032 327.926 82.4505 327.843 82.1859C327.772 81.9115 327.751 81.615 327.78 81.2964C327.815 80.914 327.932 80.5766 328.13 80.2842C328.33 79.9811 328.588 79.7318 328.906 79.5361C329.235 79.3413 329.601 79.2036 330.005 79.1229C330.409 79.0316 330.83 79.0059 331.265 79.046C331.701 79.086 332.12 79.1782 332.525 79.3225C332.929 79.4668 333.298 79.656 333.63 79.89C333.973 80.1144 334.266 80.3716 334.507 80.6616L333.173 81.8886C332.998 81.6904 332.796 81.5058 332.565 81.3346C332.345 81.1644 332.111 81.0251 331.864 80.9167C331.617 80.8083 331.393 80.7448 331.191 80.7262C331.01 80.7096 330.844 80.7104 330.693 80.7286C330.552 80.7478 330.43 80.7849 330.329 80.8398C330.227 80.8947 330.145 80.9729 330.082 81.0742C330.031 81.1659 330 81.2702 329.989 81.387C329.979 81.5038 329.995 81.6178 330.038 81.7289C330.092 81.841 330.169 81.9391 330.268 82.0232C330.379 82.0977 330.542 82.1877 330.758 82.2932C330.983 82.3996 331.288 82.524 331.671 82.6664C332.168 82.8513 332.584 83.0449 332.919 83.2471C333.265 83.4503 333.534 83.6731 333.725 83.9157C333.888 84.1235 334.001 84.3535 334.064 84.6056C334.126 84.8577 334.144 85.1325 334.116 85.4299C334.069 85.9504 333.877 86.404 333.541 86.791C333.218 87.1682 332.79 87.4502 332.259 87.637C331.728 87.8132 331.144 87.872 330.507 87.8134ZM337.88 85.776L337.383 83.8503L341.736 80.1856L344.716 80.4595L337.88 85.776ZM335.496 88.1115L336.581 76.3212L338.843 76.5293L337.759 88.3195L335.496 88.1115ZM341.2 88.636L338.523 84.5497L340.234 83.4216L343.925 88.8865L341.2 88.636ZM345.366 89.019L346.141 80.5905L348.403 80.7986L347.628 89.227L345.366 89.019ZM347.416 78.9564C346.98 78.9164 346.65 78.7789 346.425 78.544C346.2 78.3091 346.106 77.9951 346.142 77.6021C346.175 77.241 346.324 76.9601 346.589 76.7595C346.866 76.5493 347.216 76.4637 347.641 76.5028C348.077 76.5428 348.406 76.6856 348.63 76.9311C348.855 77.166 348.95 77.4746 348.915 77.857C348.88 78.2288 348.726 78.5145 348.45 78.7141C348.185 78.9147 347.84 78.9955 347.416 78.9564ZM350.06 89.4507L351.145 77.6604L353.407 77.8684L352.323 89.6587L350.06 89.4507ZM354.635 89.8713L355.719 78.081L357.981 78.289L356.897 90.0793L354.635 89.8713ZM362.015 90.7105C361.229 90.6383 360.539 90.4463 359.947 90.1348C359.366 89.8135 358.91 89.4075 358.581 88.9166L360.094 87.8346C360.391 88.2154 360.734 88.504 361.123 88.7004C361.513 88.8863 361.91 88.9977 362.313 89.0348C362.473 89.0495 362.618 89.0467 362.748 89.0266C362.89 88.9968 363.012 88.9544 363.113 88.8995C363.216 88.8339 363.292 88.7553 363.344 88.6636C363.407 88.5623 363.443 88.4532 363.454 88.3364C363.476 88.1027 363.397 87.908 363.219 87.7523C363.117 87.6895 362.959 87.6106 362.742 87.5157C362.527 87.4103 362.249 87.2936 361.907 87.1658C361.378 86.9779 360.93 86.7761 360.565 86.5603C360.21 86.3349 359.933 86.0952 359.731 85.841C359.56 85.6003 359.434 85.3477 359.351 85.083C359.28 84.8086 359.259 84.5121 359.288 84.1935C359.323 83.8111 359.44 83.4737 359.638 83.1813C359.837 82.8783 360.096 82.6289 360.414 82.4332C360.742 82.2385 361.109 82.1007 361.512 82.02C361.917 81.9287 362.337 81.9031 362.773 81.9431C363.208 81.9832 363.628 82.0753 364.033 82.2196C364.437 82.3639 364.805 82.5531 365.137 82.7872C365.481 83.0116 365.773 83.2688 366.014 83.5587L364.68 84.7857C364.506 84.5876 364.303 84.4029 364.073 84.2317C363.853 84.0616 363.619 83.9222 363.372 83.8138C363.125 83.7054 362.9 83.6419 362.699 83.6234C362.518 83.6068 362.352 83.6076 362.2 83.6258C362.059 83.6449 361.938 83.682 361.837 83.7369C361.735 83.7919 361.653 83.87 361.59 83.9713C361.539 84.063 361.508 84.1673 361.497 84.2841C361.486 84.401 361.503 84.5149 361.546 84.626C361.6 84.7381 361.677 84.8362 361.776 84.9203C361.887 84.9948 362.05 85.0848 362.265 85.1903C362.491 85.2967 362.796 85.4212 363.179 85.5635C363.676 85.7485 364.092 85.942 364.427 86.1442C364.773 86.3474 365.041 86.5703 365.233 86.8129C365.396 87.0206 365.509 87.2506 365.571 87.5027C365.634 87.7548 365.652 88.0296 365.624 88.327C365.576 88.8475 365.385 89.3012 365.049 89.6881C364.725 90.0653 364.298 90.3474 363.766 90.5342C363.236 90.7103 362.652 90.7691 362.015 90.7105Z" fill="black"/>
<path d="M66.8983 46.3945C65.2976 32.6805 75.1174 20.2655 88.8314 18.6648L223.914 2.89825C237.628 1.29758 250.043 11.1174 251.644 24.8314V24.8314C253.245 38.5454 243.425 50.9604 229.711 52.5611L94.628 68.3277C80.914 69.9284 68.4989 60.1086 66.8983 46.3945V46.3945Z" fill="#33BCFD"/>
<path d="M96.5679 49.1334C95.6567 49.2397 94.8405 49.147 94.1191 48.8554C93.3978 48.5637 92.8087 48.117 92.3519 47.5152C91.895 46.9135 91.6178 46.1941 91.5201 45.3571C91.4446 44.7108 91.4813 44.1051 91.6302 43.5401C91.779 42.975 92.0212 42.4742 92.3569 42.0377C92.6913 41.5906 93.1057 41.2308 93.6001 40.9583C94.1039 40.674 94.663 40.4959 95.2775 40.4242C95.8496 40.3574 96.3918 40.4016 96.9038 40.5566C97.4147 40.701 97.8672 40.9435 98.2613 41.2841C98.6648 41.6129 98.9916 42.0204 99.2417 42.5067C99.4917 42.993 99.6414 43.5393 99.6907 44.1457L99.7564 44.8468L93.0023 45.6351L92.4754 44.2952L97.7357 43.6812L97.5148 43.9969L97.474 43.6473C97.4194 43.3637 97.2938 43.1153 97.097 42.902C96.9109 42.6875 96.6833 42.5315 96.4142 42.434C96.1451 42.3365 95.8516 42.3064 95.5338 42.3435C95.0676 42.3979 94.6808 42.5343 94.3734 42.7527C94.0766 42.97 93.8638 43.2633 93.7351 43.6327C93.6064 44.0021 93.5711 44.4358 93.6292 44.9337C93.6886 45.4423 93.8458 45.8696 94.101 46.2157C94.3668 46.5605 94.708 46.816 95.1248 46.9822C95.5509 47.1365 96.0341 47.1821 96.5744 47.119C96.9452 47.0757 97.2775 46.9779 97.5711 46.8255C97.8647 46.6731 98.1697 46.4335 98.4859 46.1066L99.7428 47.4902C99.4677 47.8015 99.1559 48.0742 98.8073 48.3082C98.4575 48.5316 98.0922 48.7138 97.7113 48.8549C97.3304 48.996 96.9493 49.0888 96.5679 49.1334ZM101.872 48.3532L100.891 39.9462L103.052 39.694L103.316 41.4029L102.893 41.6455C102.965 41.2505 103.132 40.8821 103.393 40.5402C103.663 40.1865 103.999 39.8896 104.4 39.6494C104.802 39.4092 105.236 39.2619 105.702 39.2075C106.337 39.1333 106.882 39.1986 107.335 39.4035C107.8 39.607 108.168 39.956 108.44 40.4504C108.722 40.933 108.907 41.5504 108.995 42.3026L109.596 47.4517L107.339 47.7151L106.759 42.7408C106.714 42.3594 106.624 42.0478 106.488 41.8059C106.353 41.564 106.167 41.3977 105.931 41.3071C105.704 41.2047 105.433 41.1827 105.118 41.241C104.863 41.2706 104.63 41.3408 104.417 41.4516C104.214 41.5505 104.042 41.6834 103.9 41.8502C103.769 42.0159 103.667 42.1996 103.594 42.4014C103.531 42.602 103.513 42.8136 103.539 43.0361L104.129 48.0898L103.016 48.2196C102.773 48.2481 102.556 48.2734 102.365 48.2957C102.174 48.3179 102.01 48.3371 101.872 48.3532ZM112.569 47.1047L111.339 36.5682L113.596 36.3048L114.825 46.8413L112.569 47.1047ZM110.25 40.8997L110.014 38.8814L115.561 38.234L115.796 40.2523L110.25 40.8997ZM118.013 46.4693L117.031 38.0624L119.209 37.8082L119.603 40.5006L119.157 39.9889C119.234 39.5397 119.394 39.1236 119.64 38.7406C119.884 38.3469 120.185 38.0272 120.543 37.7814C120.911 37.5344 121.307 37.3861 121.731 37.3366C121.911 37.3156 122.088 37.3111 122.261 37.3231C122.434 37.3351 122.582 37.3555 122.703 37.3843L122.388 39.9339C122.254 39.8852 122.094 39.8502 121.909 39.8288C121.723 39.7968 121.534 39.792 121.344 39.8143C121.089 39.8439 120.856 39.9194 120.645 40.0408C120.443 40.1502 120.273 40.299 120.133 40.4871C119.993 40.6646 119.888 40.8701 119.819 41.1037C119.76 41.3361 119.746 41.5847 119.777 41.8496L120.285 46.204L118.013 46.4693ZM128.631 45.391C127.72 45.4973 126.904 45.4046 126.183 45.113C125.461 44.8213 124.872 44.3746 124.415 43.7728C123.959 43.1711 123.681 42.4517 123.584 41.6147C123.508 40.9684 123.545 40.3627 123.694 39.7977C123.843 39.2326 124.085 38.7318 124.42 38.2953C124.755 37.8482 125.169 37.4884 125.664 37.2159C126.167 36.9316 126.727 36.7536 127.341 36.6818C127.913 36.6151 128.455 36.6592 128.967 36.8142C129.478 36.9586 129.931 37.2011 130.325 37.5417C130.728 37.8705 131.055 38.278 131.305 38.7643C131.555 39.2506 131.705 39.7969 131.754 40.4033L131.82 41.1044L125.066 41.8927L124.539 40.5528L129.799 39.9388L129.578 40.2546L129.538 39.9049C129.483 39.6213 129.357 39.3729 129.161 39.1596C128.975 38.9451 128.747 38.7891 128.478 38.6916C128.209 38.5942 127.915 38.564 127.597 38.6011C127.131 38.6555 126.744 38.7919 126.437 39.0104C126.14 39.2276 125.927 39.5209 125.799 39.8903C125.67 40.2597 125.635 40.6934 125.693 41.1913C125.752 41.6999 125.909 42.1272 126.165 42.4733C126.43 42.8181 126.772 43.0736 127.188 43.2398C127.614 43.3941 128.098 43.4397 128.638 43.3766C129.009 43.3333 129.341 43.2355 129.635 43.0831C129.928 42.9307 130.233 42.6911 130.55 42.3642L131.806 43.7478C131.531 44.0591 131.219 44.3318 130.871 44.5658C130.521 44.7892 130.156 44.9714 129.775 45.1125C129.394 45.2536 129.013 45.3464 128.631 45.391ZM134.344 48.107L132.955 36.2038L135.132 35.9497L135.416 37.8335L134.986 37.7387C135.021 37.391 135.164 37.0574 135.417 36.738C135.68 36.4173 136.019 36.1415 136.432 35.9107C136.845 35.6799 137.29 35.5367 137.767 35.481C138.498 35.3957 139.167 35.511 139.773 35.8269C140.388 36.1309 140.898 36.5922 141.304 37.2107C141.718 37.8174 141.975 38.5446 142.074 39.3922C142.171 40.2291 142.094 40.9952 141.843 41.6904C141.591 42.3857 141.201 42.9573 140.673 43.4055C140.145 43.8431 139.515 44.1046 138.784 44.1899C138.296 44.2468 137.82 44.2112 137.354 44.083C136.897 43.943 136.497 43.7373 136.154 43.4659C135.811 43.1945 135.582 42.8883 135.467 42.5474L135.965 42.2637L136.616 47.8418L134.344 48.107ZM138.049 42.3104C138.462 42.2622 138.816 42.1189 139.11 41.8805C139.405 41.6421 139.621 41.3323 139.759 40.951C139.896 40.5592 139.936 40.1249 139.881 39.6481C139.825 39.1714 139.686 38.7634 139.464 38.4242C139.242 38.085 138.96 37.8333 138.619 37.6691C138.288 37.5036 137.911 37.4457 137.487 37.4951C137.063 37.5446 136.704 37.6885 136.41 37.9269C136.114 38.1547 135.898 38.4645 135.761 38.8564C135.623 39.2376 135.582 39.6666 135.637 40.1434C135.693 40.6201 135.833 41.0334 136.056 41.3832C136.278 41.7224 136.56 41.9741 136.901 42.1383C137.242 42.3025 137.625 42.3599 138.049 42.3104ZM144.272 43.4044L143.291 34.9974L145.468 34.7433L145.863 37.4357L145.416 36.924C145.493 36.4748 145.654 36.0587 145.899 35.6756C146.143 35.282 146.444 34.9623 146.802 34.7165C147.17 34.4694 147.566 34.3212 147.99 34.2717C148.17 34.2507 148.347 34.2462 148.52 34.2582C148.693 34.2702 148.841 34.2906 148.962 34.3193L148.648 36.869C148.513 36.8203 148.353 36.7852 148.168 36.7639C147.982 36.7319 147.794 36.7271 147.603 36.7493C147.349 36.779 147.116 36.8545 146.904 36.9758C146.702 37.0853 146.532 37.2341 146.393 37.4222C146.252 37.5996 146.147 37.8052 146.078 38.0388C146.019 38.2712 146.005 38.5198 146.036 38.7847L146.544 43.1391L144.272 43.4044ZM154.891 42.326C153.98 42.4324 153.163 42.3397 152.442 42.0481C151.721 41.7564 151.132 41.3097 150.675 40.7079C150.218 40.1061 149.941 39.3868 149.843 38.5498C149.767 37.9035 149.804 37.2978 149.953 36.7328C150.102 36.1677 150.344 35.6669 150.68 35.2304C151.014 34.7833 151.429 34.4235 151.923 34.151C152.427 33.8667 152.986 33.6886 153.6 33.6169C154.172 33.5501 154.715 33.5943 155.227 33.7493C155.738 33.8937 156.19 34.1362 156.584 34.4768C156.988 34.8056 157.314 35.2131 157.565 35.6994C157.815 36.1857 157.964 36.732 158.014 37.3384L158.079 38.0395L151.325 38.8278L150.798 37.4879L156.059 36.8739L155.838 37.1896L155.797 36.84C155.742 36.5564 155.617 36.308 155.42 36.0947C155.234 35.8801 155.006 35.7241 154.737 35.6267C154.468 35.5292 154.174 35.4991 153.857 35.5361C153.39 35.5906 153.004 35.727 152.696 35.9454C152.399 36.1626 152.187 36.456 152.058 36.8254C151.929 37.1948 151.894 37.6285 151.952 38.1264C152.011 38.635 152.169 39.0623 152.424 39.4084C152.69 39.7532 153.031 40.0087 153.448 40.1748C153.874 40.3292 154.357 40.3748 154.897 40.3117C155.268 40.2684 155.6 40.1706 155.894 40.0182C156.188 39.8658 156.493 39.6261 156.809 39.2993L158.066 40.6829C157.791 40.9942 157.479 41.2669 157.13 41.5009C156.78 41.7243 156.415 41.9065 156.034 42.0476C155.653 42.1887 155.272 42.2815 154.891 42.326ZM160.195 41.5458L159.214 33.1389L161.375 32.8867L161.639 34.5956L161.216 34.8382C161.288 34.4432 161.455 34.0748 161.716 33.7329C161.986 33.3792 162.322 33.0823 162.723 32.8421C163.125 32.6019 163.558 32.4546 164.025 32.4002C164.66 32.326 165.205 32.3913 165.658 32.5961C166.122 32.7997 166.491 33.1487 166.763 33.6431C167.045 34.1257 167.23 34.7431 167.318 35.4953L167.919 40.6444L165.662 40.9078L165.081 35.9335C165.037 35.5521 164.947 35.2405 164.811 34.9986C164.675 34.7566 164.49 34.5904 164.254 34.4998C164.027 34.3974 163.756 34.3754 163.44 34.4337C163.186 34.4633 162.953 34.5335 162.74 34.6443C162.537 34.7432 162.364 34.876 162.223 35.0429C162.092 35.2086 161.99 35.3923 161.917 35.5941C161.854 35.7947 161.836 36.0063 161.862 36.2288L162.452 41.2825L161.339 41.4123C161.096 41.4407 160.878 41.4661 160.688 41.4883C160.497 41.5106 160.333 41.5298 160.195 41.5458ZM174.089 40.0853C173.177 40.1917 172.361 40.099 171.64 39.8073C170.918 39.5157 170.329 39.0689 169.872 38.4672C169.416 37.8654 169.138 37.146 169.041 36.3091C168.965 35.6628 169.002 35.0571 169.151 34.492C169.3 33.927 169.542 33.4262 169.878 32.9897C170.212 32.5425 170.626 32.1827 171.121 31.9102C171.625 31.6259 172.184 31.4479 172.798 31.3762C173.37 31.3094 173.912 31.3535 174.424 31.5085C174.935 31.653 175.388 31.8955 175.782 32.2361C176.185 32.5648 176.512 32.9724 176.762 33.4587C177.012 33.945 177.162 34.4913 177.211 35.0977L177.277 35.7988L170.523 36.5871L169.996 35.2471L175.256 34.6332L175.035 34.9489L174.995 34.5993C174.94 34.3157 174.814 34.0673 174.618 33.854C174.432 33.6394 174.204 33.4834 173.935 33.386C173.666 33.2885 173.372 33.2583 173.054 33.2954C172.588 33.3498 172.201 33.4863 171.894 33.7047C171.597 33.9219 171.384 34.2152 171.256 34.5846C171.127 34.954 171.092 35.3877 171.15 35.8857C171.209 36.3942 171.366 36.8215 171.622 37.1676C171.887 37.5125 172.229 37.768 172.645 37.9341C173.071 38.0884 173.555 38.134 174.095 38.071C174.466 38.0277 174.798 37.9299 175.092 37.7775C175.385 37.6251 175.69 37.3854 176.007 37.0586L177.263 38.4422C176.988 38.7535 176.677 39.0261 176.328 39.2601C175.978 39.4835 175.613 39.6658 175.232 39.8069C174.851 39.948 174.47 40.0408 174.089 40.0853ZM182.304 39.1265C181.689 39.1982 181.144 39.1276 180.668 38.9146C180.202 38.6899 179.817 38.3427 179.516 37.8732C179.223 37.3919 179.036 36.7963 178.953 36.0864L178.348 30.9056L180.605 30.6422L181.167 35.4575C181.211 35.8389 181.314 36.1653 181.474 36.4365C181.634 36.6971 181.838 36.888 182.089 37.0091C182.339 37.1302 182.634 37.171 182.973 37.1314C183.217 37.103 183.44 37.0393 183.643 36.9404C183.845 36.8309 184.012 36.6934 184.143 36.5277C184.274 36.3621 184.37 36.1737 184.431 35.9625C184.493 35.7513 184.51 35.5291 184.482 35.2961L183.894 30.2583L186.151 29.9949L187.132 38.4018L184.987 38.6522L184.705 36.9292L185.096 36.6903C185.015 37.0971 184.844 37.4768 184.585 37.8293C184.325 38.1817 183.999 38.4721 183.607 38.7005C183.215 38.9288 182.781 39.0708 182.304 39.1265ZM189.403 38.1368L188.422 29.7298L190.599 29.4757L190.994 32.1681L190.547 31.6564C190.624 31.2072 190.785 30.791 191.03 30.408C191.274 30.0144 191.575 29.6947 191.933 29.4489C192.301 29.2018 192.698 29.0536 193.121 29.0041C193.301 28.9831 193.478 28.9786 193.651 28.9906C193.825 29.0026 193.972 29.023 194.093 29.0517L193.779 31.6014C193.644 31.5527 193.484 31.5176 193.299 31.4963C193.113 31.4643 192.925 31.4595 192.734 31.4817C192.48 31.5114 192.247 31.5869 192.035 31.7082C191.833 31.8177 191.663 31.9665 191.524 32.1546C191.383 32.332 191.279 32.5376 191.209 32.7712C191.15 33.0036 191.136 33.2522 191.167 33.5171L191.676 37.8715L189.403 38.1368ZM199.219 37.1522C198.435 37.2437 197.721 37.1982 197.076 37.0156C196.442 36.8212 195.912 36.5179 195.488 36.1056L196.746 34.7346C197.115 35.0459 197.51 35.2575 197.931 35.3694C198.351 35.4707 198.762 35.4979 199.165 35.4509C199.324 35.4324 199.465 35.3998 199.589 35.3532C199.721 35.2947 199.832 35.2281 199.92 35.1534C200.006 35.0681 200.065 34.9753 200.097 34.875C200.137 34.7629 200.151 34.6486 200.137 34.532C200.11 34.299 199.993 34.1247 199.786 34.0092C199.674 33.9686 199.502 33.9242 199.271 33.876C199.039 33.8172 198.742 33.7605 198.382 33.706C197.825 33.6313 197.346 33.5262 196.943 33.3906C196.55 33.2432 196.229 33.0659 195.979 32.8588C195.762 32.6586 195.586 32.4375 195.451 32.1956C195.324 31.9419 195.243 31.6561 195.206 31.3382C195.161 30.9568 195.206 30.6026 195.339 30.2756C195.472 29.9379 195.673 29.6406 195.944 29.3834C196.225 29.1251 196.555 28.9148 196.933 28.7525C197.311 28.5796 197.716 28.4678 198.151 28.4171C198.585 28.3664 199.015 28.3699 199.441 28.4276C199.866 28.4853 200.266 28.5944 200.639 28.7549C201.021 28.9036 201.36 29.0949 201.656 29.3289L200.604 30.8048C200.392 30.6469 200.156 30.508 199.895 30.3882C199.645 30.267 199.387 30.1789 199.123 30.1239C198.859 30.0688 198.626 30.053 198.425 30.0765C198.245 30.0975 198.083 30.1326 197.938 30.1817C197.804 30.2295 197.693 30.2908 197.605 30.3655C197.517 30.4402 197.453 30.5336 197.412 30.6457C197.381 30.746 197.372 30.8545 197.386 30.971C197.399 31.0875 197.439 31.1957 197.504 31.2955C197.58 31.394 197.675 31.4741 197.79 31.5359C197.914 31.5859 198.092 31.6403 198.324 31.6991C198.567 31.7566 198.891 31.8155 199.295 31.8757C199.82 31.9541 200.267 32.0576 200.637 32.1863C201.017 32.3138 201.325 32.4764 201.563 32.6742C201.766 32.8439 201.923 33.0456 202.037 33.2794C202.15 33.5132 202.224 33.7784 202.258 34.075C202.319 34.5942 202.225 35.0777 201.977 35.5255C201.738 35.9615 201.377 36.3257 200.896 36.6181C200.413 36.9 199.854 37.078 199.219 37.1522ZM204.162 36.4141L202.79 24.6539L205.014 24.3942L205.606 29.4638L205.183 29.7065C205.255 29.3115 205.422 28.943 205.683 28.6011C205.953 28.2474 206.289 27.9505 206.69 27.7103C207.092 27.4702 207.526 27.3229 207.992 27.2685C208.627 27.1943 209.172 27.2596 209.625 27.4644C210.09 27.668 210.458 28.017 210.73 28.5114C211.012 28.9939 211.197 29.6113 211.285 30.3636L211.886 35.5126L209.629 35.776L209.048 30.8018C209.004 30.4204 208.914 30.1087 208.778 29.8668C208.643 29.6249 208.457 29.4587 208.221 29.3681C207.994 29.2657 207.723 29.2436 207.408 29.3019C207.153 29.3316 206.92 29.4018 206.707 29.5125C206.504 29.6114 206.332 29.7443 206.19 29.9112C206.059 30.0768 205.957 30.2605 205.884 30.4624C205.821 30.663 205.803 30.8745 205.829 31.097L206.419 36.1507L205.306 36.2805C205.063 36.309 204.846 36.3343 204.655 36.3566C204.464 36.3789 204.3 36.398 204.162 36.4141ZM214.239 35.238L213.258 26.831L215.514 26.5676L216.496 34.9746L214.239 35.238ZM214.168 24.969C213.734 25.0197 213.382 24.9533 213.114 24.7698C212.845 24.5864 212.688 24.2986 212.642 23.9066C212.6 23.5464 212.688 23.2408 212.906 22.9899C213.133 22.7271 213.458 22.571 213.882 22.5216C214.317 22.4709 214.669 22.5425 214.938 22.7366C215.207 22.92 215.363 23.2025 215.408 23.5839C215.451 23.9547 215.358 24.2662 215.13 24.5184C214.912 24.7693 214.592 24.9195 214.168 24.969ZM219.314 38.1895L217.925 26.2863L220.102 26.0322L220.386 27.9159L219.956 27.8211C219.991 27.4735 220.134 27.1399 220.387 26.8204C220.65 26.4998 220.989 26.224 221.402 25.9932C221.815 25.7624 222.261 25.6192 222.737 25.5635C223.468 25.4782 224.137 25.5935 224.743 25.9093C225.358 26.2134 225.869 26.6747 226.274 27.2932C226.688 27.8999 226.945 28.6271 227.044 29.4746C227.141 30.3116 227.064 31.0777 226.813 31.7729C226.561 32.4681 226.171 33.0398 225.644 33.488C225.115 33.9256 224.485 34.1871 223.754 34.2724C223.266 34.3293 222.79 34.2936 222.324 34.1655C221.867 34.0255 221.467 33.8198 221.124 33.5484C220.781 33.277 220.552 32.9708 220.437 32.6298L220.935 32.3461L221.586 37.9243L219.314 38.1895ZM223.019 32.3929C223.432 32.3447 223.786 32.2014 224.08 31.963C224.375 31.7246 224.591 31.4148 224.729 31.0335C224.866 30.6417 224.906 30.2074 224.851 29.7306C224.795 29.2538 224.656 28.8459 224.434 28.5067C224.212 28.1675 223.93 27.9158 223.589 27.7516C223.258 27.5861 222.881 27.5281 222.457 27.5776C222.033 27.6271 221.674 27.771 221.38 28.0094C221.084 28.2372 220.868 28.547 220.731 28.9389C220.593 29.3201 220.552 29.7491 220.607 30.2259C220.663 30.7026 220.803 31.1159 221.026 31.4657C221.248 31.8049 221.53 32.0566 221.871 32.2208C222.213 32.385 222.595 32.4424 223.019 32.3929Z" fill="white"/>
<path d="M18.8983 139.018C17.2976 125.304 27.1174 112.889 40.8314 111.288L189.82 93.8983C203.534 92.2976 215.949 102.117 217.55 115.831V115.831C219.15 129.545 209.331 141.96 195.617 143.561L46.628 160.951C32.914 162.551 20.4989 152.732 18.8983 139.018V139.018Z" fill="#2E1562"/>
<path d="M44.8783 142.026L43.5798 130.901L51.0968 130.024L51.3417 132.122L46.1449 132.728L46.9537 139.657L52.2616 139.038L52.5065 141.136L44.8783 142.026ZM45.4472 137.24L45.2098 135.206L50.8515 134.547L51.0889 136.581L45.4472 137.24ZM59.9562 140.266L57.5274 137.537L56.7879 136.722L52.8565 132.573L55.5899 132.254L57.9598 134.893L58.7704 135.765L62.6578 139.951L59.9562 140.266ZM53.8059 140.984L56.6231 136L58.0352 137.333L56.4599 140.674L53.8059 140.984ZM58.7678 136.571L57.3875 135.234L58.816 131.878L61.47 131.568L58.7678 136.571ZM64.4612 143.284L63.0719 131.381L65.2491 131.127L65.5334 133.011L65.1035 132.916C65.1381 132.568 65.2817 132.235 65.5344 131.915C65.7976 131.594 66.136 131.319 66.5493 131.088C66.9627 130.857 67.4077 130.714 67.8845 130.658C68.6155 130.573 69.2841 130.688 69.8901 131.004C70.5055 131.308 71.0158 131.769 71.4209 132.388C71.8353 132.995 72.092 133.722 72.191 134.569C72.2887 135.406 72.2116 136.172 71.9598 136.868C71.7081 137.563 71.3184 138.134 70.7908 138.583C70.262 139.02 69.632 139.282 68.901 139.367C68.4136 139.424 67.937 139.388 67.471 139.26C67.0143 139.12 66.6144 138.914 66.2713 138.643C65.9282 138.372 65.6992 138.065 65.5842 137.725L66.0827 137.441L66.7337 143.019L64.4612 143.284ZM68.1661 137.488C68.5793 137.439 68.9331 137.296 69.2275 137.058C69.5218 136.819 69.738 136.509 69.8761 136.128C70.0129 135.736 70.0535 135.302 69.9979 134.825C69.9422 134.349 69.8033 133.941 69.5812 133.601C69.359 133.262 69.0772 133.01 68.7359 132.846C68.4052 132.681 68.0279 132.623 67.6041 132.672C67.1803 132.722 66.8213 132.866 66.5269 133.104C66.2313 133.332 66.0151 133.642 65.8783 134.034C65.7402 134.415 65.699 134.844 65.7547 135.321C65.8103 135.797 65.9498 136.211 66.1732 136.56C66.3954 136.9 66.6771 137.151 67.0185 137.315C67.3598 137.48 67.7424 137.537 68.1661 137.488ZM78.3966 138.275C77.4855 138.381 76.6693 138.289 75.9479 137.997C75.2266 137.705 74.6375 137.258 74.1806 136.657C73.7238 136.055 73.4465 135.336 73.3488 134.499C73.2734 133.852 73.3101 133.247 73.4589 132.682C73.6077 132.117 73.85 131.616 74.1856 131.179C74.5201 130.732 74.9345 130.372 75.4289 130.1C75.9327 129.815 76.4918 129.637 77.1063 129.566C77.6784 129.499 78.2205 129.543 78.7326 129.698C79.2435 129.842 79.696 130.085 80.0901 130.426C80.4936 130.754 80.8204 131.162 81.0704 131.648C81.3205 132.134 81.4702 132.681 81.5195 133.287L81.5852 133.988L74.8311 134.777L74.3042 133.437L79.5644 132.823L79.3436 133.138L79.3028 132.789C79.2482 132.505 79.1225 132.257 78.9258 132.043C78.7397 131.829 78.5121 131.673 78.2429 131.576C77.9738 131.478 77.6804 131.448 77.3625 131.485C76.8963 131.539 76.5096 131.676 76.2021 131.894C75.9053 132.111 75.6926 132.405 75.5638 132.774C75.4351 133.144 75.3998 133.577 75.458 134.075C75.5173 134.584 75.6746 135.011 75.9298 135.357C76.1955 135.702 76.5368 135.958 76.9535 136.124C77.3796 136.278 77.8628 136.324 78.4032 136.261C78.774 136.217 79.1062 136.119 79.3999 135.967C79.6935 135.815 79.9984 135.575 80.3147 135.248L81.5716 136.632C81.2965 136.943 80.9846 137.216 80.6361 137.45C80.2863 137.673 79.921 137.855 79.5401 137.996C79.1592 138.138 78.7781 138.23 78.3966 138.275ZM83.701 137.495L82.7197 129.088L84.8969 128.834L85.2917 131.526L84.8454 131.014C84.9218 130.565 85.0827 130.149 85.3279 129.766C85.5719 129.372 85.8729 129.053 86.2308 128.807C86.5993 128.56 86.9955 128.411 87.4193 128.362C87.5994 128.341 87.7761 128.336 87.9493 128.348C88.1225 128.36 88.2699 128.381 88.3914 128.41L88.0768 130.959C87.9423 130.911 87.7825 130.876 87.5974 130.854C87.4111 130.822 87.2226 130.817 87.0319 130.84C86.7776 130.869 86.5448 130.945 86.3334 131.066C86.1314 131.176 85.9609 131.324 85.8217 131.512C85.6814 131.69 85.5765 131.895 85.5071 132.129C85.4483 132.361 85.4344 132.61 85.4653 132.875L85.9735 137.229L83.701 137.495ZM90.86 136.659L89.8788 128.252L92.1354 127.989L93.1167 136.396L90.86 136.659ZM90.789 126.39C90.3546 126.441 90.0032 126.374 89.7348 126.191C89.4664 126.007 89.3093 125.72 89.2636 125.328C89.2215 124.968 89.3094 124.662 89.5271 124.411C89.7541 124.148 90.0796 123.992 90.5034 123.943C90.9377 123.892 91.2898 123.964 91.5594 124.158C91.8278 124.341 91.9843 124.624 92.0288 125.005C92.0721 125.376 91.9796 125.687 91.7513 125.939C91.5336 126.19 91.2128 126.341 90.789 126.39ZM99.5344 135.808C98.6233 135.914 97.807 135.821 97.0857 135.53C96.3643 135.238 95.7752 134.791 95.3184 134.19C94.8615 133.588 94.5843 132.868 94.4866 132.031C94.4111 131.385 94.4478 130.779 94.5967 130.214C94.7455 129.649 94.9877 129.149 95.3234 128.712C95.6578 128.265 96.0722 127.905 96.5666 127.633C97.0704 127.348 97.6296 127.17 98.244 127.099C98.8162 127.032 99.3583 127.076 99.8704 127.231C100.381 127.375 100.834 127.618 101.228 127.958C101.631 128.287 101.958 128.695 102.208 129.181C102.458 129.667 102.608 130.214 102.657 130.82L102.723 131.521L95.9688 132.309L95.4419 130.97L100.702 130.356L100.481 130.671L100.441 130.322C100.386 130.038 100.26 129.79 100.064 129.576C99.8774 129.362 99.6498 129.206 99.3807 129.108C99.1116 129.011 98.8181 128.981 98.5003 129.018C98.0341 129.072 97.6473 129.209 97.3399 129.427C97.0431 129.644 96.8303 129.938 96.7016 130.307C96.5729 130.676 96.5376 131.11 96.5957 131.608C96.6551 132.117 96.8123 132.544 97.0675 132.89C97.3333 133.235 97.6745 133.49 98.0913 133.657C98.5174 133.811 99.0006 133.856 99.5409 133.793C99.9117 133.75 100.244 133.652 100.538 133.5C100.831 133.347 101.136 133.108 101.452 132.781L102.709 134.165C102.434 134.476 102.122 134.749 101.774 134.983C101.424 135.206 101.059 135.388 100.678 135.529C100.297 135.67 99.9158 135.763 99.5344 135.808ZM104.839 135.028L103.857 126.621L106.019 126.368L106.283 128.077L105.86 128.32C105.932 127.925 106.098 127.556 106.359 127.215C106.629 126.861 106.965 126.564 107.367 126.324C107.768 126.084 108.202 125.936 108.668 125.882C109.304 125.808 109.849 125.873 110.302 126.078C110.766 126.281 111.134 126.63 111.407 127.125C111.689 127.607 111.874 128.225 111.961 128.977L112.562 134.126L110.306 134.389L109.725 129.415C109.681 129.034 109.59 128.722 109.455 128.48C109.319 128.238 109.133 128.072 108.897 127.981C108.671 127.879 108.399 127.857 108.084 127.915C107.83 127.945 107.596 128.015 107.384 128.126C107.181 128.225 107.008 128.358 106.867 128.525C106.735 128.69 106.633 128.874 106.56 129.076C106.498 129.276 106.48 129.488 106.506 129.71L107.095 134.764L105.983 134.894C105.739 134.922 105.522 134.948 105.331 134.97C105.141 134.992 104.976 135.011 104.839 135.028ZM118.398 133.606C117.593 133.7 116.851 133.593 116.17 133.286C115.49 132.979 114.926 132.518 114.479 131.905C114.042 131.29 113.775 130.564 113.677 129.727C113.581 128.901 113.674 128.138 113.958 127.439C114.251 126.728 114.693 126.145 115.284 125.69C115.875 125.234 116.573 124.959 117.378 124.865C118.131 124.777 118.835 124.835 119.492 125.037C120.15 125.24 120.682 125.564 121.088 126.011L120.023 127.649C119.851 127.465 119.645 127.307 119.404 127.174C119.161 127.03 118.902 126.926 118.626 126.862C118.361 126.796 118.09 126.78 117.815 126.812C117.38 126.862 117.006 127.014 116.692 127.265C116.387 127.505 116.16 127.816 116.011 128.198C115.863 128.581 115.816 129.005 115.87 129.471C115.923 129.927 116.066 130.324 116.299 130.661C116.541 130.988 116.845 131.242 117.21 131.425C117.573 131.597 117.967 131.659 118.391 131.609C118.666 131.577 118.922 131.51 119.157 131.407C119.39 131.294 119.604 131.146 119.797 130.962C120.001 130.777 120.18 130.563 120.335 130.319L121.733 131.67C121.426 132.168 120.971 132.597 120.369 132.957C119.765 133.307 119.108 133.523 118.398 133.606ZM127.346 132.562C126.434 132.668 125.618 132.575 124.897 132.284C124.176 131.992 123.586 131.545 123.13 130.943C122.673 130.342 122.395 129.622 122.298 128.785C122.222 128.139 122.259 127.533 122.408 126.968C122.557 126.403 122.799 125.903 123.135 125.466C123.469 125.019 123.883 124.659 124.378 124.387C124.882 124.102 125.441 123.924 126.055 123.853C126.627 123.786 127.169 123.83 127.682 123.985C128.192 124.129 128.645 124.372 129.039 124.712C129.443 125.041 129.769 125.449 130.019 125.935C130.269 126.421 130.419 126.968 130.468 127.574L130.534 128.275L123.78 129.063L123.253 127.723L128.513 127.109L128.293 127.425L128.252 127.076C128.197 126.792 128.071 126.544 127.875 126.33C127.689 126.116 127.461 125.96 127.192 125.862C126.923 125.765 126.629 125.735 126.311 125.772C125.845 125.826 125.459 125.963 125.151 126.181C124.854 126.398 124.642 126.692 124.513 127.061C124.384 127.43 124.349 127.864 124.407 128.362C124.466 128.871 124.624 129.298 124.879 129.644C125.144 129.989 125.486 130.244 125.902 130.41C126.329 130.565 126.812 130.61 127.352 130.547C127.723 130.504 128.055 130.406 128.349 130.254C128.642 130.101 128.947 129.862 129.264 129.535L130.521 130.918C130.245 131.23 129.934 131.502 129.585 131.736C129.235 131.96 128.87 132.142 128.489 132.283C128.108 132.424 127.727 132.517 127.346 132.562ZM135.958 131.556C135.227 131.642 134.549 131.533 133.923 131.23C133.295 130.917 132.775 130.457 132.36 129.85C131.955 129.231 131.702 128.493 131.602 127.635C131.504 126.798 131.581 126.032 131.833 125.337C132.096 124.64 132.491 124.068 133.018 123.62C133.556 123.17 134.196 122.902 134.938 122.816C135.33 122.77 135.713 122.79 136.089 122.875C136.473 122.948 136.821 123.074 137.131 123.252C137.453 123.43 137.719 123.64 137.93 123.884C138.14 124.117 138.272 124.376 138.327 124.659L137.766 124.821L137.126 119.339L139.382 119.075L140.755 130.835L138.625 131.084L138.304 129.156L138.754 129.152C138.764 129.419 138.698 129.685 138.557 129.948C138.416 130.212 138.214 130.461 137.952 130.695C137.699 130.918 137.399 131.109 137.052 131.268C136.715 131.414 136.35 131.511 135.958 131.556ZM136.248 129.622C136.672 129.572 137.03 129.423 137.323 129.174C137.616 128.925 137.831 128.605 137.968 128.213C138.105 127.821 138.144 127.376 138.086 126.878C138.029 126.391 137.889 125.972 137.666 125.622C137.441 125.262 137.158 125 136.817 124.836C136.474 124.661 136.091 124.598 135.667 124.648C135.243 124.697 134.885 124.846 134.592 125.095C134.308 125.332 134.098 125.652 133.963 126.055C133.837 126.445 133.802 126.884 133.859 127.372C133.917 127.87 134.052 128.294 134.265 128.645C134.489 128.995 134.766 129.258 135.098 129.434C135.441 129.609 135.824 129.671 136.248 129.622ZM148.639 129.915L147.409 119.379L149.666 119.115L150.895 129.652L148.639 129.915ZM146.32 123.71L146.084 121.692L151.63 121.045L151.866 123.063L146.32 123.71ZM156.993 129.101C156.379 129.173 155.834 129.102 155.358 128.889C154.891 128.665 154.507 128.317 154.205 127.848C153.913 127.367 153.725 126.771 153.642 126.061L153.038 120.88L155.294 120.617L155.856 125.432C155.901 125.814 156.003 126.14 156.164 126.411C156.323 126.672 156.528 126.863 156.779 126.984C157.029 127.105 157.324 127.146 157.663 127.106C157.906 127.078 158.13 127.014 158.333 126.915C158.535 126.806 158.702 126.668 158.833 126.502C158.964 126.337 159.06 126.148 159.121 125.937C159.182 125.726 159.199 125.504 159.172 125.271L158.584 120.233L160.841 119.97L161.822 128.377L159.677 128.627L159.395 126.904L159.786 126.665C159.704 127.072 159.534 127.452 159.274 127.804C159.015 128.156 158.689 128.447 158.297 128.675C157.905 128.904 157.47 129.046 156.993 129.101ZM164.903 128.017L163.673 117.48L165.93 117.217L167.16 127.754L164.903 128.017ZM162.584 121.812L162.349 119.794L167.895 119.146L168.131 121.165L162.584 121.812ZM174.198 127.093C173.339 127.193 172.55 127.098 171.828 126.806C171.116 126.502 170.526 126.045 170.057 125.434C169.599 124.822 169.321 124.092 169.222 123.244C169.123 122.396 169.226 121.627 169.532 120.937C169.848 120.234 170.317 119.653 170.94 119.194C171.573 118.733 172.319 118.453 173.177 118.353C174.025 118.254 174.805 118.356 175.517 118.659C176.239 118.962 176.83 119.419 177.288 120.031C177.745 120.633 178.022 121.358 178.121 122.205C178.22 123.053 178.117 123.827 177.813 124.529C177.508 125.23 177.039 125.811 176.405 126.272C175.781 126.72 175.045 126.994 174.198 127.093ZM173.968 125.123C174.381 125.074 174.74 124.93 175.045 124.691C175.348 124.441 175.569 124.125 175.707 123.744C175.855 123.35 175.902 122.926 175.849 122.471C175.794 122.004 175.651 121.602 175.418 121.264C175.195 120.915 174.907 120.658 174.555 120.495C174.202 120.322 173.819 120.259 173.406 120.307C172.982 120.357 172.618 120.507 172.314 120.757C172.011 121.007 171.784 121.323 171.636 121.706C171.487 122.088 171.445 122.512 171.51 122.977C171.553 123.434 171.691 123.836 171.925 124.185C172.158 124.523 172.451 124.779 172.804 124.952C173.156 125.115 173.544 125.172 173.968 125.123ZM180.311 126.219L179.33 117.812L181.507 117.558L181.902 120.25L181.455 119.738C181.532 119.289 181.692 118.873 181.938 118.49C182.182 118.096 182.483 117.777 182.841 117.531C183.209 117.284 183.605 117.135 184.029 117.086C184.209 117.065 184.386 117.06 184.559 117.072C184.732 117.084 184.88 117.105 185.001 117.134L184.687 119.683C184.552 119.634 184.392 119.599 184.207 119.578C184.021 119.546 183.832 119.541 183.642 119.564C183.387 119.593 183.155 119.669 182.943 119.79C182.741 119.9 182.571 120.048 182.432 120.236C182.291 120.414 182.186 120.619 182.117 120.853C182.058 121.085 182.044 121.334 182.075 121.599L182.583 125.953L180.311 126.219ZM190.126 125.234C189.342 125.326 188.628 125.28 187.984 125.097C187.349 124.903 186.82 124.6 186.396 124.187L187.653 122.816C188.023 123.128 188.418 123.339 188.839 123.451C189.259 123.553 189.67 123.58 190.073 123.533C190.232 123.514 190.373 123.482 190.496 123.435C190.629 123.377 190.739 123.31 190.827 123.235C190.914 123.15 190.973 123.057 191.004 122.957C191.045 122.845 191.058 122.73 191.045 122.614C191.018 122.381 190.901 122.206 190.694 122.091C190.582 122.05 190.41 122.006 190.179 121.958C189.947 121.899 189.65 121.842 189.289 121.788C188.733 121.713 188.253 121.608 187.851 121.472C187.458 121.325 187.137 121.148 186.887 120.941C186.67 120.74 186.494 120.519 186.358 120.277C186.232 120.024 186.15 119.738 186.113 119.42C186.069 119.039 186.113 118.684 186.247 118.357C186.379 118.02 186.581 117.722 186.852 117.465C187.133 117.207 187.463 116.997 187.841 116.834C188.218 116.661 188.624 116.55 189.059 116.499C189.493 116.448 189.923 116.452 190.348 116.509C190.774 116.567 191.173 116.676 191.546 116.837C191.929 116.985 192.268 117.177 192.564 117.411L191.512 118.887C191.3 118.729 191.064 118.59 190.803 118.47C190.552 118.349 190.295 118.261 190.031 118.206C189.767 118.151 189.534 118.135 189.333 118.158C189.153 118.179 188.99 118.214 188.846 118.263C188.712 118.311 188.601 118.373 188.513 118.447C188.425 118.522 188.361 118.615 188.32 118.728C188.289 118.828 188.28 118.936 188.293 119.053C188.307 119.169 188.347 119.278 188.412 119.377C188.488 119.476 188.583 119.556 188.698 119.618C188.822 119.668 189 119.722 189.232 119.781C189.475 119.838 189.799 119.897 190.203 119.958C190.728 120.036 191.175 120.139 191.544 120.268C191.924 120.396 192.233 120.558 192.471 120.756C192.673 120.926 192.831 121.127 192.944 121.361C193.058 121.595 193.132 121.86 193.166 122.157C193.227 122.676 193.133 123.159 192.884 123.607C192.645 124.043 192.285 124.407 191.804 124.7C191.321 124.982 190.762 125.16 190.126 125.234Z" fill="#EAE8EF"/>
</svg>
